<svg width="800" height="696" viewBox="0 0 800 696" fill="none" xmlns="http://www.w3.org/2000/svg">
<rect x="0.5" y="0.5" width="799" height="695" rx="19.5" fill="white"/>
<rect x="0.5" y="0.5" width="799" height="695" rx="19.5" stroke="#B9DCD2"/>
<path d="M350.911 116.727V140H346.661L336.536 125.352H336.365V140H331.445V116.727H335.763L345.808 131.364H346.013V116.727H350.911ZM362.839 140.341C361.044 140.341 359.499 139.977 358.203 139.25C356.915 138.515 355.923 137.477 355.226 136.136C354.529 134.788 354.18 133.193 354.18 131.352C354.18 129.557 354.529 127.981 355.226 126.625C355.923 125.269 356.904 124.212 358.169 123.455C359.442 122.697 360.934 122.318 362.646 122.318C363.798 122.318 364.87 122.504 365.862 122.875C366.862 123.239 367.733 123.788 368.476 124.523C369.226 125.258 369.809 126.182 370.226 127.295C370.643 128.402 370.851 129.697 370.851 131.182V132.511H356.112V129.511H366.294C366.294 128.814 366.143 128.197 365.839 127.659C365.536 127.121 365.116 126.701 364.578 126.398C364.048 126.087 363.43 125.932 362.726 125.932C361.991 125.932 361.339 126.102 360.771 126.443C360.211 126.777 359.771 127.227 359.453 127.795C359.135 128.356 358.972 128.981 358.964 129.67V132.523C358.964 133.386 359.124 134.133 359.442 134.761C359.768 135.39 360.226 135.875 360.817 136.216C361.408 136.557 362.108 136.727 362.919 136.727C363.457 136.727 363.949 136.652 364.396 136.5C364.843 136.348 365.226 136.121 365.544 135.818C365.862 135.515 366.105 135.144 366.271 134.705L370.749 135C370.521 136.076 370.055 137.015 369.351 137.818C368.654 138.614 367.752 139.235 366.646 139.682C365.548 140.121 364.279 140.341 362.839 140.341ZM377.328 140L372.578 122.545H377.476L380.18 134.273H380.339L383.158 122.545H387.964L390.828 134.205H390.976L393.635 122.545H398.521L393.783 140H388.658L385.658 129.023H385.442L382.442 140H377.328ZM408.601 140V116.727H413.521V126.33H423.51V116.727H428.419V140H423.51V130.386H413.521V140H408.601ZM432.385 140V122.545H437.226V140H432.385ZM434.817 120.295C434.097 120.295 433.48 120.057 432.964 119.58C432.457 119.095 432.203 118.515 432.203 117.841C432.203 117.174 432.457 116.602 432.964 116.125C433.48 115.64 434.097 115.398 434.817 115.398C435.536 115.398 436.15 115.64 436.658 116.125C437.173 116.602 437.43 117.174 437.43 117.841C437.43 118.515 437.173 119.095 436.658 119.58C436.15 120.057 435.536 120.295 434.817 120.295ZM441.104 140V122.545H445.797V125.591H445.979C446.297 124.508 446.831 123.689 447.581 123.136C448.331 122.576 449.195 122.295 450.172 122.295C450.414 122.295 450.676 122.311 450.956 122.341C451.236 122.371 451.482 122.413 451.695 122.466V126.761C451.467 126.693 451.153 126.633 450.751 126.58C450.35 126.527 449.982 126.5 449.649 126.5C448.937 126.5 448.301 126.655 447.74 126.966C447.187 127.269 446.748 127.693 446.422 128.239C446.104 128.784 445.945 129.413 445.945 130.125V140H441.104ZM461.339 140.341C459.544 140.341 457.999 139.977 456.703 139.25C455.415 138.515 454.423 137.477 453.726 136.136C453.029 134.788 452.68 133.193 452.68 131.352C452.68 129.557 453.029 127.981 453.726 126.625C454.423 125.269 455.404 124.212 456.669 123.455C457.942 122.697 459.434 122.318 461.146 122.318C462.298 122.318 463.37 122.504 464.362 122.875C465.362 123.239 466.233 123.788 466.976 124.523C467.726 125.258 468.309 126.182 468.726 127.295C469.143 128.402 469.351 129.697 469.351 131.182V132.511H454.612V129.511H464.794C464.794 128.814 464.643 128.197 464.339 127.659C464.036 127.121 463.616 126.701 463.078 126.398C462.548 126.087 461.93 125.932 461.226 125.932C460.491 125.932 459.839 126.102 459.271 126.443C458.711 126.777 458.271 127.227 457.953 127.795C457.635 128.356 457.472 128.981 457.464 129.67V132.523C457.464 133.386 457.624 134.133 457.942 134.761C458.268 135.39 458.726 135.875 459.317 136.216C459.908 136.557 460.608 136.727 461.419 136.727C461.957 136.727 462.449 136.652 462.896 136.5C463.343 136.348 463.726 136.121 464.044 135.818C464.362 135.515 464.605 135.144 464.771 134.705L469.249 135C469.021 136.076 468.555 137.015 467.851 137.818C467.154 138.614 466.252 139.235 465.146 139.682C464.048 140.121 462.779 140.341 461.339 140.341Z" fill="#343A40"/>
<circle cx="412" cy="316" r="131.5" fill="#E0E2E7" stroke="#D8E6F7"/>
<g clip-path="url(#clip0_275_6378)">
<path d="M552.521 261.041L547.579 285.079L544.398 281.966L538.986 285.841L534.85 280.685L525.576 287.46L517.649 274.144L508.809 279.347L505.302 274.486L494.076 280.841L490.699 273.578L498.569 235.291L540.758 244.042L552.521 261.041Z" fill="#EBEBEB"/>
<path d="M540.758 244.042L552.521 261.041L537.886 258.006L540.758 244.042Z" fill="#DBDBDB"/>
<path d="M546.526 289.887L539.281 325.156L482.452 313.375L489.645 278.382L493.023 285.649L504.254 279.295L507.755 284.15L516.601 278.947L524.522 292.263L533.802 285.488L537.933 290.645L543.35 286.77L546.526 289.887Z" fill="#EBEBEB"/>
<path d="M465.189 285.753L407.276 289.353L402.675 214.671L445.68 212L461.466 225.3L465.189 285.753Z" fill="#EBEBEB"/>
<path d="M445.68 212L461.466 225.3L446.553 226.229L445.68 212Z" fill="#DBDBDB"/>
<path d="M429.646 262.249L429.419 260.564C428.835 257.072 429.785 253.166 432.806 249.084C435.533 245.453 437.01 242.859 436.845 239.913C436.659 236.593 434.464 234.497 430.379 234.663C428.045 234.785 425.803 235.617 423.95 237.05L422.169 233.04C424.234 231.354 427.849 230.109 431.283 229.927C438.735 229.512 442.36 233.942 442.644 238.886C442.891 243.311 440.609 246.636 437.707 250.521C435.042 254.064 434.17 256.984 434.547 260.289L434.707 261.98L429.646 262.249ZM428.727 271.436C428.593 269.029 430.116 267.245 432.383 267.12C434.65 266.996 436.302 268.593 436.437 271.006C436.561 273.283 435.171 275.119 432.775 275.254C430.488 275.384 428.835 273.713 428.706 271.436H428.727Z" fill="#DBDBDB"/>
<path d="M284.788 249.545L278.963 246.895L278.152 248.684C278.033 248.94 277.846 249.158 277.612 249.315C277.378 249.472 277.106 249.563 276.825 249.576C276.505 249.587 276.186 249.618 275.87 249.67C275.592 249.711 275.309 249.676 275.05 249.568C274.791 249.46 274.565 249.284 274.398 249.058L273.257 247.455L268.057 251.2L269.198 252.803C269.357 253.034 269.45 253.304 269.469 253.585C269.487 253.865 269.429 254.145 269.301 254.395C269.154 254.681 269.022 254.973 268.904 255.272C268.802 255.535 268.63 255.766 268.407 255.939C268.184 256.111 267.918 256.22 267.639 256.252L265.692 256.444L266.317 262.84L268.274 262.643C268.555 262.621 268.836 262.675 269.088 262.801C269.34 262.928 269.553 263.12 269.704 263.359C269.787 263.494 269.875 263.624 269.968 263.753C270.061 263.883 270.154 264.007 270.252 264.132C270.43 264.35 270.544 264.613 270.583 264.892C270.621 265.171 270.581 265.456 270.469 265.714L269.653 267.519L275.483 270.175L276.293 268.375C276.414 268.12 276.602 267.902 276.837 267.746C277.072 267.589 277.344 267.5 277.626 267.488C277.942 267.475 278.258 267.444 278.571 267.395C278.848 267.353 279.132 267.388 279.391 267.496C279.65 267.604 279.875 267.78 280.042 268.007L281.184 269.61L286.389 265.864L285.248 264.262C285.084 264.032 284.988 263.762 284.969 263.48C284.951 263.199 285.012 262.918 285.144 262.669C285.288 262.385 285.417 262.095 285.532 261.798C285.631 261.532 285.802 261.3 286.025 261.127C286.249 260.954 286.516 260.846 286.797 260.817L288.754 260.62L288.124 254.224L286.167 254.416C285.888 254.441 285.608 254.387 285.357 254.262C285.106 254.137 284.895 253.944 284.747 253.705C284.659 253.571 284.571 253.441 284.478 253.311C284.385 253.182 284.292 253.052 284.194 252.933C284.017 252.712 283.903 252.447 283.865 252.167C283.827 251.886 283.866 251.6 283.977 251.34L284.788 249.545ZM281.483 255.464C282.087 256.31 282.427 257.318 282.461 258.359C282.495 259.4 282.221 260.427 281.673 261.311C281.126 262.196 280.33 262.897 279.385 263.327C278.441 263.756 277.391 263.895 276.368 263.725C275.345 263.556 274.396 263.085 273.639 262.373C272.883 261.661 272.353 260.739 272.118 259.725C271.883 258.711 271.952 257.649 272.318 256.675C272.683 255.7 273.328 254.856 274.171 254.25C275.301 253.437 276.706 253.108 278.077 253.336C279.448 253.564 280.674 254.329 281.483 255.464Z" fill="#EBEBEB"/>
<path d="M548.096 334.41L544.212 336.661L544.899 337.855C545.002 338.026 545.053 338.223 545.047 338.423C545.04 338.622 544.976 338.816 544.863 338.98C544.744 339.167 544.631 339.359 544.527 339.561C544.443 339.74 544.309 339.891 544.141 339.996C543.974 340.1 543.78 340.155 543.583 340.152H542.219V344.66H543.593C543.79 344.658 543.984 344.712 544.151 344.817C544.319 344.922 544.453 345.073 544.538 345.252C544.641 345.454 544.755 345.646 544.873 345.833C544.987 345.997 545.05 346.19 545.057 346.39C545.063 346.59 545.012 346.787 544.91 346.958L544.223 348.151L548.106 350.403L548.798 349.204C548.898 349.034 549.044 348.896 549.218 348.804C549.392 348.713 549.588 348.672 549.784 348.686H550.445C550.641 348.672 550.837 348.713 551.011 348.805C551.186 348.897 551.331 349.035 551.432 349.204L552.124 350.408L556.002 348.156L555.315 346.958C555.217 346.786 555.169 346.59 555.177 346.392C555.184 346.194 555.246 346.002 555.356 345.838C555.475 345.651 555.589 345.454 555.692 345.257C555.777 345.078 555.911 344.927 556.078 344.822C556.246 344.717 556.44 344.663 556.637 344.665H558.01V340.158H556.627C556.429 340.16 556.235 340.106 556.068 340.001C555.9 339.896 555.766 339.745 555.682 339.566C555.578 339.369 555.465 339.172 555.346 338.985C555.236 338.821 555.174 338.629 555.166 338.431C555.159 338.233 555.207 338.037 555.305 337.865L555.991 336.667L552.113 334.415L551.421 335.598C551.321 335.768 551.176 335.907 551.002 335.998C550.827 336.09 550.631 336.131 550.435 336.117H550.105H549.774C549.577 336.13 549.381 336.089 549.206 335.997C549.031 335.906 548.885 335.768 548.783 335.598L548.096 334.41ZM550.105 338.716C550.832 338.715 551.544 338.93 552.149 339.336C552.755 339.741 553.227 340.318 553.506 340.993C553.784 341.668 553.858 342.411 553.716 343.128C553.574 343.845 553.224 344.504 552.709 345.021C552.195 345.537 551.539 345.889 550.826 346.032C550.112 346.174 549.372 346.1 548.7 345.82C548.028 345.54 547.454 345.066 547.05 344.458C546.647 343.849 546.432 343.135 546.433 342.404C546.432 341.919 546.527 341.439 546.711 340.991C546.895 340.543 547.166 340.136 547.507 339.792C547.848 339.449 548.253 339.177 548.698 338.992C549.144 338.806 549.622 338.71 550.105 338.71V338.716Z" fill="#EBEBEB"/>
<path d="M296.572 230.379L293.014 233.117L293.835 234.212C293.958 234.368 294.033 234.556 294.052 234.754C294.072 234.951 294.034 235.15 293.944 235.327C293.845 235.529 293.759 235.737 293.686 235.95C293.622 236.137 293.508 236.303 293.355 236.428C293.203 236.554 293.019 236.634 292.823 236.66L291.46 236.837L292.038 241.303L293.402 241.127C293.6 241.099 293.802 241.128 293.985 241.21C294.168 241.293 294.323 241.426 294.434 241.593C294.559 241.774 294.693 241.947 294.837 242.112C294.97 242.259 295.058 242.441 295.091 242.637C295.124 242.833 295.101 243.034 295.023 243.217L294.507 244.493L298.638 246.221L299.154 244.944C299.231 244.761 299.357 244.604 299.519 244.489C299.68 244.374 299.871 244.308 300.068 244.296L300.399 244.26L300.724 244.208C300.915 244.172 301.112 244.189 301.295 244.257C301.477 244.326 301.636 244.443 301.757 244.597L302.599 245.702L306.156 242.963L305.325 241.868C305.205 241.71 305.131 241.522 305.112 241.324C305.093 241.126 305.129 240.926 305.217 240.748C305.314 240.547 305.401 240.341 305.475 240.131C305.538 239.943 305.653 239.778 305.805 239.652C305.958 239.526 306.142 239.446 306.337 239.42L307.7 239.244L307.122 234.777L305.759 234.954C305.561 234.982 305.359 234.954 305.176 234.872C304.994 234.79 304.838 234.659 304.726 234.492C304.597 234.305 304.463 234.129 304.318 233.973C304.198 233.823 304.12 233.643 304.093 233.453C304.065 233.262 304.09 233.067 304.163 232.889L304.68 231.613L300.548 229.886L300.032 231.162C299.954 231.344 299.828 231.501 299.666 231.616C299.505 231.73 299.315 231.798 299.118 231.81L298.788 231.841L298.483 231.852C298.292 231.888 298.094 231.871 297.912 231.802C297.73 231.734 297.57 231.616 297.45 231.463L296.572 230.379ZM299.118 234.388C299.837 234.295 300.568 234.419 301.218 234.742C301.867 235.066 302.407 235.576 302.769 236.207C303.13 236.839 303.298 237.564 303.25 238.291C303.202 239.018 302.94 239.714 302.499 240.292C302.057 240.87 301.455 241.303 300.769 241.538C300.082 241.773 299.342 241.798 298.641 241.61C297.94 241.423 297.31 241.031 296.831 240.484C296.352 239.937 296.044 239.26 295.947 238.538C295.883 238.056 295.914 237.566 296.038 237.097C296.163 236.627 296.379 236.187 296.674 235.801C296.968 235.415 297.336 235.092 297.755 234.849C298.175 234.607 298.638 234.45 299.118 234.388Z" fill="#EBEBEB"/>
<path d="M269.988 347.414C270.182 342.4 270.113 337.378 269.782 332.371C269.043 322.031 267.473 311.768 265.088 301.683C263.776 296.008 262.165 290.426 260.482 284.85C260.43 284.679 260.162 284.726 260.208 284.902C265.408 304.562 269.673 324.844 269.379 345.282C269.296 350.988 268.636 356.616 268.098 362.302C268.098 362.452 268.331 362.514 268.367 362.359C269.436 357.477 269.787 352.383 269.988 347.414Z" fill="#EBEBEB"/>
<path d="M260.208 284.887C260.208 284.887 252.338 304.962 254.099 309.661C255.86 314.361 259.495 315.367 259.495 315.367C259.495 315.367 254.677 322.277 258.044 328.756C261.411 335.235 268.889 334.929 269.405 342.274C269.389 342.31 269.803 311.596 260.208 284.887Z" fill="#EBEBEB"/>
<path d="M268.532 329.627C268.545 329.594 268.545 329.557 268.532 329.524C267.499 315.818 264.939 302.273 260.9 289.141C260.9 289.104 260.822 289.115 260.833 289.141C262.392 295.02 263.769 300.923 264.964 306.85C263.906 305.843 262.613 305.119 261.204 304.744C261.204 304.744 261.163 304.775 261.204 304.786C262.684 305.33 264.015 306.219 265.088 307.379C265.315 308.546 265.542 309.708 265.754 310.875C263.993 308.899 261.556 307.919 259.113 306.985C259.108 306.987 259.103 306.991 259.1 306.996C259.096 307.002 259.094 307.007 259.094 307.014C259.094 307.02 259.096 307.025 259.1 307.031C259.103 307.036 259.108 307.04 259.113 307.042C261.659 308.079 264.189 309.418 265.914 311.622C266.513 314.953 267.04 318.295 267.494 321.649C266.223 320.311 264.592 319.373 262.8 318.947C262.743 318.947 262.712 319.014 262.769 319.03C264.61 319.574 266.253 320.645 267.499 322.111H267.53C267.685 323.287 267.833 324.468 267.974 325.654C266.991 324.818 265.88 324.145 264.685 323.662C264.654 323.662 264.633 323.698 264.685 323.709C265.905 324.24 267.022 324.982 267.985 325.903C267.985 325.903 268.01 325.903 268.026 325.903C268.155 327.029 268.284 328.154 268.398 329.28C266.625 327.127 264.323 325.475 261.721 324.487C261.71 324.487 261.699 324.491 261.692 324.499C261.684 324.507 261.68 324.517 261.68 324.528C261.68 324.539 261.684 324.55 261.692 324.558C261.699 324.566 261.71 324.57 261.721 324.57C264.291 325.708 266.548 327.454 268.3 329.659C268.319 329.683 268.345 329.701 268.374 329.71C268.404 329.719 268.435 329.719 268.465 329.71C268.635 331.438 268.79 333.165 268.914 334.898C268.914 334.924 268.955 334.924 268.955 334.898C268.821 333.158 268.68 331.402 268.532 329.627Z" fill="white"/>
<path d="M262.206 302.767C260.781 301.876 259.153 301.365 257.476 301.283C257.468 301.283 257.46 301.286 257.454 301.292C257.449 301.298 257.445 301.306 257.445 301.314C257.445 301.323 257.449 301.33 257.454 301.336C257.46 301.342 257.468 301.345 257.476 301.345C259.097 301.654 260.671 302.178 262.155 302.902C262.217 302.917 262.263 302.808 262.206 302.767Z" fill="white"/>
<path d="M263.162 324.02C262.066 323.388 260.86 322.974 259.609 322.801C259.568 322.801 259.562 322.858 259.609 322.868C260.831 323.114 262.012 323.53 263.12 324.103C263.167 324.129 263.208 324.046 263.162 324.02Z" fill="white"/>
<path d="M290.685 310.009C287.356 312.32 284.298 315.004 281.571 318.008C278.758 321.188 276.589 324.888 275.183 328.901C272.192 337.262 270.584 346.058 270.422 354.941C270.322 359.86 270.791 364.775 271.822 369.585C271.83 369.62 271.851 369.65 271.881 369.67C271.911 369.689 271.948 369.696 271.983 369.69C272.018 369.683 272.049 369.663 272.07 369.634C272.091 369.605 272.1 369.569 272.095 369.533C270.813 361.045 270.862 352.407 272.24 343.934C273.593 335.634 275.715 326.598 280.972 319.849C283.833 316.171 287.401 313.282 290.928 310.294C291.114 310.128 290.876 309.874 290.685 310.009Z" fill="#EBEBEB"/>
<path d="M271.579 348.955C273.474 345.876 275.701 343.016 278.22 340.427C282.16 336.469 285.475 333.658 285.991 331.043C286.508 328.429 282.046 326.499 282.046 326.499C282.046 326.499 287.494 327.485 288.986 325.187C290.479 322.889 291.197 309.578 291.197 309.578C291.197 309.578 281.282 316.69 276.66 326.66C272.038 336.63 271.579 348.955 271.579 348.955Z" fill="#EBEBEB"/>
<path d="M287.639 322.064C286.986 321.966 286.324 321.944 285.666 321.996C285.589 321.996 285.594 322.131 285.666 322.137C286.317 322.137 286.973 322.105 287.623 322.137C287.631 322.135 287.637 322.131 287.643 322.125C287.648 322.12 287.652 322.113 287.653 322.105C287.655 322.098 287.654 322.09 287.652 322.082C287.649 322.075 287.645 322.069 287.639 322.064Z" fill="white"/>
<path d="M280.517 334.976C279.471 334.997 278.436 335.204 277.46 335.588C277.46 335.588 277.46 335.64 277.46 335.634C278.493 335.391 279.49 335.292 280.512 335.116C280.526 335.11 280.537 335.1 280.545 335.088C280.553 335.076 280.558 335.062 280.559 335.047C280.559 335.033 280.556 335.018 280.548 335.005C280.541 334.993 280.53 334.982 280.517 334.976Z" fill="white"/>
<path d="M278.38 330.514C277.945 330.51 277.511 330.549 277.084 330.628C277.076 330.631 277.069 330.636 277.064 330.643C277.059 330.65 277.057 330.658 277.057 330.667C277.057 330.675 277.059 330.684 277.064 330.691C277.069 330.698 277.076 330.703 277.084 330.706C277.516 330.731 277.951 330.712 278.38 330.649C278.398 330.649 278.415 330.642 278.427 330.629C278.44 330.616 278.447 330.599 278.447 330.581C278.447 330.563 278.44 330.546 278.427 330.534C278.415 330.521 278.398 330.514 278.38 330.514Z" fill="white"/>
<path d="M242.511 324.129C245.738 325.228 248.83 326.691 251.729 328.491C254.736 330.411 257.344 332.898 259.407 335.816C263.75 341.887 267.074 348.632 269.25 355.781C270.463 359.74 271.212 363.828 271.481 367.961C271.475 367.988 271.46 368.012 271.439 368.029C271.418 368.046 271.392 368.056 271.364 368.056C271.337 368.056 271.311 368.046 271.29 368.029C271.269 368.012 271.254 367.988 271.248 367.961C270.337 360.795 268.312 353.816 265.248 347.279C262.237 340.873 258.442 334.057 252.638 329.814C249.477 327.505 245.924 325.991 242.382 324.393C242.196 324.331 242.325 324.066 242.511 324.129Z" fill="#EBEBEB"/>
<path d="M266.936 351.211C264.693 349.161 262.232 347.364 259.599 345.853C255.498 343.565 252.168 342.061 251.15 340.064C250.133 338.067 253.299 335.473 253.299 335.473C253.299 335.473 249.116 337.548 247.381 336.018C245.646 334.487 242 323.905 242 323.905C242 323.905 251.662 327.355 257.688 334.352C263.714 341.35 266.936 351.211 266.936 351.211Z" fill="#EBEBEB"/>
<path d="M258.917 341.469C257.967 341.403 257.013 341.521 256.108 341.817C256.108 341.817 256.108 341.863 256.108 341.858C257.032 341.699 257.965 341.602 258.902 341.568C258.969 341.568 258.984 341.474 258.917 341.469Z" fill="white"/>
<path d="M250.49 330.368C250.056 330.333 249.62 330.357 249.193 330.441C249.147 330.441 249.162 330.524 249.193 330.519C249.622 330.472 250.04 330.488 250.464 330.477C250.477 330.478 250.49 330.474 250.5 330.466C250.511 330.458 250.518 330.446 250.521 330.433C250.524 330.421 250.523 330.407 250.517 330.395C250.511 330.383 250.502 330.374 250.49 330.368Z" fill="white"/>
<path d="M279.397 381.339H257.59L260.699 358.458L261.494 352.591H275.493L276.288 358.458L279.397 381.339Z" fill="#DBDBDB"/>
<path d="M276.288 358.458H260.698L261.494 352.591H275.493L276.288 358.458Z" fill="#C7C7C7"/>
<path d="M277.492 350.558H259.49V355.527H277.492V350.558Z" fill="#DBDBDB"/>
<path d="M243.725 381.339L282.976 381.21L322.227 381.168L400.728 381.08L479.23 381.163L518.481 381.21L557.732 381.339L518.481 381.464L479.23 381.511L400.728 381.594L322.227 381.511L282.976 381.464L243.725 381.339Z" fill="#263238"/>
<path d="M401.761 420C483.538 420 549.831 412.703 549.831 403.702C549.831 394.7 483.538 387.403 401.761 387.403C319.984 387.403 253.691 394.7 253.691 403.702C253.691 412.703 319.984 420 401.761 420Z" fill="#EBEBEB"/>
<path d="M367.292 401.005C366.089 401.414 331.589 401.523 330.267 400.704C329.75 400.393 329.456 395.345 329.234 389.235C329.187 387.917 329.151 386.553 329.12 385.173L326.368 366.686L349.435 366.535L351.609 385.028L351.521 389.095C351.521 389.095 364.751 394.982 366.104 396.051C367.457 397.119 368.495 400.595 367.292 401.005Z" fill="#EB9481"/>
<path d="M367.292 401.004C366.089 401.414 331.589 401.523 330.267 400.703C329.657 400.319 329.327 392.948 329.141 385.173L351.583 385.027L351.495 389.094C351.495 389.094 364.725 394.982 366.078 396.05C367.431 397.119 368.495 400.594 367.292 401.004Z" fill="white"/>
<path d="M367.292 401.005C366.089 401.415 331.589 401.523 330.267 400.704C329.75 400.393 329.456 395.345 329.234 389.235L351.475 389.095C351.475 389.095 364.705 394.982 366.058 396.051C367.411 397.119 368.495 400.595 367.292 401.005Z" fill="#A6A6A6"/>
<path d="M366.791 399.62C361.007 399.495 337.666 399.552 331.94 399.874C331.893 399.874 331.893 399.905 331.94 399.91C337.672 400.154 361.012 399.91 366.791 399.713C366.915 399.708 366.915 399.62 366.791 399.62Z" fill="#263238"/>
<path d="M363.853 394.811C363.21 394.796 362.57 394.916 361.976 395.162C361.381 395.409 360.844 395.777 360.398 396.242C359.586 397.074 359.126 398.19 359.117 399.355C359.117 399.391 359.179 399.391 359.185 399.355C359.377 398.207 359.933 397.153 360.771 396.349C361.608 395.545 362.682 395.034 363.832 394.894C363.843 394.896 363.855 394.895 363.864 394.889C363.874 394.883 363.881 394.874 363.884 394.863C363.886 394.852 363.885 394.84 363.879 394.83C363.873 394.821 363.864 394.814 363.853 394.811Z" fill="#263238"/>
<path d="M353.736 389.665C351.423 389.639 348.743 390.469 347.307 392.378C347.256 392.45 347.359 392.528 347.426 392.492C349.447 391.42 351.577 390.568 353.778 389.95C353.812 389.941 353.841 389.919 353.861 389.889C353.88 389.86 353.888 389.824 353.883 389.789C353.878 389.754 353.86 389.722 353.833 389.699C353.806 389.676 353.772 389.664 353.736 389.665Z" fill="#263238"/>
<path d="M355.534 390.354C353.215 390.354 350.535 391.164 349.105 393.067C349.048 393.145 349.151 393.223 349.223 393.187C351.242 392.111 353.369 391.257 355.57 390.64C355.603 390.631 355.632 390.609 355.652 390.58C355.671 390.551 355.679 390.516 355.675 390.481C355.671 390.447 355.654 390.415 355.628 390.391C355.602 390.368 355.568 390.355 355.534 390.354Z" fill="#263238"/>
<path d="M357.32 391.05C355.007 391.05 352.327 391.854 350.891 393.763C350.84 393.835 350.943 393.913 351.01 393.877C353.031 392.805 355.16 391.953 357.362 391.335C357.396 391.326 357.425 391.304 357.444 391.275C357.464 391.245 357.472 391.209 357.466 391.174C357.461 391.139 357.444 391.107 357.417 391.084C357.39 391.061 357.356 391.049 357.32 391.05Z" fill="#263238"/>
<path d="M359.112 391.745C356.794 391.719 354.114 392.549 352.683 394.458C352.626 394.53 352.735 394.608 352.802 394.572C354.823 393.499 356.952 392.647 359.154 392.03C359.188 392.021 359.217 391.999 359.236 391.969C359.256 391.94 359.264 391.904 359.258 391.869C359.253 391.834 359.236 391.802 359.209 391.779C359.182 391.756 359.147 391.744 359.112 391.745Z" fill="#263238"/>
<path d="M333.396 394.349C330.814 394.349 330.814 398.421 333.396 398.405C335.978 398.39 335.999 394.333 333.396 394.349Z" fill="#263238"/>
<path d="M356.22 383.45C355.048 382.475 353.571 383.45 352.853 384.451C351.659 386.221 350.946 388.274 350.788 390.406C350.788 390.453 350.824 390.474 350.86 390.474C350.869 390.518 350.889 390.559 350.917 390.593C350.945 390.628 350.981 390.656 351.022 390.673C351.063 390.691 351.108 390.699 351.153 390.696C351.197 390.693 351.24 390.679 351.278 390.655C352.921 389.509 354.821 388.482 356.065 386.858C356.773 385.914 357.351 384.358 356.22 383.45ZM353.401 388.399C352.606 388.985 351.784 389.53 351.01 390.147C351.423 388.985 351.779 387.813 352.306 386.692C352.549 386.155 352.829 385.635 353.143 385.136C353.659 384.363 355.91 382.413 356.148 384.939C356.282 386.324 354.346 387.704 353.401 388.399Z" fill="#263238"/>
<path d="M345.025 391.289C347.039 391.59 349.12 391.009 351.098 390.692C351.141 390.681 351.181 390.66 351.214 390.63C351.247 390.601 351.273 390.564 351.29 390.523C351.306 390.481 351.313 390.437 351.309 390.392C351.306 390.348 351.291 390.305 351.268 390.267C351.276 390.261 351.282 390.253 351.286 390.245C351.29 390.236 351.292 390.227 351.292 390.217C351.292 390.208 351.29 390.199 351.286 390.19C351.282 390.181 351.276 390.174 351.268 390.168C349.679 388.745 347.745 387.766 345.66 387.331C344.442 387.097 342.717 387.434 342.562 388.954C342.376 390.386 343.848 391.102 345.025 391.289ZM343.621 389.971C342.071 387.979 345.03 387.808 345.918 388.015C346.495 388.16 347.061 388.344 347.612 388.565C348.742 389.036 349.846 389.564 350.922 390.147C349.941 390.246 348.975 390.422 348 390.557C346.832 390.713 344.488 391.066 343.621 389.971Z" fill="#263238"/>
<path d="M292.451 281.235C292.451 281.235 319.237 327.008 319.954 330.224C321.054 335.162 326.884 383.928 326.884 383.928L354.769 383.409C354.769 383.409 349.967 340.412 345.418 326.245C342.144 316.042 318.503 282.2 318.503 282.2L292.451 281.235Z" fill="#37474F"/>
<path d="M352.234 379.134C348.232 379.103 334.046 378.942 328.717 379.44C328.676 379.44 328.681 379.513 328.717 379.518C330.55 379.783 348.227 379.373 352.229 379.243C352.237 379.246 352.246 379.247 352.255 379.246C352.264 379.245 352.272 379.242 352.279 379.237C352.287 379.232 352.293 379.226 352.297 379.218C352.302 379.21 352.304 379.201 352.305 379.192C352.305 379.183 352.303 379.175 352.3 379.166C352.296 379.158 352.291 379.151 352.284 379.145C352.277 379.14 352.269 379.136 352.26 379.134C352.251 379.132 352.242 379.132 352.234 379.134Z" fill="#263238"/>
<path d="M297.021 285.437C298.777 288.202 300.636 290.91 302.423 293.654C304.209 296.398 306.006 299.142 307.778 301.881C311.31 307.414 314.752 312.983 318.106 318.589C319.742 321.188 321.142 323.929 322.288 326.78C323.335 329.631 324.121 332.573 324.638 335.567C325.185 338.571 325.547 341.605 325.882 344.64C326.227 347.866 326.586 351.094 326.962 354.324C327.695 360.933 328.43 367.542 329.167 374.15C329.254 374.959 329.342 375.769 329.425 376.583C329.425 376.702 329.223 376.723 329.208 376.583C328.387 370.021 327.705 363.433 326.962 356.871C326.59 353.596 326.22 350.323 325.851 347.052C325.505 344.007 325.175 340.957 324.705 337.933C324.274 334.947 323.618 332 322.743 329.114C321.778 326.126 320.486 323.256 318.89 320.555C315.663 314.958 312.244 309.459 308.826 303.956C305.407 298.452 301.896 292.902 298.292 287.465C297.848 286.796 297.398 286.127 296.934 285.468C296.897 285.432 296.99 285.385 297.021 285.437Z" fill="#263238"/>
<path d="M301.23 403.701C299.96 403.624 267.148 390.271 266.239 389.006C266.199 388.931 266.181 388.847 266.188 388.762C266.188 387.626 268.465 383.663 270.365 378.455C270.484 378.123 271.331 376.577 272.503 374.497C275.762 368.796 281.442 358.977 281.442 358.977L302.888 367.536L292.622 382.968L291.026 386.703C291.026 386.703 301.091 397.155 301.937 398.633C302.784 400.112 302.495 403.774 301.23 403.701Z" fill="#EB9481"/>
<path d="M301.23 403.702C299.96 403.624 267.148 390.272 266.239 389.006C266.199 388.931 266.181 388.847 266.188 388.762C266.188 387.626 268.465 383.663 270.365 378.455C270.484 378.123 271.331 376.577 272.503 374.497L292.642 382.968L291.047 386.703C291.047 386.703 301.111 397.155 301.958 398.634C302.805 400.112 302.495 403.774 301.23 403.702Z" fill="white"/>
<path d="M301.23 403.702C299.96 403.624 267.148 390.272 266.239 389.006C265.888 388.524 267.355 384.026 270.37 378.455L291.026 386.708C291.026 386.708 301.091 397.15 301.943 398.639C302.795 400.128 302.495 403.774 301.23 403.702Z" fill="#A6A6A6"/>
<path d="M301.282 402.229C295.968 399.936 274.311 391.19 268.883 389.333C268.837 389.333 268.827 389.333 268.883 389.364C274.104 391.75 295.829 400.32 301.261 402.332C301.364 402.358 301.395 402.275 301.282 402.229Z" fill="#263238"/>
<path d="M300.352 396.663C299.763 396.403 299.126 396.269 298.483 396.269C297.839 396.269 297.203 396.403 296.613 396.663C295.554 397.129 294.714 397.987 294.269 399.059C294.269 399.091 294.316 399.116 294.331 399.085C294.94 398.091 295.853 397.321 296.934 396.892C298.015 396.463 299.205 396.397 300.326 396.704C300.335 396.702 300.342 396.696 300.347 396.689C300.352 396.681 300.354 396.672 300.352 396.663Z" fill="#263238"/>
<path d="M292.901 388.083C290.768 387.185 287.969 386.947 285.929 388.176C285.852 388.223 285.929 388.332 285.996 388.327C288.27 388.095 290.562 388.107 292.833 388.363C292.868 388.367 292.904 388.358 292.932 388.337C292.961 388.317 292.981 388.287 292.99 388.253C292.998 388.218 292.993 388.182 292.977 388.151C292.961 388.12 292.933 388.095 292.901 388.083Z" fill="#263238"/>
<path d="M294.3 389.4C292.167 388.503 289.368 388.264 287.329 389.494C287.251 389.54 287.329 389.649 287.396 389.644C289.67 389.41 291.962 389.422 294.233 389.68C294.268 389.684 294.303 389.675 294.332 389.655C294.36 389.634 294.381 389.604 294.389 389.57C294.397 389.536 294.393 389.499 294.376 389.468C294.36 389.437 294.333 389.413 294.3 389.4Z" fill="#263238"/>
<path d="M295.705 390.718C293.567 389.82 290.768 389.582 288.733 390.811C288.651 390.858 288.733 390.967 288.795 390.961C291.069 390.727 293.361 390.739 295.632 390.998C295.668 391.004 295.704 390.996 295.735 390.976C295.765 390.957 295.787 390.926 295.796 390.891C295.805 390.856 295.801 390.818 295.784 390.786C295.767 390.754 295.739 390.73 295.705 390.718Z" fill="#263238"/>
<path d="M297.104 392.036C294.966 391.138 292.172 390.9 290.133 392.124C290.05 392.176 290.133 392.285 290.195 392.28C292.468 392.045 294.761 392.057 297.032 392.316C297.067 392.322 297.104 392.314 297.134 392.294C297.165 392.275 297.186 392.244 297.196 392.209C297.205 392.174 297.2 392.137 297.183 392.104C297.166 392.072 297.138 392.048 297.104 392.036Z" fill="#263238"/>
<path d="M272.291 384.758C269.88 383.793 268.382 387.564 270.804 388.529C273.226 389.494 274.729 385.723 272.291 384.758Z" fill="#263238"/>
<path d="M297.522 383.259C296.794 381.915 295.074 382.247 294.026 382.917C292.26 384.105 290.836 385.738 289.895 387.653C289.891 387.661 289.889 387.67 289.889 387.68C289.889 387.689 289.891 387.698 289.895 387.707C289.899 387.715 289.904 387.723 289.912 387.729C289.919 387.734 289.927 387.739 289.936 387.741C289.936 387.912 290.05 388.114 290.251 388.073C292.209 387.621 294.352 387.388 296.107 386.351C297.114 385.749 298.209 384.53 297.522 383.259ZM293.055 386.781C292.1 387.025 291.14 387.222 290.195 387.502C290.976 386.556 291.805 385.651 292.678 384.789C293.108 384.378 293.565 383.997 294.047 383.648C294.796 383.129 297.625 382.17 296.903 384.602C296.505 385.946 294.197 386.491 293.055 386.781Z" fill="#263238"/>
<path d="M284.215 386.303C285.971 387.341 288.114 387.585 290.066 388.041C290.267 388.088 290.401 387.885 290.386 387.709C290.396 387.708 290.405 387.705 290.413 387.699C290.421 387.693 290.427 387.686 290.431 387.677C290.435 387.668 290.437 387.658 290.436 387.648C290.436 387.639 290.432 387.629 290.427 387.621C289.488 385.703 288.063 384.066 286.296 382.875C285.263 382.2 283.533 381.863 282.8 383.201C282.067 384.54 283.187 385.696 284.215 386.303ZM283.409 384.55C282.692 382.117 285.516 383.082 286.265 383.606C286.746 383.955 287.201 384.338 287.628 384.752C288.5 385.616 289.327 386.523 290.107 387.47C289.162 387.19 288.201 386.988 287.246 386.744C286.089 386.433 283.802 385.914 283.409 384.55Z" fill="#263238"/>
<path d="M294.29 382.107L270.283 372.371C270.283 372.371 300.047 328.409 300.264 325.135C300.461 322.241 287.386 297.02 286.874 289.67C286.317 281.733 290.117 275.597 294.3 271.784L319.061 282.361C319.061 282.361 316.448 286.558 312.348 288.897C312.348 288.897 325.046 318.05 324.323 327.013C323.6 335.977 294.29 382.107 294.29 382.107Z" fill="#37474F"/>
<path d="M295.353 377.521C291.883 376.022 292.9 376.401 289.41 374.928C287.706 374.212 276.5 369.528 274.775 369.139C274.739 369.139 274.713 369.191 274.749 369.211C276.242 370.129 287.54 374.616 289.26 375.301C292.777 376.691 291.78 376.256 295.312 377.604C295.317 377.611 295.324 377.617 295.332 377.621C295.34 377.624 295.349 377.626 295.358 377.625C295.367 377.624 295.375 377.621 295.382 377.616C295.39 377.611 295.396 377.604 295.4 377.596C295.403 377.588 295.405 377.58 295.405 377.571C295.405 377.562 295.402 377.553 295.397 377.546C295.393 377.538 295.386 377.532 295.378 377.528C295.371 377.524 295.362 377.521 295.353 377.521Z" fill="#263238"/>
<path d="M316.407 288.363C313.829 288.966 311.307 289.789 308.867 290.821C308.858 290.825 308.848 290.83 308.841 290.837C308.833 290.844 308.827 290.852 308.822 290.862C308.817 290.871 308.815 290.881 308.814 290.892C308.813 290.902 308.815 290.913 308.818 290.923C308.822 290.933 308.827 290.942 308.834 290.949C308.841 290.957 308.849 290.964 308.858 290.968C308.868 290.973 308.878 290.975 308.888 290.976C308.899 290.977 308.909 290.975 308.919 290.972C311.449 290.23 314.021 289.535 316.51 288.658C316.701 288.591 316.603 288.321 316.407 288.363Z" fill="#263238"/>
<path d="M313.458 287.356C313.217 287.786 313.005 288.232 312.823 288.69C312.645 289.037 312.534 289.416 312.498 289.805C312.498 289.883 312.601 289.898 312.647 289.851C312.906 289.54 313.115 289.19 313.267 288.814C313.479 288.404 313.696 288 313.897 287.579C314.036 287.273 313.618 287.076 313.458 287.356Z" fill="#263238"/>
<path d="M313.768 285.001C313.923 284.617 314.073 284.238 314.233 283.854C314.393 283.471 314.594 283.076 314.749 282.672C314.749 282.609 314.873 282.672 314.847 282.718C314.692 283.102 314.594 283.507 314.475 283.901C314.357 284.295 314.222 284.69 314.093 285.084C313.851 285.815 313.577 286.541 313.241 287.252C313.648 287.272 314.053 287.202 314.429 287.045C314.813 286.798 315.108 286.434 315.271 286.007C315.488 285.582 315.689 285.146 315.911 284.721C316.184 284.261 316.414 283.776 316.598 283.273C316.598 283.211 316.722 283.273 316.696 283.32C316.359 284.383 315.918 285.41 315.379 286.386C315.147 286.764 314.966 287.164 314.543 287.309C314.084 287.438 313.605 287.471 313.133 287.408C313.071 287.408 312.999 287.408 313.019 287.314C313.231 286.531 313.481 285.759 313.768 285.001Z" fill="#263238"/>
<path d="M312.715 289.846C313.598 291.718 314.372 293.586 315.193 295.453C316.014 297.321 316.742 299.126 317.481 300.983C318.958 304.728 320.28 308.546 321.442 312.395C322.015 314.304 322.547 316.228 323.022 318.168C323.545 320.102 323.928 322.072 324.168 324.061C324.375 326.047 324.2 328.055 323.652 329.975C323.082 331.872 322.351 333.717 321.467 335.489C320.925 336.609 320.744 336.459 321.003 335.893C321.741 334.285 323.678 329.414 323.538 325.322C323.425 323.362 323.124 321.418 322.64 319.517C322.189 317.556 321.681 315.611 321.116 313.681C320.016 309.874 318.71 306.144 317.367 302.42C316.613 300.345 315.818 298.27 315.043 296.195C314.269 294.12 313.494 292.211 312.627 289.918C312.601 289.825 312.689 289.789 312.715 289.846Z" fill="#263238"/>
<path d="M294.491 283.658C294.92 283.497 295.524 283.761 295.958 283.834C296.519 283.93 297.087 283.987 297.656 284.005C298.22 284.025 298.784 284.006 299.345 283.948C299.91 283.934 300.464 283.786 300.961 283.518C301.778 282.92 302.478 282.176 303.027 281.323C303.681 280.452 304.22 279.5 304.633 278.491C304.633 278.429 304.741 278.491 304.721 278.533C304.54 279.108 304.406 279.689 304.204 280.255C303.982 280.786 303.716 281.298 303.409 281.785C302.912 282.765 302.177 283.604 301.271 284.223C300.275 284.794 298.994 284.742 297.884 284.695C297.24 284.657 296.599 284.573 295.968 284.441C295.513 284.342 294.749 284.27 294.46 283.87C294.446 283.855 294.436 283.837 294.43 283.817C294.425 283.798 294.423 283.777 294.426 283.757C294.429 283.736 294.436 283.717 294.448 283.7C294.459 283.683 294.474 283.668 294.491 283.658Z" fill="#263238"/>
<path d="M277.135 367.759C281.08 361.756 284.953 355.704 288.754 349.603C292.555 343.503 296.304 337.356 300.001 331.163C300.884 329.684 301.901 328.211 302.469 326.572C303.089 324.793 302.738 323.065 302.18 321.322C301.127 318.143 299.896 315.025 298.493 311.985C297.109 308.92 295.617 305.906 294.15 302.882C292.684 299.857 291.15 296.869 290.019 293.716C288.986 290.702 288.568 287.579 289.374 284.456C290.179 281.334 291.914 278.574 293.727 275.975C294.202 275.29 294.693 274.611 295.173 273.9C295.209 273.848 295.286 273.9 295.25 273.962C293.252 276.67 291.305 279.539 290.133 282.719C289.534 284.286 289.199 285.943 289.141 287.621C289.132 289.324 289.395 291.017 289.921 292.637C290.892 295.791 292.426 298.773 293.856 301.74C295.286 304.707 296.815 307.778 298.225 310.834C299.679 313.909 300.972 317.058 302.098 320.269C302.578 321.696 303.13 323.19 303.089 324.72C303.053 326.396 302.258 327.905 301.431 329.316C297.817 335.463 294.114 341.537 290.345 347.575C286.575 353.613 282.697 359.651 278.772 365.627L277.285 367.883C277.208 367.977 277.073 367.868 277.135 367.759Z" fill="#263238"/>
<path d="M320.435 254.402C322.671 259.329 333.964 266.12 339.252 266.851C343.052 267.37 354.609 267.556 358.57 266.95C363.218 266.234 359.665 253.655 356.923 253.981C349.383 254.863 342.98 255.849 340.966 255.849C338.508 255.849 325.211 251.564 323.61 250.957C319.686 249.489 319.169 251.606 320.435 254.402Z" fill="#EB9481"/>
<path d="M320.507 255.714C323.337 259.921 332.74 266.799 332.74 266.799L334.047 263.894L338.369 254.287C338.369 254.287 329.73 251.564 324.044 250.319C323.375 250.166 322.695 250.069 322.01 250.029C318.379 249.831 318.064 252.083 320.507 255.714Z" fill="#4B9560"/>
<path d="M320.507 255.714C323.337 259.92 332.74 266.799 332.74 266.799L334.047 263.894C330.54 259.801 325.123 253.602 322.01 250.039C318.379 249.831 318.064 252.082 320.507 255.714Z" fill="#263238"/>
<path d="M331.046 264.848C331.764 263.079 334.956 255.957 335.751 254.473C335.802 254.37 335.885 254.38 335.839 254.473C334.454 258.015 332.879 261.479 331.119 264.848C331.098 264.91 331.015 264.889 331.046 264.848Z" fill="#263238"/>
<path d="M355.539 254.111C360.124 253.509 365.8 252.477 370.607 254.526C371.147 254.739 371.6 255.128 371.893 255.631C374.062 256.513 374.299 257.804 374.299 257.804C376.071 259.246 376.132 260.605 376.132 260.605C376.132 260.605 378.673 261.643 378.286 263.313C377.862 265.16 374.382 263.313 371.852 263.464C366.042 263.827 357.909 265.969 356.231 266.239L355.539 254.111Z" fill="#EB9481"/>
<path d="M365.5 259.547C367.199 259.431 368.903 259.431 370.602 259.547C372.452 259.78 374.282 260.153 376.076 260.663C376.087 260.667 376.1 260.666 376.111 260.661C376.122 260.655 376.131 260.646 376.135 260.634C376.139 260.622 376.138 260.609 376.133 260.598C376.128 260.587 376.118 260.578 376.107 260.574C372.736 259.246 369.067 258.873 365.5 259.495C365.417 259.485 365.417 259.552 365.5 259.547Z" fill="#263238"/>
<path d="M364.421 254.158C367.256 254.303 369.027 254.759 371.877 255.621V255.589C368.738 254.272 367.452 254.147 364.405 254.033C364.307 254.075 364.312 254.158 364.421 254.158Z" fill="#263238"/>
<path d="M364.88 264.345C364.142 264.692 364.323 265.081 365.732 265.408C367.142 265.735 373.003 265.833 372.797 267.888C372.59 269.942 364.323 269.682 362.014 268.956C359.706 268.23 356.231 266.238 356.231 266.238C357.868 265.963 361.71 264.921 364.88 264.345Z" fill="#EB9481"/>
<path d="M326.575 262.254C326.538 263.141 326.456 264.044 326.332 264.941C326.332 264.905 326.332 264.874 326.368 264.843C326.538 264.376 326.709 263.899 326.915 263.447C326.915 263.447 326.967 263.447 326.962 263.447C326.863 263.942 326.714 264.425 326.518 264.889C326.425 265.113 326.337 265.33 326.239 265.548C326.177 265.948 326.105 266.342 326.027 266.736C325.872 267.478 325.175 270.632 324.994 271.166C324.963 271.275 324.829 271.249 324.839 271.125C324.876 270.544 325.459 267.26 325.578 266.513C325.809 265.071 326.117 263.642 326.502 262.234C326.528 262.208 326.58 262.228 326.575 262.254Z" fill="#263238"/>
<path d="M321.204 285.842C319.825 286.552 318.049 287.657 310.045 286.075C309.528 285.971 309.043 285.847 308.537 285.696C301.034 283.435 292.012 274.57 291.522 273.942C291.522 273.942 303.445 254.526 318.694 248.421C320.579 247.668 323.698 249.121 325.407 250.931C326.022 251.58 327.359 256.347 326.848 260.206C326.337 264.065 322.577 285.131 321.204 285.842Z" fill="#4B9560"/>
<path d="M320.13 260.029C320.188 260.85 320.073 261.673 319.794 262.447C319.729 261.626 319.843 260.801 320.13 260.029Z" fill="white"/>
<path d="M314.93 273.252C314.963 273.66 314.949 274.071 314.889 274.476C314.839 274.884 314.74 275.285 314.594 275.669C314.559 275.259 314.572 274.846 314.635 274.44C314.688 274.034 314.787 273.635 314.93 273.252Z" fill="white"/>
<path d="M306.094 263.256C306.153 264.076 306.039 264.9 305.759 265.673C305.694 264.852 305.809 264.028 306.094 263.256Z" fill="white"/>
<path d="M323.533 272.577C323.566 272.987 323.552 273.4 323.492 273.807C323.442 274.215 323.343 274.615 323.197 275C323.162 274.59 323.175 274.177 323.238 273.77C323.291 273.363 323.389 272.962 323.533 272.577Z" fill="white"/>
<path d="M312.188 261.544C312.594 261.509 313.003 261.521 313.406 261.58C313.813 261.632 314.212 261.733 314.594 261.881C313.777 261.94 312.957 261.825 312.188 261.544Z" fill="white"/>
<path d="M302.159 271.094C302.976 271.036 303.796 271.151 304.566 271.431C303.749 271.497 302.927 271.382 302.159 271.094Z" fill="white"/>
<path d="M313.974 281.432C314.791 281.373 315.611 281.488 316.381 281.769C315.564 281.834 314.743 281.719 313.974 281.432Z" fill="white"/>
<path d="M299.066 277.677C299.883 277.619 300.703 277.734 301.473 278.014C300.656 278.079 299.834 277.964 299.066 277.677Z" fill="white"/>
<path d="M320.052 250.733C320.869 250.675 321.689 250.79 322.459 251.07C321.642 251.128 320.822 251.013 320.052 250.733Z" fill="white"/>
<path d="M317.135 254.043C316.874 254.358 316.576 254.64 316.247 254.883C315.927 255.132 315.58 255.344 315.214 255.516C315.473 255.203 315.768 254.921 316.092 254.676C316.415 254.426 316.765 254.214 317.135 254.043Z" fill="white"/>
<path d="M301.235 263.448C300.971 263.761 300.671 264.041 300.342 264.283C300.025 264.537 299.678 264.749 299.309 264.916C299.575 264.605 299.874 264.325 300.202 264.081C300.52 263.829 300.867 263.616 301.235 263.448Z" fill="white"/>
<path d="M321.09 267.691C320.826 268.006 320.526 268.288 320.197 268.532C319.879 268.784 319.533 268.996 319.164 269.165C319.428 268.85 319.728 268.568 320.057 268.324C320.377 268.075 320.723 267.862 321.09 267.691Z" fill="white"/>
<path d="M308.232 275.824C307.968 276.138 307.668 276.42 307.339 276.665C307.021 276.916 306.674 277.128 306.306 277.297C306.57 276.983 306.87 276.701 307.2 276.457C307.519 276.207 307.865 275.995 308.232 275.824Z" fill="white"/>
<path d="M326.017 256.58C325.753 256.894 325.453 257.176 325.123 257.42C324.803 257.669 324.457 257.881 324.091 258.053C324.355 257.739 324.655 257.457 324.984 257.213C325.302 256.961 325.649 256.749 326.017 256.58Z" fill="white"/>
<path d="M325.748 266.005C325.436 265.74 325.155 265.439 324.912 265.108C324.66 264.789 324.449 264.441 324.282 264.07C324.596 264.333 324.876 264.632 325.118 264.963C325.365 265.286 325.576 265.636 325.748 266.005Z" fill="white"/>
<path d="M297.088 272.499C296.776 272.234 296.495 271.933 296.252 271.602C296.003 271.281 295.792 270.933 295.622 270.564C295.935 270.83 296.215 271.131 296.458 271.462C296.709 271.781 296.92 272.13 297.088 272.499Z" fill="white"/>
<path d="M322.262 280.224C321.949 279.961 321.668 279.662 321.426 279.331C321.178 279.01 320.967 278.662 320.796 278.294C321.109 278.559 321.389 278.86 321.632 279.191C321.882 279.51 322.093 279.856 322.262 280.224Z" fill="white"/>
<path d="M309.647 258.203C309.335 257.94 309.054 257.64 308.811 257.311C308.564 256.989 308.353 256.641 308.181 256.273C308.494 256.536 308.775 256.835 309.017 257.166C309.264 257.488 309.475 257.836 309.647 258.203Z" fill="white"/>
<path d="M309.869 284.622C309.556 284.357 309.276 284.056 309.033 283.725C308.785 283.404 308.574 283.056 308.403 282.688C308.716 282.95 308.997 283.249 309.239 283.58C309.488 283.902 309.699 284.252 309.869 284.622Z" fill="white"/>
<path d="M312.012 269.039C311.702 268.773 311.424 268.471 311.181 268.142C310.929 267.824 310.717 267.475 310.551 267.104C310.862 267.37 311.141 267.671 311.382 268.002C311.633 268.321 311.845 268.669 312.012 269.039Z" fill="white"/>
<path d="M322.614 256.103C320.667 255.739 318.839 251.699 318.606 248.98C318.606 248.794 319.515 247.315 320.553 245.463C321.183 244.338 321.849 243.067 322.381 241.863C322.49 241.62 323.125 242.444 323.125 242.444L324.509 243.482L329.079 247.004C327.991 248.316 327.066 249.757 326.326 251.294C326.253 251.461 326.198 251.634 326.161 251.813C326.159 251.842 326.159 251.871 326.161 251.901C325.877 252.928 324.488 256.45 322.614 256.103Z" fill="#EB9481"/>
<path d="M326.161 251.838C326.159 251.868 326.159 251.897 326.161 251.926C325.89 251.846 325.626 251.744 325.371 251.62C320.367 249.265 322.572 242.532 322.572 242.532L324.535 243.507L329.105 247.03C328.016 248.341 327.092 249.782 326.352 251.319C326.27 251.485 326.206 251.659 326.161 251.838Z" fill="#263238"/>
<path d="M334.331 232.672C334.331 232.672 336.618 234.13 336.629 236.723C336.639 239.317 335.596 241.853 335.379 241.947C335.162 242.04 334.331 232.672 334.331 232.672Z" fill="#263238"/>
<path d="M322.98 234.02C321.607 236.743 321.679 245.328 323.393 247.538C325.882 250.744 330.675 251.849 333.572 248.679C336.376 245.609 336.086 234.425 334.088 232.339C331.181 229.258 325.015 229.99 322.98 234.02Z" fill="#EB9481"/>
<path d="M330.272 240.894C330.272 240.894 330.225 240.925 330.231 240.945C330.261 241.532 330.2 242.206 329.678 242.413C329.678 242.413 329.678 242.45 329.678 242.445C330.323 242.341 330.396 241.443 330.272 240.894Z" fill="#263238"/>
<path d="M329.74 240.297C328.8 240.245 328.769 242.133 329.642 242.18C330.514 242.227 330.525 240.338 329.74 240.297Z" fill="#263238"/>
<path d="M333.458 240.873C333.458 240.873 333.504 240.873 333.504 240.925C333.473 241.511 333.54 242.185 334.067 242.388C334.067 242.388 334.067 242.424 334.067 242.419C333.416 242.32 333.339 241.423 333.458 240.873Z" fill="#263238"/>
<path d="M333.99 240.271C334.924 240.214 334.971 242.102 334.103 242.154C333.236 242.206 333.205 240.317 333.99 240.271Z" fill="#263238"/>
<path d="M329.151 238.86C329.398 238.789 329.641 238.706 329.879 238.611C330.151 238.562 330.398 238.423 330.582 238.217C330.626 238.141 330.645 238.053 330.635 237.966C330.624 237.879 330.586 237.797 330.525 237.734C330.385 237.628 330.22 237.56 330.045 237.539C329.871 237.518 329.694 237.544 329.533 237.615C329.185 237.709 328.883 237.929 328.687 238.232C328.647 238.304 328.629 238.387 328.635 238.469C328.641 238.551 328.67 238.63 328.719 238.696C328.768 238.762 328.834 238.812 328.911 238.841C328.988 238.871 329.071 238.877 329.151 238.86Z" fill="#263238"/>
<path d="M334.63 239.695C334.379 239.639 334.131 239.569 333.887 239.488C333.614 239.451 333.362 239.326 333.169 239.13C333.119 239.058 333.095 238.971 333.101 238.883C333.106 238.796 333.141 238.712 333.2 238.647C333.333 238.533 333.494 238.457 333.667 238.427C333.84 238.396 334.017 238.414 334.181 238.476C334.534 238.55 334.847 238.753 335.059 239.047C335.103 239.116 335.126 239.197 335.126 239.28C335.125 239.362 335.1 239.443 335.055 239.511C335.009 239.58 334.945 239.634 334.87 239.667C334.794 239.699 334.711 239.709 334.63 239.695Z" fill="#263238"/>
<path d="M328.95 246.439C329.089 246.579 329.223 246.766 329.435 246.786C329.652 246.786 329.867 246.74 330.065 246.652C330.065 246.652 330.101 246.652 330.065 246.683C329.98 246.797 329.867 246.885 329.736 246.939C329.605 246.993 329.461 247.01 329.321 246.989C329.204 246.956 329.098 246.89 329.017 246.798C328.936 246.706 328.884 246.592 328.867 246.47C328.863 246.459 328.863 246.447 328.868 246.436C328.873 246.425 328.882 246.417 328.893 246.413C328.904 246.409 328.916 246.409 328.927 246.414C328.937 246.419 328.946 246.428 328.95 246.439Z" fill="#263238"/>
<path d="M332.327 243.938C332.327 243.938 332.353 244.81 332.327 245.219C331.534 245.135 330.732 245.163 329.947 245.302C329.761 245.344 329.781 245.193 329.993 245.095C330.626 244.804 331.331 244.71 332.017 244.825C332.059 244.716 331.95 243.476 332.017 243.482C332.33 243.543 332.632 243.648 332.916 243.793C332.916 241.967 332.627 240.162 332.652 238.336C332.652 238.274 332.751 238.263 332.761 238.336C333.128 240.267 333.301 242.231 333.277 244.197C333.282 244.421 332.482 244.021 332.327 243.938Z" fill="#263238"/>
<path d="M331.165 244.908C330.959 245.452 330.577 245.911 330.081 246.21C329.301 246.526 329.048 245.816 329.833 245.173C330.244 244.964 330.705 244.872 331.165 244.908Z" fill="#263238"/>
<path d="M330.354 246.049C330.272 246.117 330.18 246.171 330.081 246.21C329.363 246.501 329.079 245.925 329.657 245.344C330.05 245.375 330.499 245.52 330.354 246.049Z" fill="#FF99BA"/>
<path d="M322.588 241.36C323.533 241.651 324.617 238.798 324.927 237.729C325.196 236.764 325.505 233.699 325.552 233.486C325.598 233.273 329.683 236.199 332.048 235.504C334.413 234.809 336.019 232.656 336.055 231.655C336.091 230.654 333.132 228.112 330.576 227.982C328.02 227.853 324.555 231.095 324.555 231.095C324.974 230.618 325.354 230.108 325.691 229.57C325.65 229.455 323.998 230.119 323.693 231.302C323.693 231.302 324.023 229.813 323.899 229.787C323.775 229.762 322.49 231.032 322.779 231.997C322.779 231.997 321.292 233.289 321.157 234.705C321.023 236.121 321.478 241.018 322.588 241.36Z" fill="#263238"/>
<path d="M333.742 234.964C333.039 235.347 332.281 235.62 331.496 235.773C330.614 235.852 329.727 235.71 328.914 235.358C328.095 235.04 327.334 234.588 326.662 234.02C326.068 233.532 325.537 232.936 324.901 232.5C324.741 232.386 324.561 232.619 324.659 232.765C325.718 234.268 327.232 235.389 328.976 235.96C329.785 236.225 330.65 236.275 331.484 236.104C332.319 235.933 333.095 235.547 333.737 234.985C333.737 234.985 333.752 234.964 333.742 234.964Z" fill="#263238"/>
<path d="M323.574 241.106C323.574 241.106 322.108 238.118 320.786 238.601C319.464 239.083 320.269 243.217 321.627 243.975C321.794 244.083 321.98 244.156 322.175 244.19C322.371 244.224 322.571 244.218 322.763 244.173C322.956 244.127 323.138 244.043 323.298 243.925C323.457 243.807 323.592 243.658 323.693 243.487L323.574 241.106Z" fill="#EB9481"/>
<path d="M321.049 239.778C321.049 239.778 321.018 239.778 321.049 239.82C321.989 240.38 322.371 241.376 322.598 242.413C322.555 242.304 322.489 242.204 322.405 242.123C322.32 242.041 322.219 241.979 322.108 241.94C321.997 241.902 321.879 241.888 321.762 241.9C321.645 241.912 321.532 241.949 321.431 242.009C321.4 242.009 321.431 242.066 321.431 242.066C321.616 242.037 321.805 242.066 321.972 242.15C322.14 242.234 322.277 242.367 322.366 242.533C322.514 242.81 322.631 243.102 322.717 243.404C322.748 243.503 322.918 243.477 322.903 243.368C323.125 242.076 322.402 240.121 321.049 239.778Z" fill="#263238"/>
<path d="M313.892 254.448C312.859 260.325 319.2 280.125 323.264 283.824C329.311 289.322 340.491 292.938 344.545 294.115C346.311 294.634 351.196 282.148 349.409 281.323C345.583 279.575 333.695 275.84 332.565 274.907C331.434 273.973 324.617 264.081 321.581 258.385C317.517 250.718 314.403 251.476 313.892 254.448Z" fill="#EB9481"/>
<path d="M346.399 280.224C346.399 280.224 351.676 281.578 355.079 282.62C356.979 283.206 360.15 284.498 361.353 285.567C363.15 287.169 369.646 295.013 367.787 296.636C366.104 298.109 361.374 290.655 361.374 290.655C361.374 290.655 366.806 297.751 364.472 299.147C362.138 300.542 357.868 291.407 357.868 291.407C357.868 291.407 363.285 298.825 360.635 299.878C358.632 300.672 354.335 292.616 354.335 292.616C354.335 292.616 358.952 299.022 356.917 299.93C354.676 300.936 350.251 293.747 350.251 293.747C344.715 295.184 341.472 293.591 339.34 292.191C338.839 291.848 346.399 280.224 346.399 280.224Z" fill="#EB9481"/>
<path d="M359.649 288.077C360.321 288.886 361.002 289.706 361.596 290.572C362.19 291.438 362.753 292.331 363.264 293.249C363.957 294.436 364.511 295.7 364.916 297.015C364.028 294.732 361.947 291.594 361.353 290.728C360.759 289.861 360.207 288.964 359.618 288.098C359.603 288.077 359.634 288.056 359.649 288.077Z" fill="#263238"/>
<path d="M356.494 290.178C357.64 291.091 360.042 294.484 360.966 296.761C361.007 296.854 360.966 296.849 360.899 296.761C360.176 295.635 357.243 291.278 356.468 290.194C356.453 290.178 356.478 290.163 356.494 290.178Z" fill="#263238"/>
<path d="M353.463 291.506C354.887 293.006 356.013 294.767 356.778 296.693C356.814 296.786 356.742 296.771 356.685 296.693C355.616 294.945 354.79 293.581 353.406 291.552C353.385 291.506 353.432 291.459 353.463 291.506Z" fill="#263238"/>
<path d="M319.655 254.878C314.94 248.181 312.121 250.661 313.066 257.934C313.954 264.734 316.324 272.837 316.324 272.837L328.201 267.048C328.201 267.048 322.655 259.168 319.655 254.878Z" fill="#4B9560"/>
<path d="M322.521 257.514C322.677 257.892 322.79 258.287 322.856 258.691C322.929 259.097 322.955 259.509 322.934 259.921C322.779 259.54 322.668 259.144 322.603 258.738C322.527 258.335 322.499 257.924 322.521 257.514Z" fill="white"/>
<path d="M315.482 261.586C316.24 261.276 317.056 261.134 317.873 261.171C317.497 261.326 317.103 261.438 316.701 261.503C316.3 261.58 315.89 261.607 315.482 261.586Z" fill="white"/>
<path d="M315.787 251.17C315.467 251.928 314.99 252.609 314.388 253.167C314.707 252.409 315.185 251.728 315.787 251.17Z" fill="white"/>
<path d="M325.852 264.714C325.695 265.093 325.496 265.453 325.258 265.788C325.026 266.126 324.756 266.436 324.452 266.711C324.772 265.953 325.249 265.272 325.852 264.714Z" fill="white"/>
<path d="M317.589 268.775C317.211 268.619 316.852 268.419 316.52 268.178C316.183 267.946 315.875 267.674 315.601 267.369C315.978 267.527 316.337 267.728 316.67 267.966C317.007 268.198 317.315 268.47 317.589 268.775Z" fill="white"/>
<path d="M321.204 256.896C321.839 257.773 322.495 258.629 323.146 259.49C322.98 259.054 322.836 258.613 322.712 258.167H322.743C322.872 258.51 323.022 258.847 323.146 259.205L323.331 259.724C323.347 259.759 323.361 259.795 323.373 259.832C323.889 260.502 324.405 261.171 324.881 261.856C325.464 262.675 326.027 263.505 326.595 264.335C327.163 265.165 327.736 266.197 328.351 267.032C328.408 267.105 327.318 267.551 327.199 267.608C327.08 267.665 327.018 267.567 327.132 267.53C327.246 267.494 328.113 266.96 328.124 266.949C327.555 266.109 326.9 265.336 326.306 264.522C325.712 263.707 325.123 262.893 324.55 262.068C323.388 260.388 322.324 258.645 321.168 256.959L321.204 256.896Z" fill="#263238"/>
<path d="M313.344 262.748C313.525 263.1 313.721 263.448 313.861 263.811L314.057 264.262C313.783 262.971 313.541 261.669 313.257 260.377C313.804 262.452 314.357 264.573 314.863 266.68C315.343 268.692 315.926 270.726 316.205 272.78C316.565 272.621 316.938 272.494 317.321 272.401C316.937 272.65 316.524 272.851 316.092 272.998C315.469 270.909 314.952 268.79 314.542 266.648C314.413 266.067 314.295 265.486 314.171 264.905C314.036 264.553 313.876 264.216 313.716 263.868C313.556 263.52 313.412 263.131 313.267 262.763C313.298 262.742 313.334 262.722 313.344 262.748Z" fill="#263238"/>
<path d="M316.5 270.835C318.152 269.901 325.056 266.312 326.6 265.648C326.709 265.601 326.765 265.648 326.657 265.72C323.38 267.633 320.001 269.365 316.536 270.908C316.494 270.918 316.453 270.861 316.5 270.835Z" fill="#263238"/>
<path d="M505.721 407.208H348.387L371.134 277.604H528.468L505.721 407.208Z" fill="#4B9560"/>
<path d="M424.983 264.179H373.494L371.134 277.603H426.243L424.983 264.179Z" fill="#4B9560"/>
<g opacity="0.1">
<path d="M505.721 407.208H348.387L371.134 277.604H528.468L505.721 407.208Z" fill="black"/>
<path d="M424.983 264.179H373.494L371.134 277.603H426.243L424.983 264.179Z" fill="black"/>
</g>
<path d="M367.937 269.657C367.593 268.172 367.593 266.628 367.937 265.144C368.281 266.628 368.281 268.172 367.937 269.657Z" fill="#263238"/>
<path d="M363.362 270.985C362.836 270.437 362.383 269.823 362.014 269.159C361.627 268.508 361.324 267.811 361.111 267.084C361.638 267.628 362.091 268.241 362.458 268.905C362.845 269.558 363.148 270.256 363.362 270.985Z" fill="#263238"/>
<path d="M360.057 274.434C358.606 273.991 357.276 273.219 356.169 272.178C356.893 272.389 357.587 272.692 358.234 273.08C358.896 273.453 359.508 273.908 360.057 274.434Z" fill="#263238"/>
<path d="M358.9 279.082C357.423 279.428 355.885 279.428 354.408 279.082C355.885 278.736 357.423 278.736 358.9 279.082Z" fill="#263238"/>
<path d="M360.243 283.678C359.696 284.203 359.085 284.658 358.425 285.032C357.778 285.42 357.084 285.723 356.36 285.934C356.905 285.406 357.516 284.951 358.178 284.58C358.824 284.191 359.518 283.887 360.243 283.678Z" fill="#263238"/>
<path d="M363.672 286.992C363.232 288.452 362.464 289.79 361.426 290.903C361.636 290.175 361.94 289.478 362.329 288.828C362.697 288.162 363.148 287.545 363.672 286.992Z" fill="#263238"/>
<path d="M368.299 288.139C368.479 288.877 368.565 289.635 368.557 290.395C368.568 291.155 368.481 291.914 368.299 292.652C368.114 291.914 368.027 291.155 368.04 290.395C368.032 289.635 368.119 288.877 368.299 288.139Z" fill="#263238"/>
<path d="M372.874 286.837C373.4 287.384 373.853 287.998 374.222 288.662C374.61 289.312 374.912 290.009 375.12 290.737C374.082 289.624 373.314 288.286 372.874 286.826V286.837Z" fill="#263238"/>
<path d="M376.174 283.361C376.898 283.571 377.593 283.874 378.239 284.264C378.901 284.635 379.512 285.09 380.057 285.618C379.332 285.408 378.638 285.105 377.991 284.715C377.33 284.345 376.719 283.89 376.174 283.361Z" fill="#263238"/>
<path d="M377.315 278.713C378.794 278.368 380.333 278.368 381.813 278.713C380.333 279.059 378.794 279.059 377.315 278.713Z" fill="#263238"/>
<path d="M375.993 274.118C376.54 273.593 377.15 273.14 377.811 272.769C378.456 272.376 379.151 272.07 379.876 271.861C378.768 272.904 377.436 273.676 375.983 274.118H375.993Z" fill="#263238"/>
<path d="M372.559 270.803C372.771 270.077 373.073 269.38 373.457 268.728C373.826 268.064 374.279 267.45 374.805 266.902C374.597 267.63 374.295 268.328 373.907 268.977C373.538 269.642 373.085 270.255 372.559 270.803Z" fill="#263238"/>
<path d="M505.488 407.208H347.814L325.428 282.309H483.103L505.488 407.208Z" fill="#4B9560"/>
<path d="M380.067 358.657C383.686 358.657 386.62 355.709 386.62 352.074C386.62 348.438 383.686 345.491 380.067 345.491C376.448 345.491 373.514 348.438 373.514 352.074C373.514 355.709 376.448 358.657 380.067 358.657Z" fill="white"/>
<path d="M431.871 358.657C435.49 358.657 438.424 355.709 438.424 352.074C438.424 348.438 435.49 345.491 431.871 345.491C428.252 345.491 425.318 348.438 425.318 352.074C425.318 355.709 428.252 358.657 431.871 358.657Z" fill="white"/>
<path d="M415.383 359.712L415.022 359.022C414.991 358.959 411.603 352.672 404.792 352.672C398.595 352.672 397.046 358.591 397.005 358.845L396.819 359.597L395.316 359.234L395.497 358.477C395.497 358.404 397.346 351.116 404.792 351.116C412.538 351.116 416.24 358.005 416.395 358.301L416.757 358.985L415.383 359.712Z" fill="white"/>
<path d="M495.026 351.32C495.362 351.248 495.697 351.17 496.028 351.087" stroke="#263238" stroke-miterlimit="10"/>
<path d="M498.011 350.496C505.912 347.814 512.527 341.574 513.146 334.28C514.52 318.2 495.026 309.319 497.04 290.738C498.961 273.013 517.469 271.747 524.889 274.196C533.084 276.904 530.275 284.814 522.855 283.792C509.991 282.023 501.905 267.976 508.013 252.041C512.578 240.136 523.96 235.644 528.581 234.274" stroke="#263238" stroke-miterlimit="10" stroke-dasharray="4 4"/>
<path d="M529.578 234C530.213 233.834 530.58 233.767 530.58 233.767" stroke="#263238" stroke-miterlimit="10"/>
<path d="M538.77 230.897C537.453 226.799 528.633 228.273 530.353 233.631C532.072 238.99 540.086 235.001 538.77 230.897Z" fill="#263238"/>
<path d="M525.555 229.259C525.622 227.459 528.111 226.074 531.633 226.712C535.155 227.35 538.465 229.736 538.465 229.736C538.465 229.736 534.99 231.852 531.432 232.241C527.874 232.63 525.488 231.053 525.555 229.259Z" fill="#EBEBEB"/>
<path d="M538.465 229.726C536.637 229.726 534.814 229.674 532.991 229.617C531.168 229.56 529.34 229.467 527.517 229.321C529.345 229.321 531.173 229.368 532.996 229.425C534.819 229.482 536.647 229.575 538.465 229.726Z" fill="#263238"/>
<path d="M529.093 227.655C530.13 228.154 531.109 228.768 532.01 229.486C531.491 229.242 530.987 228.964 530.502 228.656C530.013 228.351 529.543 228.016 529.093 227.655Z" fill="#263238"/>
<path d="M533.879 229.555C532.945 230.315 531.932 230.973 530.858 231.515C531.797 230.754 532.815 230.097 533.895 229.555H533.879Z" fill="#263238"/>
<path d="M534.411 228.543C534.932 228.794 535.388 229.164 535.743 229.622C535.483 229.498 535.238 229.343 535.015 229.16C534.791 228.978 534.588 228.771 534.411 228.543Z" fill="#263238"/>
<path d="M528.912 239.918C530.012 241.339 532.836 240.997 535.32 238.414C537.804 235.831 539.121 231.945 539.121 231.945C539.121 231.945 535.052 232.257 531.948 234.02C528.845 235.784 527.807 238.492 528.912 239.918Z" fill="#EBEBEB"/>
<path d="M539.121 231.945C537.633 232.983 536.188 234.134 534.737 235.25C533.285 236.365 531.865 237.516 530.476 238.704C531.964 237.667 533.409 236.521 534.855 235.405C536.301 234.29 537.711 233.138 539.121 231.945Z" fill="#263238"/>
<path d="M532.707 239.114C532.983 238.61 533.23 238.091 533.446 237.558C533.665 237.024 533.852 236.476 534.003 235.919C533.727 236.422 533.48 236.942 533.265 237.475C533.047 238.01 532.861 238.557 532.707 239.114Z" fill="#263238"/>
<path d="M535.506 234.777C534.298 234.712 533.086 234.777 531.891 234.969C532.493 235.006 533.097 235.006 533.699 234.969C534.304 234.94 534.908 234.876 535.506 234.777Z" fill="#263238"/>
<path d="M536.503 235.291C536.641 235.035 536.748 234.763 536.823 234.482C536.899 234.203 536.944 233.915 536.957 233.626C536.683 234.139 536.527 234.709 536.503 235.291Z" fill="#263238"/>
<path d="M538.77 230.898C538.478 230.993 538.165 230.999 537.87 230.915C537.575 230.831 537.311 230.661 537.112 230.427C536.913 230.193 536.788 229.904 536.752 229.598C536.717 229.292 536.772 228.983 536.912 228.708C537.052 228.434 537.269 228.208 537.537 228.058C537.805 227.908 538.111 227.841 538.417 227.866C538.723 227.891 539.014 228.007 539.254 228.199C539.494 228.39 539.673 228.649 539.766 228.942C539.891 229.334 539.857 229.76 539.67 230.127C539.483 230.493 539.159 230.77 538.77 230.898Z" fill="#455A64"/>
<path d="M539.72 233.86C539.428 233.955 539.115 233.961 538.821 233.877C538.526 233.793 538.262 233.623 538.064 233.389C537.865 233.155 537.74 232.867 537.704 232.561C537.668 232.255 537.724 231.946 537.863 231.672C538.002 231.398 538.219 231.171 538.487 231.021C538.754 230.871 539.06 230.804 539.365 230.828C539.671 230.852 539.962 230.967 540.203 231.158C540.443 231.349 540.622 231.607 540.716 231.899C540.779 232.094 540.803 232.299 540.787 232.503C540.771 232.706 540.715 232.905 540.623 233.087C540.53 233.269 540.403 233.431 540.248 233.564C540.093 233.696 539.913 233.797 539.72 233.86Z" fill="#455A64"/>
<path d="M370.421 232.537C370.174 234.919 369.272 237.186 367.817 239.084C366.362 240.981 364.41 242.436 362.18 243.284C359.95 244.133 357.529 244.342 355.187 243.888C352.845 243.435 350.675 242.337 348.919 240.717L342.479 241.666L345.702 236.074C344.965 234.255 344.65 232.291 344.782 230.331C344.914 228.371 345.489 226.467 346.463 224.764C347.437 223.061 348.785 221.603 350.404 220.501C352.023 219.399 353.87 218.683 355.806 218.406C357.742 218.129 359.716 218.298 361.576 218.902C363.437 219.506 365.137 220.528 366.545 221.89C367.954 223.252 369.036 224.919 369.707 226.764C370.379 228.608 370.623 230.583 370.421 232.537Z" fill="white"/>
<path d="M370.421 232.537C370.179 234.918 369.285 237.186 367.839 239.088C367.133 240.051 366.281 240.896 365.314 241.594C364.369 242.318 363.325 242.903 362.216 243.332C361.105 243.771 359.939 244.05 358.751 244.162C358.157 244.215 357.56 244.227 356.964 244.198C356.366 244.182 355.771 244.12 355.182 244.011C352.809 243.573 350.605 242.479 348.815 240.852L348.965 240.899L342.536 241.89L342.066 241.962L342.304 241.547L345.505 235.945V236.168C344.75 234.315 344.429 232.312 344.567 230.314C344.704 228.317 345.298 226.378 346.301 224.647C347.302 222.922 348.679 221.446 350.328 220.331C351.975 219.231 353.848 218.519 355.808 218.25C357.767 217.98 359.762 218.16 361.643 218.775C363.503 219.411 365.199 220.457 366.605 221.836C368.008 223.211 369.081 224.89 369.743 226.744C370.404 228.598 370.636 230.579 370.421 232.537ZM370.421 232.537C370.63 230.589 370.39 228.619 369.72 226.778C369.051 224.938 367.969 223.277 366.558 221.924C365.148 220.57 363.447 219.56 361.587 218.972C359.726 218.384 357.756 218.233 355.828 218.531C353.92 218.815 352.102 219.536 350.514 220.637C348.941 221.748 347.626 223.188 346.662 224.86C345.713 226.535 345.153 228.404 345.025 230.327C344.899 232.263 345.21 234.203 345.934 236.002L345.98 236.116L345.918 236.225L342.675 241.807L342.448 241.464L348.893 240.556H348.981L349.043 240.614C350.765 242.224 352.9 243.322 355.208 243.783C355.783 243.901 356.367 243.972 356.954 243.996C357.54 244.037 358.128 244.037 358.715 243.996C359.89 243.9 361.047 243.644 362.154 243.233C363.263 242.828 364.306 242.261 365.252 241.552C366.215 240.86 367.068 240.026 367.782 239.078C369.247 237.185 370.161 234.92 370.421 232.537Z" fill="#263238"/>
<path d="M351.33 237.221C351.32 237.049 351.346 236.877 351.405 236.715C351.464 236.554 351.555 236.406 351.673 236.282C351.791 236.157 351.934 236.058 352.091 235.992C352.249 235.925 352.419 235.891 352.59 235.893C352.941 235.893 353.277 236.033 353.525 236.282C353.773 236.531 353.912 236.868 353.912 237.221C353.912 237.573 353.773 237.911 353.525 238.16C353.277 238.409 352.941 238.549 352.59 238.549C352.419 238.55 352.249 238.517 352.091 238.45C351.934 238.383 351.791 238.284 351.673 238.159C351.555 238.035 351.464 237.887 351.405 237.726C351.346 237.564 351.32 237.392 351.33 237.221ZM351.847 234.155L351.547 223.863H353.613L353.313 234.155H351.847Z" fill="#4B9560"/>
<path d="M356.241 237.221C356.231 237.049 356.256 236.878 356.315 236.717C356.374 236.555 356.465 236.408 356.582 236.284C356.7 236.159 356.842 236.06 356.999 235.993C357.156 235.926 357.325 235.892 357.496 235.893C357.847 235.893 358.183 236.033 358.431 236.282C358.679 236.531 358.818 236.868 358.818 237.221C358.818 237.573 358.679 237.911 358.431 238.16C358.183 238.409 357.847 238.549 357.496 238.549C357.325 238.55 357.156 238.515 356.999 238.448C356.842 238.381 356.7 238.282 356.582 238.157C356.465 238.033 356.374 237.886 356.315 237.725C356.256 237.563 356.231 237.392 356.241 237.221ZM356.757 234.155L356.473 223.863H358.539L358.24 234.155H356.757Z" fill="#4B9560"/>
<path d="M361.147 237.221C361.137 237.049 361.162 236.877 361.221 236.715C361.28 236.554 361.372 236.406 361.49 236.282C361.608 236.157 361.75 236.058 361.908 235.992C362.066 235.925 362.236 235.891 362.407 235.893C362.757 235.893 363.094 236.033 363.342 236.282C363.59 236.531 363.729 236.868 363.729 237.221C363.729 237.573 363.59 237.911 363.342 238.16C363.094 238.409 362.757 238.549 362.407 238.549C362.236 238.55 362.066 238.517 361.908 238.45C361.75 238.383 361.608 238.284 361.49 238.159C361.372 238.035 361.28 237.887 361.221 237.726C361.162 237.564 361.137 237.392 361.147 237.221ZM361.663 234.155L361.364 223.863H363.429L363.135 234.155H361.663Z" fill="#4B9560"/>
</g>
<path d="M295.616 487.545V505H292.429L284.835 494.014H284.707V505H281.017V487.545H284.256L291.79 498.523H291.943V487.545H295.616ZM304.512 505.256C303.188 505.256 302.043 504.974 301.077 504.412C300.117 503.844 299.376 503.054 298.853 502.043C298.33 501.026 298.069 499.847 298.069 498.506C298.069 497.153 298.33 495.972 298.853 494.96C299.376 493.943 300.117 493.153 301.077 492.591C302.043 492.023 303.188 491.739 304.512 491.739C305.836 491.739 306.978 492.023 307.938 492.591C308.904 493.153 309.648 493.943 310.171 494.96C310.694 495.972 310.955 497.153 310.955 498.506C310.955 499.847 310.694 501.026 310.171 502.043C309.648 503.054 308.904 503.844 307.938 504.412C306.978 504.974 305.836 505.256 304.512 505.256ZM304.529 502.443C305.131 502.443 305.634 502.273 306.038 501.932C306.441 501.585 306.745 501.114 306.95 500.517C307.16 499.92 307.265 499.241 307.265 498.48C307.265 497.719 307.16 497.04 306.95 496.443C306.745 495.847 306.441 495.375 306.038 495.028C305.634 494.682 305.131 494.509 304.529 494.509C303.921 494.509 303.41 494.682 302.995 495.028C302.586 495.375 302.276 495.847 302.066 496.443C301.862 497.04 301.759 497.719 301.759 498.48C301.759 499.241 301.862 499.92 302.066 500.517C302.276 501.114 302.586 501.585 302.995 501.932C303.41 502.273 303.921 502.443 304.529 502.443ZM333.538 487.545V505H330.351L322.757 494.014H322.629V505H318.939V487.545H322.178L329.712 498.523H329.865V487.545H333.538ZM342.485 505.256C341.138 505.256 339.979 504.983 339.008 504.438C338.042 503.886 337.298 503.108 336.775 502.102C336.252 501.091 335.991 499.895 335.991 498.514C335.991 497.168 336.252 495.986 336.775 494.969C337.298 493.952 338.033 493.159 338.982 492.591C339.937 492.023 341.056 491.739 342.34 491.739C343.204 491.739 344.008 491.878 344.752 492.156C345.502 492.429 346.156 492.841 346.712 493.392C347.275 493.943 347.712 494.636 348.025 495.472C348.337 496.301 348.494 497.273 348.494 498.386V499.384H337.44V497.134H345.076C345.076 496.611 344.962 496.148 344.735 495.744C344.508 495.341 344.192 495.026 343.789 494.798C343.391 494.565 342.928 494.449 342.4 494.449C341.849 494.449 341.36 494.577 340.934 494.832C340.513 495.082 340.184 495.42 339.945 495.847C339.707 496.267 339.585 496.736 339.579 497.253V499.392C339.579 500.04 339.698 500.599 339.937 501.071C340.181 501.543 340.525 501.906 340.968 502.162C341.411 502.418 341.937 502.545 342.545 502.545C342.948 502.545 343.317 502.489 343.653 502.375C343.988 502.261 344.275 502.091 344.513 501.864C344.752 501.636 344.934 501.358 345.059 501.028L348.417 501.25C348.246 502.057 347.897 502.761 347.369 503.364C346.846 503.96 346.17 504.426 345.34 504.761C344.516 505.091 343.565 505.256 342.485 505.256ZM353.352 505L349.789 491.909H353.462L355.491 500.705H355.61L357.724 491.909H361.329L363.477 500.653H363.587L365.582 491.909H369.246L365.692 505H361.849L359.599 496.767H359.437L357.187 505H353.352ZM376.806 505V487.545H380.496V494.747H387.988V487.545H391.67V505H387.988V497.79H380.496V505H376.806ZM394.644 505V491.909H398.275V505H394.644ZM396.468 490.222C395.928 490.222 395.465 490.043 395.079 489.685C394.698 489.321 394.508 488.886 394.508 488.381C394.508 487.881 394.698 487.452 395.079 487.094C395.465 486.73 395.928 486.548 396.468 486.548C397.008 486.548 397.468 486.73 397.849 487.094C398.235 487.452 398.428 487.881 398.428 488.381C398.428 488.886 398.235 489.321 397.849 489.685C397.468 490.043 397.008 490.222 396.468 490.222ZM401.183 505V491.909H404.703V494.193H404.839C405.078 493.381 405.479 492.767 406.041 492.352C406.604 491.932 407.251 491.722 407.984 491.722C408.166 491.722 408.362 491.733 408.572 491.756C408.783 491.778 408.967 491.81 409.126 491.849V495.071C408.956 495.02 408.72 494.974 408.419 494.935C408.118 494.895 407.842 494.875 407.592 494.875C407.058 494.875 406.581 494.991 406.161 495.224C405.746 495.452 405.416 495.77 405.172 496.179C404.933 496.588 404.814 497.06 404.814 497.594V505H401.183ZM416.36 505.256C415.013 505.256 413.854 504.983 412.883 504.438C411.917 503.886 411.173 503.108 410.65 502.102C410.127 501.091 409.866 499.895 409.866 498.514C409.866 497.168 410.127 495.986 410.65 494.969C411.173 493.952 411.908 493.159 412.857 492.591C413.812 492.023 414.931 491.739 416.215 491.739C417.079 491.739 417.883 491.878 418.627 492.156C419.377 492.429 420.031 492.841 420.587 493.392C421.15 493.943 421.587 494.636 421.9 495.472C422.212 496.301 422.369 497.273 422.369 498.386V499.384H411.315V497.134H418.951C418.951 496.611 418.837 496.148 418.61 495.744C418.383 495.341 418.067 495.026 417.664 494.798C417.266 494.565 416.803 494.449 416.275 494.449C415.724 494.449 415.235 494.577 414.809 494.832C414.388 495.082 414.059 495.42 413.82 495.847C413.582 496.267 413.46 496.736 413.454 497.253V499.392C413.454 500.04 413.573 500.599 413.812 501.071C414.056 501.543 414.4 501.906 414.843 502.162C415.286 502.418 415.812 502.545 416.42 502.545C416.823 502.545 417.192 502.489 417.528 502.375C417.863 502.261 418.15 502.091 418.388 501.864C418.627 501.636 418.809 501.358 418.934 501.028L422.292 501.25C422.121 502.057 421.772 502.761 421.244 503.364C420.721 503.96 420.045 504.426 419.215 504.761C418.391 505.091 417.44 505.256 416.36 505.256ZM430.361 505V487.545H437.247C438.571 487.545 439.699 487.798 440.631 488.304C441.563 488.804 442.273 489.5 442.761 490.392C443.256 491.278 443.503 492.301 443.503 493.46C443.503 494.619 443.253 495.642 442.753 496.528C442.253 497.415 441.528 498.105 440.58 498.599C439.636 499.094 438.494 499.341 437.153 499.341H432.764V496.384H436.557C437.267 496.384 437.852 496.261 438.312 496.017C438.778 495.767 439.125 495.423 439.352 494.986C439.585 494.543 439.702 494.034 439.702 493.46C439.702 492.881 439.585 492.375 439.352 491.943C439.125 491.506 438.778 491.168 438.312 490.929C437.847 490.685 437.256 490.562 436.54 490.562H434.051V505H430.361ZM445.832 505V491.909H449.352V494.193H449.488C449.727 493.381 450.127 492.767 450.69 492.352C451.252 491.932 451.9 491.722 452.633 491.722C452.815 491.722 453.011 491.733 453.221 491.756C453.431 491.778 453.616 491.81 453.775 491.849V495.071C453.604 495.02 453.369 494.974 453.067 494.935C452.766 494.895 452.491 494.875 452.241 494.875C451.707 494.875 451.229 494.991 450.809 495.224C450.394 495.452 450.065 495.77 449.82 496.179C449.582 496.588 449.462 497.06 449.462 497.594V505H445.832ZM460.957 505.256C459.634 505.256 458.489 504.974 457.523 504.412C456.563 503.844 455.821 503.054 455.298 502.043C454.776 501.026 454.514 499.847 454.514 498.506C454.514 497.153 454.776 495.972 455.298 494.96C455.821 493.943 456.563 493.153 457.523 492.591C458.489 492.023 459.634 491.739 460.957 491.739C462.281 491.739 463.423 492.023 464.384 492.591C465.349 493.153 466.094 493.943 466.616 494.96C467.139 495.972 467.401 497.153 467.401 498.506C467.401 499.847 467.139 501.026 466.616 502.043C466.094 503.054 465.349 503.844 464.384 504.412C463.423 504.974 462.281 505.256 460.957 505.256ZM460.974 502.443C461.577 502.443 462.08 502.273 462.483 501.932C462.886 501.585 463.19 501.114 463.395 500.517C463.605 499.92 463.71 499.241 463.71 498.48C463.71 497.719 463.605 497.04 463.395 496.443C463.19 495.847 462.886 495.375 462.483 495.028C462.08 494.682 461.577 494.509 460.974 494.509C460.366 494.509 459.855 494.682 459.44 495.028C459.031 495.375 458.722 495.847 458.511 496.443C458.307 497.04 458.205 497.719 458.205 498.48C458.205 499.241 458.307 499.92 458.511 500.517C458.722 501.114 459.031 501.585 459.44 501.932C459.855 502.273 460.366 502.443 460.974 502.443ZM476.801 491.909V494.636H468.722V491.909H476.801ZM470.571 505V490.963C470.571 490.014 470.756 489.227 471.125 488.602C471.5 487.977 472.011 487.509 472.659 487.196C473.307 486.884 474.043 486.727 474.866 486.727C475.423 486.727 475.932 486.77 476.392 486.855C476.858 486.94 477.205 487.017 477.432 487.085L476.784 489.812C476.642 489.767 476.466 489.724 476.256 489.685C476.051 489.645 475.841 489.625 475.625 489.625C475.091 489.625 474.719 489.75 474.509 490C474.298 490.244 474.193 490.588 474.193 491.031V505H470.571ZM479.019 505V491.909H482.65V505H479.019ZM480.843 490.222C480.303 490.222 479.84 490.043 479.454 489.685C479.073 489.321 478.883 488.886 478.883 488.381C478.883 487.881 479.073 487.452 479.454 487.094C479.84 486.73 480.303 486.548 480.843 486.548C481.383 486.548 481.843 486.73 482.224 487.094C482.61 487.452 482.803 487.881 482.803 488.381C482.803 488.886 482.61 489.321 482.224 489.685C481.843 490.043 481.383 490.222 480.843 490.222ZM489.189 487.545V505H485.558V487.545H489.189ZM498.063 505.256C496.717 505.256 495.558 504.983 494.586 504.438C493.62 503.886 492.876 503.108 492.353 502.102C491.83 501.091 491.569 499.895 491.569 498.514C491.569 497.168 491.83 495.986 492.353 494.969C492.876 493.952 493.612 493.159 494.56 492.591C495.515 492.023 496.634 491.739 497.918 491.739C498.782 491.739 499.586 491.878 500.33 492.156C501.08 492.429 501.734 492.841 502.29 493.392C502.853 493.943 503.29 494.636 503.603 495.472C503.915 496.301 504.072 497.273 504.072 498.386V499.384H493.018V497.134H500.654C500.654 496.611 500.54 496.148 500.313 495.744C500.086 495.341 499.771 495.026 499.367 494.798C498.969 494.565 498.506 494.449 497.978 494.449C497.427 494.449 496.938 494.577 496.512 494.832C496.092 495.082 495.762 495.42 495.523 495.847C495.285 496.267 495.163 496.736 495.157 497.253V499.392C495.157 500.04 495.276 500.599 495.515 501.071C495.759 501.543 496.103 501.906 496.546 502.162C496.989 502.418 497.515 502.545 498.123 502.545C498.526 502.545 498.896 502.489 499.231 502.375C499.566 502.261 499.853 502.091 500.092 501.864C500.33 501.636 500.512 501.358 500.637 501.028L503.995 501.25C503.825 502.057 503.475 502.761 502.947 503.364C502.424 503.96 501.748 504.426 500.918 504.761C500.094 505.091 499.143 505.256 498.063 505.256ZM511.265 505.213C510.271 505.213 509.37 504.957 508.563 504.446C507.762 503.929 507.126 503.17 506.654 502.17C506.188 501.165 505.955 499.932 505.955 498.472C505.955 496.972 506.197 495.724 506.68 494.73C507.163 493.73 507.805 492.983 508.606 492.489C509.413 491.989 510.296 491.739 511.256 491.739C511.989 491.739 512.6 491.864 513.089 492.114C513.583 492.358 513.981 492.665 514.282 493.034C514.589 493.398 514.822 493.756 514.981 494.108H515.092V487.545H518.714V505H515.134V502.903H514.981C514.81 503.267 514.569 503.628 514.256 503.986C513.95 504.338 513.549 504.631 513.055 504.864C512.566 505.097 511.969 505.213 511.265 505.213ZM512.415 502.324C513.001 502.324 513.495 502.165 513.898 501.847C514.308 501.523 514.62 501.071 514.836 500.491C515.058 499.912 515.168 499.233 515.168 498.455C515.168 497.676 515.06 497 514.844 496.426C514.629 495.852 514.316 495.409 513.907 495.097C513.498 494.784 513.001 494.628 512.415 494.628C511.819 494.628 511.316 494.79 510.907 495.114C510.498 495.437 510.188 495.886 509.978 496.46C509.768 497.034 509.663 497.699 509.663 498.455C509.663 499.216 509.768 499.889 509.978 500.474C510.194 501.054 510.504 501.509 510.907 501.838C511.316 502.162 511.819 502.324 512.415 502.324Z" fill="#343A40"/>
<rect x="237" y="544" width="326" height="48" rx="7" fill="#4B9560"/>
<path d="M348.41 573L353.434 561.72H354.81L359.85 573H358.154L356.97 570.248H351.258L350.09 573H348.41ZM354.106 563.56L351.85 568.904H356.41L354.138 563.56H354.106ZM364.049 573.144C363.367 573.144 362.764 572.984 362.242 572.664C361.73 572.333 361.33 571.864 361.042 571.256C360.754 570.648 360.61 569.928 360.61 569.096C360.61 568.264 360.754 567.549 361.042 566.952C361.33 566.344 361.73 565.875 362.242 565.544C362.754 565.213 363.356 565.048 364.049 565.048C364.636 565.048 365.159 565.176 365.618 565.432C366.076 565.688 366.418 566.035 366.642 566.472V561.72H368.258V573H366.674V571.64C366.45 572.109 366.103 572.477 365.634 572.744C365.175 573.011 364.647 573.144 364.049 573.144ZM364.466 571.896C365.127 571.896 365.66 571.656 366.066 571.176C366.471 570.696 366.674 570.003 366.674 569.096C366.674 568.189 366.471 567.501 366.066 567.032C365.66 566.552 365.127 566.312 364.466 566.312C363.794 566.312 363.255 566.552 362.85 567.032C362.444 567.501 362.242 568.189 362.242 569.096C362.242 570.003 362.444 570.696 362.85 571.176C363.255 571.656 363.794 571.896 364.466 571.896ZM373.503 573.144C372.82 573.144 372.217 572.984 371.695 572.664C371.183 572.333 370.783 571.864 370.495 571.256C370.207 570.648 370.063 569.928 370.063 569.096C370.063 568.264 370.207 567.549 370.495 566.952C370.783 566.344 371.183 565.875 371.695 565.544C372.207 565.213 372.809 565.048 373.503 565.048C374.089 565.048 374.612 565.176 375.071 565.432C375.529 565.688 375.871 566.035 376.095 566.472V561.72H377.711V573H376.127V571.64C375.903 572.109 375.556 572.477 375.087 572.744C374.628 573.011 374.1 573.144 373.503 573.144ZM373.919 571.896C374.58 571.896 375.113 571.656 375.519 571.176C375.924 570.696 376.127 570.003 376.127 569.096C376.127 568.189 375.924 567.501 375.519 567.032C375.113 566.552 374.58 566.312 373.919 566.312C373.247 566.312 372.708 566.552 372.303 567.032C371.897 567.501 371.695 568.189 371.695 569.096C371.695 570.003 371.897 570.696 372.303 571.176C372.708 571.656 373.247 571.896 373.919 571.896ZM384.359 573V561.72H385.623L392.087 570.248V561.72H393.623V573H392.391L385.895 564.44V573H384.359ZM399.738 573.144C398.458 573.144 397.45 572.787 396.714 572.072C395.978 571.347 395.61 570.36 395.61 569.112C395.61 568.312 395.77 567.608 396.09 567C396.42 566.381 396.874 565.901 397.45 565.56C398.026 565.219 398.687 565.048 399.434 565.048C400.511 565.048 401.359 565.395 401.978 566.088C402.596 566.771 402.906 567.715 402.906 568.92V569.464H397.178C397.295 571.085 398.154 571.896 399.754 571.896C400.202 571.896 400.639 571.827 401.066 571.688C401.503 571.549 401.914 571.32 402.298 571L402.778 572.12C402.426 572.44 401.972 572.691 401.418 572.872C400.863 573.053 400.303 573.144 399.738 573.144ZM399.498 566.184C398.826 566.184 398.292 566.392 397.898 566.808C397.503 567.224 397.263 567.779 397.178 568.472H401.546C401.514 567.747 401.322 567.187 400.97 566.792C400.618 566.387 400.127 566.184 399.498 566.184ZM406.67 573L403.694 565.192H405.358L407.454 571.112L409.614 565.192H410.862L412.99 571.144L415.118 565.192H416.702L413.726 573H412.254L410.19 567.416L408.142 573H406.67ZM422.468 573V561.72H424.132V566.584H430.452V561.72H432.1V573H430.452V567.976H424.132V573H422.468ZM434.414 563.384V561.704H436.302V563.384H434.414ZM434.558 573V565.192H436.174V573H434.558ZM438.449 573V565.192H440.017V566.584C440.422 565.656 441.265 565.139 442.545 565.032L443.073 565L443.185 566.376L442.209 566.472C440.79 566.611 440.081 567.341 440.081 568.664V573H438.449ZM447.972 573.144C446.692 573.144 445.684 572.787 444.948 572.072C444.212 571.347 443.844 570.36 443.844 569.112C443.844 568.312 444.004 567.608 444.324 567C444.655 566.381 445.108 565.901 445.684 565.56C446.26 565.219 446.921 565.048 447.668 565.048C448.745 565.048 449.593 565.395 450.212 566.088C450.831 566.771 451.14 567.715 451.14 568.92V569.464H445.412C445.529 571.085 446.388 571.896 447.988 571.896C448.436 571.896 448.873 571.827 449.3 571.688C449.737 571.549 450.148 571.32 450.532 571L451.012 572.12C450.66 572.44 450.207 572.691 449.652 572.872C449.097 573.053 448.537 573.144 447.972 573.144ZM447.732 566.184C447.06 566.184 446.527 566.392 446.132 566.808C445.737 567.224 445.497 567.779 445.412 568.472H449.78C449.748 567.747 449.556 567.187 449.204 566.792C448.852 566.387 448.361 566.184 447.732 566.184Z" fill="white"/>
<defs>
<clipPath id="clip0_275_6378">
<rect width="316" height="208" fill="white" transform="translate(242 212)"/>
</clipPath>
</defs>
</svg>
