<svg width="800" height="616" viewBox="0 0 800 616" fill="none" xmlns="http://www.w3.org/2000/svg">
<rect x="0.5" y="0.5" width="799" height="615" rx="19.5" fill="white"/>
<rect x="0.5" y="0.5" width="799" height="615" rx="19.5" stroke="#B9DCD2"/>
<path d="M206.472 128.364C206.472 130.902 205.991 133.061 205.028 134.841C204.074 136.621 202.771 137.981 201.119 138.92C199.475 139.852 197.627 140.318 195.574 140.318C193.506 140.318 191.65 139.848 190.006 138.909C188.362 137.97 187.063 136.61 186.108 134.83C185.153 133.049 184.676 130.894 184.676 128.364C184.676 125.826 185.153 123.667 186.108 121.886C187.063 120.106 188.362 118.75 190.006 117.818C191.65 116.879 193.506 116.409 195.574 116.409C197.627 116.409 199.475 116.879 201.119 117.818C202.771 118.75 204.074 120.106 205.028 121.886C205.991 123.667 206.472 125.826 206.472 128.364ZM201.483 128.364C201.483 126.72 201.237 125.333 200.744 124.205C200.259 123.076 199.574 122.22 198.688 121.636C197.801 121.053 196.763 120.761 195.574 120.761C194.384 120.761 193.347 121.053 192.46 121.636C191.574 122.22 190.884 123.076 190.392 124.205C189.907 125.333 189.665 126.72 189.665 128.364C189.665 130.008 189.907 131.394 190.392 132.523C190.884 133.652 191.574 134.508 192.46 135.091C193.347 135.674 194.384 135.966 195.574 135.966C196.763 135.966 197.801 135.674 198.688 135.091C199.574 134.508 200.259 133.652 200.744 132.523C201.237 131.394 201.483 130.008 201.483 128.364ZM214.866 129.909V140H210.026V122.545H214.639V125.625H214.844C215.23 124.61 215.878 123.807 216.787 123.216C217.696 122.617 218.798 122.318 220.094 122.318C221.306 122.318 222.363 122.583 223.264 123.114C224.166 123.644 224.866 124.402 225.366 125.386C225.866 126.364 226.116 127.53 226.116 128.886V140H221.276V129.75C221.283 128.682 221.01 127.848 220.457 127.25C219.904 126.644 219.143 126.341 218.173 126.341C217.522 126.341 216.946 126.481 216.446 126.761C215.954 127.042 215.567 127.451 215.287 127.989C215.014 128.519 214.874 129.159 214.866 129.909ZM230.023 140V116.727H234.864V125.477H235.011C235.223 125.008 235.53 124.53 235.932 124.045C236.341 123.553 236.871 123.144 237.523 122.818C238.182 122.485 239 122.318 239.977 122.318C241.25 122.318 242.424 122.652 243.5 123.318C244.576 123.977 245.436 124.973 246.08 126.307C246.723 127.633 247.045 129.295 247.045 131.295C247.045 133.242 246.731 134.886 246.102 136.227C245.481 137.561 244.633 138.572 243.557 139.261C242.489 139.943 241.292 140.284 239.966 140.284C239.027 140.284 238.227 140.129 237.568 139.818C236.917 139.508 236.383 139.117 235.966 138.648C235.549 138.17 235.231 137.689 235.011 137.205H234.795V140H230.023ZM234.761 131.273C234.761 132.311 234.905 133.216 235.193 133.989C235.481 134.761 235.898 135.364 236.443 135.795C236.989 136.22 237.652 136.432 238.432 136.432C239.22 136.432 239.886 136.216 240.432 135.784C240.977 135.345 241.39 134.739 241.67 133.966C241.958 133.186 242.102 132.288 242.102 131.273C242.102 130.265 241.962 129.379 241.682 128.614C241.402 127.848 240.989 127.25 240.443 126.818C239.898 126.386 239.227 126.17 238.432 126.17C237.644 126.17 236.977 126.379 236.432 126.795C235.894 127.212 235.481 127.803 235.193 128.568C234.905 129.333 234.761 130.235 234.761 131.273ZM258.162 140.341C256.397 140.341 254.87 139.966 253.582 139.216C252.302 138.458 251.313 137.405 250.616 136.057C249.92 134.701 249.571 133.129 249.571 131.341C249.571 129.538 249.92 127.962 250.616 126.614C251.313 125.258 252.302 124.205 253.582 123.455C254.87 122.697 256.397 122.318 258.162 122.318C259.927 122.318 261.45 122.697 262.73 123.455C264.018 124.205 265.01 125.258 265.707 126.614C266.404 127.962 266.753 129.538 266.753 131.341C266.753 133.129 266.404 134.701 265.707 136.057C265.01 137.405 264.018 138.458 262.73 139.216C261.45 139.966 259.927 140.341 258.162 140.341ZM258.185 136.591C258.988 136.591 259.658 136.364 260.196 135.909C260.734 135.447 261.139 134.818 261.412 134.023C261.692 133.227 261.832 132.322 261.832 131.307C261.832 130.292 261.692 129.386 261.412 128.591C261.139 127.795 260.734 127.167 260.196 126.705C259.658 126.242 258.988 126.011 258.185 126.011C257.374 126.011 256.692 126.242 256.139 126.705C255.594 127.167 255.181 127.795 254.901 128.591C254.628 129.386 254.491 130.292 254.491 131.307C254.491 132.322 254.628 133.227 254.901 134.023C255.181 134.818 255.594 135.447 256.139 135.909C256.692 136.364 257.374 136.591 258.185 136.591ZM274.878 140.33C273.764 140.33 272.772 140.136 271.901 139.75C271.029 139.356 270.34 138.777 269.832 138.011C269.332 137.239 269.082 136.277 269.082 135.125C269.082 134.155 269.26 133.341 269.616 132.682C269.973 132.023 270.457 131.492 271.071 131.091C271.685 130.689 272.382 130.386 273.162 130.182C273.95 129.977 274.776 129.833 275.639 129.75C276.654 129.644 277.473 129.545 278.094 129.455C278.715 129.356 279.166 129.212 279.446 129.023C279.726 128.833 279.866 128.553 279.866 128.182V128.114C279.866 127.394 279.639 126.837 279.185 126.443C278.738 126.049 278.101 125.852 277.276 125.852C276.404 125.852 275.711 126.045 275.196 126.432C274.681 126.811 274.34 127.288 274.173 127.864L269.696 127.5C269.923 126.439 270.37 125.523 271.037 124.75C271.704 123.97 272.563 123.371 273.616 122.955C274.677 122.53 275.904 122.318 277.298 122.318C278.268 122.318 279.196 122.432 280.082 122.659C280.976 122.886 281.768 123.239 282.457 123.716C283.154 124.193 283.704 124.807 284.105 125.557C284.507 126.299 284.707 127.189 284.707 128.227V140H280.116V137.58H279.98C279.7 138.125 279.325 138.606 278.855 139.023C278.385 139.432 277.821 139.754 277.162 139.989C276.503 140.216 275.741 140.33 274.878 140.33ZM276.264 136.989C276.976 136.989 277.605 136.848 278.151 136.568C278.696 136.28 279.124 135.894 279.435 135.409C279.745 134.924 279.901 134.375 279.901 133.761V131.909C279.749 132.008 279.541 132.098 279.276 132.182C279.018 132.258 278.726 132.33 278.401 132.398C278.075 132.458 277.749 132.515 277.423 132.568C277.098 132.614 276.802 132.655 276.537 132.693C275.969 132.777 275.473 132.909 275.048 133.091C274.624 133.273 274.295 133.519 274.06 133.83C273.825 134.133 273.707 134.511 273.707 134.966C273.707 135.625 273.946 136.129 274.423 136.477C274.908 136.818 275.522 136.989 276.264 136.989ZM288.463 140V122.545H293.156V125.591H293.338C293.656 124.508 294.19 123.689 294.94 123.136C295.69 122.576 296.554 122.295 297.531 122.295C297.774 122.295 298.035 122.311 298.315 122.341C298.596 122.371 298.842 122.413 299.054 122.466V126.761C298.827 126.693 298.512 126.633 298.111 126.58C297.709 126.527 297.342 126.5 297.009 126.5C296.296 126.5 295.66 126.655 295.099 126.966C294.546 127.269 294.107 127.693 293.781 128.239C293.463 128.784 293.304 129.413 293.304 130.125V140H288.463ZM307.176 140.284C305.85 140.284 304.65 139.943 303.574 139.261C302.506 138.572 301.657 137.561 301.028 136.227C300.407 134.886 300.097 133.242 300.097 131.295C300.097 129.295 300.419 127.633 301.062 126.307C301.706 124.973 302.563 123.977 303.631 123.318C304.706 122.652 305.884 122.318 307.165 122.318C308.142 122.318 308.956 122.485 309.608 122.818C310.267 123.144 310.797 123.553 311.199 124.045C311.608 124.53 311.919 125.008 312.131 125.477H312.278V116.727H317.108V140H312.335V137.205H312.131C311.903 137.689 311.581 138.17 311.165 138.648C310.756 139.117 310.222 139.508 309.562 139.818C308.911 140.129 308.116 140.284 307.176 140.284ZM308.71 136.432C309.491 136.432 310.15 136.22 310.688 135.795C311.233 135.364 311.65 134.761 311.938 133.989C312.233 133.216 312.381 132.311 312.381 131.273C312.381 130.235 312.237 129.333 311.949 128.568C311.661 127.803 311.244 127.212 310.699 126.795C310.153 126.379 309.491 126.17 308.71 126.17C307.915 126.17 307.244 126.386 306.699 126.818C306.153 127.25 305.741 127.848 305.46 128.614C305.18 129.379 305.04 130.265 305.04 131.273C305.04 132.288 305.18 133.186 305.46 133.966C305.748 134.739 306.161 135.345 306.699 135.784C307.244 136.216 307.915 136.432 308.71 136.432ZM321.088 140V122.545H325.929V140H321.088ZM323.52 120.295C322.8 120.295 322.183 120.057 321.668 119.58C321.16 119.095 320.906 118.515 320.906 117.841C320.906 117.174 321.16 116.602 321.668 116.125C322.183 115.64 322.8 115.398 323.52 115.398C324.24 115.398 324.853 115.64 325.361 116.125C325.876 116.602 326.134 117.174 326.134 117.841C326.134 118.515 325.876 119.095 325.361 119.58C324.853 120.057 324.24 120.295 323.52 120.295ZM334.648 129.909V140H329.807V122.545H334.42V125.625H334.625C335.011 124.61 335.659 123.807 336.568 123.216C337.477 122.617 338.58 122.318 339.875 122.318C341.087 122.318 342.144 122.583 343.045 123.114C343.947 123.644 344.648 124.402 345.148 125.386C345.648 126.364 345.898 127.53 345.898 128.886V140H341.057V129.75C341.064 128.682 340.792 127.848 340.239 127.25C339.686 126.644 338.924 126.341 337.955 126.341C337.303 126.341 336.727 126.481 336.227 126.761C335.735 127.042 335.348 127.451 335.068 127.989C334.795 128.519 334.655 129.159 334.648 129.909ZM357.577 146.909C356.009 146.909 354.664 146.693 353.543 146.261C352.429 145.837 351.543 145.258 350.884 144.523C350.224 143.788 349.796 142.962 349.599 142.045L354.077 141.443C354.213 141.792 354.429 142.117 354.724 142.42C355.02 142.723 355.41 142.966 355.895 143.148C356.387 143.337 356.986 143.432 357.69 143.432C358.743 143.432 359.611 143.174 360.293 142.659C360.982 142.152 361.327 141.299 361.327 140.102V136.909H361.122C360.91 137.394 360.592 137.852 360.168 138.284C359.743 138.716 359.198 139.068 358.531 139.341C357.865 139.614 357.069 139.75 356.145 139.75C354.834 139.75 353.641 139.447 352.565 138.841C351.497 138.227 350.645 137.292 350.009 136.034C349.38 134.769 349.065 133.17 349.065 131.239C349.065 129.261 349.387 127.61 350.031 126.284C350.675 124.958 351.531 123.966 352.599 123.307C353.675 122.648 354.853 122.318 356.134 122.318C357.111 122.318 357.929 122.485 358.588 122.818C359.247 123.144 359.777 123.553 360.179 124.045C360.588 124.53 360.902 125.008 361.122 125.477H361.304V122.545H366.111V140.17C366.111 141.655 365.747 142.898 365.02 143.898C364.293 144.898 363.285 145.648 361.997 146.148C360.717 146.655 359.243 146.909 357.577 146.909ZM357.679 136.114C358.459 136.114 359.118 135.92 359.656 135.534C360.202 135.14 360.618 134.58 360.906 133.852C361.202 133.117 361.349 132.239 361.349 131.216C361.349 130.193 361.205 129.307 360.918 128.557C360.63 127.799 360.213 127.212 359.668 126.795C359.122 126.379 358.459 126.17 357.679 126.17C356.884 126.17 356.213 126.386 355.668 126.818C355.122 127.242 354.709 127.833 354.429 128.591C354.149 129.348 354.009 130.223 354.009 131.216C354.009 132.223 354.149 133.095 354.429 133.83C354.717 134.557 355.13 135.121 355.668 135.523C356.213 135.917 356.884 136.114 357.679 136.114ZM385.71 140H377.46V116.727H385.778C388.119 116.727 390.134 117.193 391.824 118.125C393.513 119.049 394.813 120.379 395.722 122.114C396.638 123.848 397.097 125.924 397.097 128.341C397.097 130.765 396.638 132.848 395.722 134.591C394.813 136.333 393.506 137.67 391.801 138.602C390.104 139.534 388.074 140 385.71 140ZM382.381 135.784H385.506C386.96 135.784 388.184 135.527 389.176 135.011C390.176 134.489 390.926 133.682 391.426 132.591C391.934 131.492 392.188 130.076 392.188 128.341C392.188 126.621 391.934 125.216 391.426 124.125C390.926 123.034 390.18 122.231 389.188 121.716C388.195 121.201 386.972 120.943 385.517 120.943H382.381V135.784ZM408.537 140.341C406.772 140.341 405.245 139.966 403.957 139.216C402.677 138.458 401.688 137.405 400.991 136.057C400.295 134.701 399.946 133.129 399.946 131.341C399.946 129.538 400.295 127.962 400.991 126.614C401.688 125.258 402.677 124.205 403.957 123.455C405.245 122.697 406.772 122.318 408.537 122.318C410.302 122.318 411.825 122.697 413.105 123.455C414.393 124.205 415.385 125.258 416.082 126.614C416.779 127.962 417.128 129.538 417.128 131.341C417.128 133.129 416.779 134.701 416.082 136.057C415.385 137.405 414.393 138.458 413.105 139.216C411.825 139.966 410.302 140.341 408.537 140.341ZM408.56 136.591C409.363 136.591 410.033 136.364 410.571 135.909C411.109 135.447 411.514 134.818 411.787 134.023C412.067 133.227 412.207 132.322 412.207 131.307C412.207 130.292 412.067 129.386 411.787 128.591C411.514 127.795 411.109 127.167 410.571 126.705C410.033 126.242 409.363 126.011 408.56 126.011C407.749 126.011 407.067 126.242 406.514 126.705C405.969 127.167 405.556 127.795 405.276 128.591C405.003 129.386 404.866 130.292 404.866 131.307C404.866 132.322 405.003 133.227 405.276 134.023C405.556 134.818 405.969 135.447 406.514 135.909C407.067 136.364 407.749 136.591 408.56 136.591ZM428.162 140.341C426.374 140.341 424.836 139.962 423.548 139.205C422.268 138.439 421.283 137.379 420.594 136.023C419.912 134.667 419.571 133.106 419.571 131.341C419.571 129.553 419.916 127.985 420.605 126.636C421.302 125.28 422.291 124.223 423.571 123.466C424.851 122.701 426.374 122.318 428.139 122.318C429.662 122.318 430.995 122.595 432.139 123.148C433.283 123.701 434.188 124.477 434.855 125.477C435.522 126.477 435.889 127.652 435.957 129H431.389C431.26 128.129 430.92 127.428 430.366 126.898C429.821 126.36 429.105 126.091 428.219 126.091C427.469 126.091 426.813 126.295 426.253 126.705C425.7 127.106 425.268 127.693 424.957 128.466C424.647 129.239 424.491 130.174 424.491 131.273C424.491 132.386 424.643 133.333 424.946 134.114C425.257 134.894 425.692 135.489 426.253 135.898C426.813 136.307 427.469 136.511 428.219 136.511C428.772 136.511 429.268 136.398 429.707 136.17C430.154 135.943 430.522 135.614 430.81 135.182C431.105 134.742 431.298 134.216 431.389 133.602H435.957C435.882 134.936 435.518 136.11 434.866 137.125C434.223 138.133 433.332 138.92 432.196 139.489C431.06 140.057 429.715 140.341 428.162 140.341ZM450.25 132.568V122.545H455.091V140H450.443V136.83H450.261C449.867 137.852 449.212 138.674 448.295 139.295C447.386 139.917 446.277 140.227 444.966 140.227C443.799 140.227 442.773 139.962 441.886 139.432C441 138.902 440.307 138.148 439.807 137.17C439.314 136.193 439.064 135.023 439.057 133.659V122.545H443.898V132.795C443.905 133.826 444.182 134.64 444.727 135.239C445.273 135.837 446.004 136.136 446.92 136.136C447.504 136.136 448.049 136.004 448.557 135.739C449.064 135.466 449.473 135.064 449.784 134.534C450.102 134.004 450.258 133.348 450.25 132.568ZM458.963 140V122.545H463.577V125.625H463.781C464.145 124.602 464.751 123.795 465.599 123.205C466.448 122.614 467.463 122.318 468.645 122.318C469.842 122.318 470.861 122.617 471.702 123.216C472.543 123.807 473.103 124.61 473.384 125.625H473.565C473.921 124.625 474.565 123.826 475.497 123.227C476.437 122.621 477.546 122.318 478.827 122.318C480.455 122.318 481.777 122.837 482.793 123.875C483.815 124.905 484.327 126.367 484.327 128.261V140H479.497V129.216C479.497 128.246 479.24 127.519 478.724 127.034C478.209 126.549 477.565 126.307 476.793 126.307C475.914 126.307 475.228 126.587 474.736 127.148C474.243 127.701 473.997 128.432 473.997 129.341V140H469.304V129.114C469.304 128.258 469.058 127.576 468.565 127.068C468.08 126.561 467.44 126.307 466.645 126.307C466.107 126.307 465.622 126.443 465.19 126.716C464.766 126.981 464.429 127.356 464.179 127.841C463.929 128.318 463.804 128.879 463.804 129.523V140H458.963ZM496.105 140.341C494.31 140.341 492.764 139.977 491.469 139.25C490.181 138.515 489.188 137.477 488.491 136.136C487.795 134.788 487.446 133.193 487.446 131.352C487.446 129.557 487.795 127.981 488.491 126.625C489.188 125.269 490.17 124.212 491.435 123.455C492.707 122.697 494.2 122.318 495.912 122.318C497.063 122.318 498.135 122.504 499.128 122.875C500.128 123.239 500.999 123.788 501.741 124.523C502.491 125.258 503.075 126.182 503.491 127.295C503.908 128.402 504.116 129.697 504.116 131.182V132.511H489.378V129.511H499.56C499.56 128.814 499.408 128.197 499.105 127.659C498.802 127.121 498.382 126.701 497.844 126.398C497.313 126.087 496.696 125.932 495.991 125.932C495.257 125.932 494.605 126.102 494.037 126.443C493.476 126.777 493.037 127.227 492.719 127.795C492.401 128.356 492.238 128.981 492.23 129.67V132.523C492.23 133.386 492.389 134.133 492.707 134.761C493.033 135.39 493.491 135.875 494.082 136.216C494.673 136.557 495.374 136.727 496.185 136.727C496.723 136.727 497.215 136.652 497.662 136.5C498.109 136.348 498.491 136.121 498.81 135.818C499.128 135.515 499.37 135.144 499.537 134.705L504.014 135C503.787 136.076 503.321 137.015 502.616 137.818C501.92 138.614 501.018 139.235 499.912 139.682C498.813 140.121 497.545 140.341 496.105 140.341ZM512.116 129.909V140H507.276V122.545H511.889V125.625H512.094C512.48 124.61 513.128 123.807 514.037 123.216C514.946 122.617 516.048 122.318 517.344 122.318C518.556 122.318 519.613 122.583 520.514 123.114C521.416 123.644 522.116 124.402 522.616 125.386C523.116 126.364 523.366 127.53 523.366 128.886V140H518.526V129.75C518.533 128.682 518.26 127.848 517.707 127.25C517.154 126.644 516.393 126.341 515.423 126.341C514.772 126.341 514.196 126.481 513.696 126.761C513.204 127.042 512.817 127.451 512.537 127.989C512.264 128.519 512.124 129.159 512.116 129.909ZM536.466 122.545V126.182H525.955V122.545H536.466ZM528.341 118.364H533.182V134.636C533.182 135.083 533.25 135.432 533.386 135.682C533.523 135.924 533.712 136.095 533.955 136.193C534.205 136.292 534.492 136.341 534.818 136.341C535.045 136.341 535.273 136.322 535.5 136.284C535.727 136.239 535.902 136.205 536.023 136.182L536.784 139.784C536.542 139.86 536.201 139.947 535.761 140.045C535.322 140.152 534.788 140.216 534.159 140.239C532.992 140.284 531.97 140.129 531.091 139.773C530.22 139.417 529.542 138.864 529.057 138.114C528.572 137.364 528.333 136.417 528.341 135.273V118.364ZM544.597 140.33C543.483 140.33 542.491 140.136 541.619 139.75C540.748 139.356 540.059 138.777 539.551 138.011C539.051 137.239 538.801 136.277 538.801 135.125C538.801 134.155 538.979 133.341 539.335 132.682C539.691 132.023 540.176 131.492 540.79 131.091C541.403 130.689 542.1 130.386 542.881 130.182C543.669 129.977 544.494 129.833 545.358 129.75C546.373 129.644 547.191 129.545 547.812 129.455C548.434 129.356 548.884 129.212 549.165 129.023C549.445 128.833 549.585 128.553 549.585 128.182V128.114C549.585 127.394 549.358 126.837 548.903 126.443C548.456 126.049 547.82 125.852 546.994 125.852C546.123 125.852 545.43 126.045 544.915 126.432C544.4 126.811 544.059 127.288 543.892 127.864L539.415 127.5C539.642 126.439 540.089 125.523 540.756 124.75C541.422 123.97 542.282 123.371 543.335 122.955C544.396 122.53 545.623 122.318 547.017 122.318C547.987 122.318 548.915 122.432 549.801 122.659C550.695 122.886 551.487 123.239 552.176 123.716C552.873 124.193 553.422 124.807 553.824 125.557C554.225 126.299 554.426 127.189 554.426 128.227V140H549.835V137.58H549.699C549.419 138.125 549.044 138.606 548.574 139.023C548.104 139.432 547.54 139.754 546.881 139.989C546.222 140.216 545.46 140.33 544.597 140.33ZM545.983 136.989C546.695 136.989 547.324 136.848 547.869 136.568C548.415 136.28 548.843 135.894 549.153 135.409C549.464 134.924 549.619 134.375 549.619 133.761V131.909C549.468 132.008 549.259 132.098 548.994 132.182C548.737 132.258 548.445 132.33 548.119 132.398C547.794 132.458 547.468 132.515 547.142 132.568C546.816 132.614 546.521 132.655 546.256 132.693C545.688 132.777 545.191 132.909 544.767 133.091C544.343 133.273 544.013 133.519 543.778 133.83C543.544 134.133 543.426 134.511 543.426 134.966C543.426 135.625 543.665 136.129 544.142 136.477C544.627 136.818 545.241 136.989 545.983 136.989ZM567.466 122.545V126.182H556.955V122.545H567.466ZM559.341 118.364H564.182V134.636C564.182 135.083 564.25 135.432 564.386 135.682C564.523 135.924 564.712 136.095 564.955 136.193C565.205 136.292 565.492 136.341 565.818 136.341C566.045 136.341 566.273 136.322 566.5 136.284C566.727 136.239 566.902 136.205 567.023 136.182L567.784 139.784C567.542 139.86 567.201 139.947 566.761 140.045C566.322 140.152 565.788 140.216 565.159 140.239C563.992 140.284 562.97 140.129 562.091 139.773C561.22 139.417 560.542 138.864 560.057 138.114C559.572 137.364 559.333 136.417 559.341 135.273V118.364ZM570.619 140V122.545H575.46V140H570.619ZM573.051 120.295C572.331 120.295 571.714 120.057 571.199 119.58C570.691 119.095 570.438 118.515 570.438 117.841C570.438 117.174 570.691 116.602 571.199 116.125C571.714 115.64 572.331 115.398 573.051 115.398C573.771 115.398 574.384 115.64 574.892 116.125C575.407 116.602 575.665 117.174 575.665 117.841C575.665 118.515 575.407 119.095 574.892 119.58C574.384 120.057 573.771 120.295 573.051 120.295ZM587.224 140.341C585.459 140.341 583.933 139.966 582.645 139.216C581.365 138.458 580.376 137.405 579.679 136.057C578.982 134.701 578.634 133.129 578.634 131.341C578.634 129.538 578.982 127.962 579.679 126.614C580.376 125.258 581.365 124.205 582.645 123.455C583.933 122.697 585.459 122.318 587.224 122.318C588.99 122.318 590.512 122.697 591.793 123.455C593.08 124.205 594.073 125.258 594.77 126.614C595.467 127.962 595.815 129.538 595.815 131.341C595.815 133.129 595.467 134.701 594.77 136.057C594.073 137.405 593.08 138.458 591.793 139.216C590.512 139.966 588.99 140.341 587.224 140.341ZM587.247 136.591C588.05 136.591 588.721 136.364 589.259 135.909C589.796 135.447 590.202 134.818 590.474 134.023C590.755 133.227 590.895 132.322 590.895 131.307C590.895 130.292 590.755 129.386 590.474 128.591C590.202 127.795 589.796 127.167 589.259 126.705C588.721 126.242 588.05 126.011 587.247 126.011C586.437 126.011 585.755 126.242 585.202 126.705C584.656 127.167 584.243 127.795 583.963 128.591C583.69 129.386 583.554 130.292 583.554 131.307C583.554 132.322 583.69 133.227 583.963 134.023C584.243 134.818 584.656 135.447 585.202 135.909C585.755 136.364 586.437 136.591 587.247 136.591ZM603.804 129.909V140H598.963V122.545H603.577V125.625H603.781C604.168 124.61 604.815 123.807 605.724 123.216C606.634 122.617 607.736 122.318 609.031 122.318C610.243 122.318 611.3 122.583 612.202 123.114C613.103 123.644 613.804 124.402 614.304 125.386C614.804 126.364 615.054 127.53 615.054 128.886V140H610.213V129.75C610.221 128.682 609.948 127.848 609.395 127.25C608.842 126.644 608.08 126.341 607.111 126.341C606.459 126.341 605.884 126.481 605.384 126.761C604.891 127.042 604.505 127.451 604.224 127.989C603.952 128.519 603.812 129.159 603.804 129.909Z" fill="#343A40"/>
<circle cx="412" cy="316" r="131.5" fill="#E0E2E7" stroke="#D8E6F7"/>
<g clip-path="url(#clip0_358_7963)">
<path d="M552.521 261.041L547.579 285.079L544.398 281.966L538.986 285.841L534.85 280.685L525.576 287.46L517.649 274.144L508.809 279.347L505.302 274.486L494.076 280.841L490.699 273.578L498.569 235.291L540.758 244.042L552.521 261.041Z" fill="#EBEBEB"/>
<path d="M540.758 244.041L552.521 261.04L537.887 258.005L540.758 244.041Z" fill="#DBDBDB"/>
<path d="M546.526 289.886L539.281 325.155L482.452 313.374L489.645 278.381L493.023 285.648L504.254 279.294L507.755 284.149L516.601 278.946L524.522 292.262L533.802 285.487L537.933 290.644L543.35 286.769L546.526 289.886Z" fill="#EBEBEB"/>
<path d="M465.189 285.753L407.276 289.353L402.675 214.671L445.68 212L461.466 225.3L465.189 285.753Z" fill="#EBEBEB"/>
<path d="M445.68 212L461.466 225.3L446.553 226.229L445.68 212Z" fill="#DBDBDB"/>
<path d="M429.646 262.249L429.419 260.564C428.835 257.072 429.785 253.166 432.806 249.084C435.533 245.453 437.01 242.859 436.845 239.913C436.659 236.593 434.464 234.497 430.379 234.663C428.045 234.785 425.803 235.617 423.95 237.05L422.169 233.04C424.234 231.354 427.849 230.109 431.283 229.927C438.735 229.512 442.36 233.942 442.644 238.886C442.891 243.311 440.609 246.636 437.707 250.521C435.042 254.064 434.17 256.984 434.547 260.289L434.707 261.98L429.646 262.249ZM428.727 271.436C428.593 269.029 430.116 267.245 432.383 267.12C434.65 266.996 436.302 268.593 436.437 271.006C436.561 273.283 435.171 275.119 432.775 275.254C430.488 275.384 428.835 273.713 428.706 271.436H428.727Z" fill="#DBDBDB"/>
<path d="M284.788 249.545L278.963 246.895L278.152 248.684C278.033 248.94 277.846 249.158 277.612 249.315C277.378 249.472 277.106 249.563 276.825 249.576C276.505 249.587 276.186 249.618 275.87 249.67C275.592 249.711 275.309 249.676 275.05 249.568C274.791 249.46 274.565 249.284 274.398 249.058L273.257 247.455L268.057 251.2L269.198 252.803C269.357 253.034 269.45 253.304 269.469 253.585C269.487 253.865 269.429 254.145 269.301 254.395C269.154 254.681 269.022 254.973 268.904 255.272C268.802 255.535 268.63 255.766 268.407 255.939C268.184 256.111 267.918 256.22 267.639 256.252L265.692 256.444L266.317 262.84L268.274 262.643C268.555 262.621 268.836 262.675 269.088 262.801C269.34 262.928 269.553 263.12 269.704 263.359C269.787 263.494 269.875 263.624 269.968 263.753C270.061 263.883 270.154 264.007 270.252 264.132C270.43 264.35 270.544 264.613 270.583 264.892C270.621 265.171 270.581 265.456 270.469 265.714L269.653 267.519L275.483 270.175L276.293 268.375C276.414 268.12 276.602 267.902 276.837 267.746C277.072 267.589 277.344 267.5 277.626 267.488C277.942 267.475 278.258 267.444 278.571 267.395C278.848 267.353 279.132 267.388 279.391 267.496C279.65 267.604 279.875 267.78 280.042 268.007L281.184 269.61L286.389 265.864L285.248 264.262C285.084 264.032 284.988 263.762 284.969 263.48C284.951 263.199 285.012 262.918 285.144 262.669C285.288 262.385 285.417 262.095 285.532 261.798C285.631 261.532 285.802 261.3 286.025 261.127C286.249 260.954 286.516 260.846 286.797 260.817L288.754 260.62L288.124 254.224L286.167 254.416C285.888 254.441 285.608 254.387 285.357 254.262C285.106 254.137 284.895 253.944 284.747 253.705C284.659 253.571 284.571 253.441 284.478 253.311C284.385 253.182 284.292 253.052 284.194 252.933C284.017 252.712 283.903 252.447 283.865 252.167C283.827 251.886 283.866 251.6 283.977 251.34L284.788 249.545ZM281.483 255.464C282.087 256.31 282.427 257.318 282.461 258.359C282.495 259.4 282.221 260.427 281.673 261.311C281.126 262.196 280.33 262.897 279.385 263.327C278.441 263.756 277.391 263.895 276.368 263.725C275.345 263.556 274.396 263.085 273.639 262.373C272.883 261.661 272.353 260.739 272.118 259.725C271.883 258.711 271.952 257.649 272.318 256.675C272.683 255.7 273.328 254.856 274.171 254.25C275.301 253.437 276.706 253.108 278.077 253.336C279.448 253.564 280.674 254.329 281.483 255.464Z" fill="#EBEBEB"/>
<path d="M548.096 334.41L544.212 336.661L544.899 337.855C545.002 338.026 545.053 338.223 545.047 338.423C545.04 338.622 544.976 338.816 544.863 338.98C544.744 339.167 544.631 339.359 544.527 339.561C544.443 339.74 544.309 339.891 544.141 339.996C543.974 340.1 543.78 340.155 543.583 340.152H542.219V344.66H543.593C543.79 344.658 543.984 344.712 544.151 344.817C544.319 344.922 544.453 345.073 544.538 345.252C544.641 345.454 544.755 345.646 544.873 345.833C544.987 345.997 545.05 346.19 545.057 346.39C545.063 346.59 545.012 346.787 544.91 346.958L544.223 348.151L548.106 350.403L548.798 349.204C548.898 349.034 549.044 348.896 549.218 348.804C549.392 348.713 549.588 348.672 549.784 348.686H550.445C550.641 348.672 550.837 348.713 551.011 348.805C551.186 348.897 551.331 349.035 551.432 349.204L552.124 350.408L556.002 348.156L555.315 346.958C555.217 346.786 555.169 346.59 555.177 346.392C555.184 346.194 555.246 346.002 555.356 345.838C555.475 345.651 555.589 345.454 555.692 345.257C555.777 345.078 555.911 344.927 556.078 344.822C556.246 344.717 556.44 344.663 556.637 344.665H558.01V340.158H556.627C556.429 340.16 556.235 340.106 556.068 340.001C555.9 339.896 555.766 339.745 555.682 339.566C555.578 339.369 555.465 339.172 555.346 338.985C555.236 338.821 555.174 338.629 555.166 338.431C555.159 338.233 555.207 338.037 555.305 337.865L555.991 336.667L552.113 334.415L551.421 335.598C551.321 335.768 551.176 335.907 551.002 335.998C550.827 336.09 550.631 336.131 550.435 336.117H550.105H549.774C549.577 336.13 549.381 336.089 549.206 335.997C549.031 335.906 548.885 335.768 548.783 335.598L548.096 334.41ZM550.105 338.716C550.832 338.715 551.544 338.93 552.149 339.336C552.755 339.741 553.227 340.318 553.506 340.993C553.784 341.668 553.858 342.411 553.716 343.128C553.574 343.845 553.224 344.504 552.709 345.021C552.195 345.537 551.539 345.889 550.826 346.032C550.112 346.174 549.372 346.1 548.7 345.82C548.028 345.54 547.454 345.066 547.05 344.458C546.647 343.849 546.432 343.135 546.433 342.404C546.432 341.919 546.527 341.439 546.711 340.991C546.895 340.543 547.166 340.136 547.507 339.792C547.848 339.449 548.253 339.177 548.698 338.992C549.144 338.806 549.622 338.71 550.105 338.71V338.716Z" fill="#EBEBEB"/>
<path d="M296.572 230.38L293.014 233.118L293.835 234.213C293.958 234.369 294.033 234.557 294.052 234.755C294.072 234.952 294.034 235.151 293.944 235.328C293.845 235.53 293.759 235.738 293.686 235.951C293.622 236.138 293.508 236.304 293.355 236.429C293.203 236.555 293.019 236.635 292.823 236.661L291.46 236.838L292.038 241.304L293.402 241.128C293.6 241.1 293.802 241.129 293.985 241.211C294.168 241.294 294.323 241.427 294.434 241.594C294.559 241.775 294.693 241.948 294.837 242.113C294.97 242.26 295.058 242.442 295.091 242.638C295.124 242.834 295.101 243.035 295.023 243.218L294.507 244.494L298.638 246.221L299.154 244.945C299.231 244.762 299.357 244.605 299.519 244.49C299.68 244.375 299.871 244.309 300.068 244.297L300.399 244.261L300.724 244.209C300.915 244.173 301.112 244.19 301.295 244.258C301.477 244.327 301.636 244.444 301.757 244.598L302.599 245.703L306.156 242.964L305.325 241.869C305.205 241.711 305.131 241.523 305.112 241.325C305.093 241.127 305.129 240.927 305.217 240.749C305.314 240.548 305.401 240.342 305.475 240.132C305.538 239.944 305.653 239.778 305.805 239.653C305.958 239.527 306.142 239.447 306.337 239.421L307.7 239.245L307.122 234.778L305.759 234.955C305.561 234.983 305.359 234.955 305.176 234.873C304.994 234.791 304.838 234.66 304.726 234.493C304.597 234.306 304.463 234.13 304.318 233.974C304.198 233.824 304.12 233.644 304.093 233.454C304.065 233.263 304.09 233.068 304.163 232.89L304.68 231.614L300.548 229.887L300.032 231.163C299.954 231.345 299.828 231.502 299.666 231.617C299.505 231.731 299.315 231.799 299.118 231.811L298.788 231.842L298.483 231.853C298.292 231.889 298.094 231.872 297.912 231.803C297.73 231.735 297.57 231.617 297.45 231.464L296.572 230.38ZM299.118 234.389C299.837 234.296 300.568 234.42 301.218 234.743C301.867 235.067 302.407 235.577 302.769 236.208C303.13 236.84 303.298 237.565 303.25 238.292C303.202 239.019 302.94 239.715 302.499 240.293C302.057 240.871 301.455 241.304 300.769 241.539C300.082 241.774 299.342 241.799 298.641 241.611C297.94 241.424 297.31 241.032 296.831 240.485C296.352 239.938 296.044 239.261 295.947 238.539C295.883 238.057 295.914 237.567 296.038 237.098C296.163 236.628 296.379 236.187 296.674 235.802C296.968 235.416 297.336 235.093 297.755 234.85C298.175 234.608 298.638 234.451 299.118 234.389Z" fill="#EBEBEB"/>
<path d="M269.988 347.415C270.182 342.4 270.113 337.379 269.782 332.372C269.043 322.032 267.473 311.769 265.088 301.684C263.776 296.009 262.165 290.427 260.482 284.851C260.43 284.68 260.162 284.727 260.208 284.903C265.408 304.563 269.673 324.845 269.379 345.283C269.296 350.989 268.636 356.617 268.098 362.303C268.098 362.453 268.331 362.515 268.367 362.36C269.436 357.478 269.787 352.384 269.988 347.415Z" fill="#EBEBEB"/>
<path d="M260.208 284.887C260.208 284.887 252.338 304.962 254.099 309.661C255.86 314.361 259.495 315.367 259.495 315.367C259.495 315.367 254.677 322.277 258.044 328.756C261.411 335.235 268.889 334.929 269.405 342.274C269.389 342.31 269.803 311.596 260.208 284.887Z" fill="#EBEBEB"/>
<path d="M268.532 329.627C268.545 329.594 268.545 329.557 268.532 329.524C267.499 315.818 264.939 302.273 260.9 289.141C260.9 289.104 260.822 289.115 260.833 289.141C262.392 295.02 263.769 300.923 264.964 306.85C263.906 305.843 262.613 305.119 261.204 304.744C261.204 304.744 261.163 304.775 261.204 304.786C262.684 305.33 264.015 306.219 265.088 307.379C265.315 308.546 265.542 309.708 265.754 310.875C263.993 308.899 261.556 307.919 259.113 306.985C259.108 306.987 259.103 306.991 259.1 306.996C259.096 307.002 259.094 307.007 259.094 307.014C259.094 307.02 259.096 307.025 259.1 307.031C259.103 307.036 259.108 307.04 259.113 307.042C261.659 308.079 264.189 309.418 265.914 311.622C266.513 314.953 267.04 318.295 267.494 321.649C266.223 320.311 264.592 319.373 262.8 318.947C262.743 318.947 262.712 319.014 262.769 319.03C264.61 319.574 266.253 320.645 267.499 322.111H267.53C267.685 323.287 267.833 324.468 267.974 325.654C266.991 324.818 265.88 324.145 264.685 323.662C264.654 323.662 264.633 323.698 264.685 323.709C265.905 324.24 267.022 324.982 267.985 325.903C267.985 325.903 268.01 325.903 268.026 325.903C268.155 327.029 268.284 328.154 268.398 329.28C266.625 327.127 264.323 325.475 261.721 324.487C261.71 324.487 261.699 324.491 261.692 324.499C261.684 324.507 261.68 324.517 261.68 324.528C261.68 324.539 261.684 324.55 261.692 324.558C261.699 324.566 261.71 324.57 261.721 324.57C264.291 325.708 266.548 327.454 268.3 329.659C268.319 329.683 268.345 329.701 268.374 329.71C268.404 329.719 268.435 329.719 268.465 329.71C268.635 331.438 268.79 333.165 268.914 334.898C268.914 334.924 268.955 334.924 268.955 334.898C268.821 333.158 268.68 331.402 268.532 329.627Z" fill="white"/>
<path d="M262.206 302.767C260.781 301.876 259.153 301.365 257.476 301.283C257.468 301.283 257.46 301.286 257.454 301.292C257.449 301.298 257.445 301.306 257.445 301.314C257.445 301.323 257.449 301.33 257.454 301.336C257.46 301.342 257.468 301.345 257.476 301.345C259.097 301.654 260.671 302.178 262.155 302.902C262.217 302.917 262.263 302.808 262.206 302.767Z" fill="white"/>
<path d="M263.162 324.02C262.066 323.388 260.86 322.974 259.609 322.801C259.568 322.801 259.562 322.858 259.609 322.868C260.831 323.114 262.012 323.53 263.12 324.103C263.167 324.129 263.208 324.046 263.162 324.02Z" fill="white"/>
<path d="M290.685 310.009C287.356 312.32 284.298 315.004 281.571 318.008C278.758 321.188 276.589 324.888 275.183 328.901C272.192 337.262 270.584 346.058 270.422 354.941C270.322 359.86 270.791 364.775 271.822 369.585C271.83 369.62 271.851 369.65 271.881 369.67C271.911 369.689 271.948 369.696 271.983 369.69C272.018 369.683 272.049 369.663 272.07 369.634C272.091 369.605 272.1 369.569 272.095 369.533C270.813 361.045 270.862 352.407 272.24 343.934C273.593 335.634 275.715 326.598 280.972 319.849C283.833 316.171 287.401 313.282 290.928 310.294C291.114 310.128 290.876 309.874 290.685 310.009Z" fill="#EBEBEB"/>
<path d="M271.579 348.955C273.474 345.876 275.701 343.016 278.22 340.427C282.16 336.469 285.475 333.658 285.991 331.043C286.508 328.429 282.046 326.499 282.046 326.499C282.046 326.499 287.494 327.485 288.986 325.187C290.479 322.889 291.197 309.578 291.197 309.578C291.197 309.578 281.282 316.69 276.66 326.66C272.038 336.63 271.579 348.955 271.579 348.955Z" fill="#EBEBEB"/>
<path d="M287.639 322.064C286.986 321.966 286.324 321.944 285.666 321.996C285.589 321.996 285.594 322.131 285.666 322.137C286.317 322.137 286.973 322.105 287.623 322.137C287.631 322.135 287.637 322.131 287.643 322.125C287.648 322.12 287.652 322.113 287.653 322.105C287.655 322.098 287.654 322.09 287.652 322.082C287.649 322.075 287.645 322.069 287.639 322.064Z" fill="white"/>
<path d="M280.517 334.975C279.471 334.996 278.436 335.203 277.46 335.587C277.46 335.587 277.46 335.639 277.46 335.633C278.493 335.39 279.49 335.291 280.512 335.115C280.526 335.109 280.537 335.099 280.545 335.087C280.553 335.075 280.558 335.061 280.559 335.046C280.559 335.032 280.556 335.017 280.548 335.004C280.541 334.992 280.53 334.981 280.517 334.975Z" fill="white"/>
<path d="M278.38 330.514C277.945 330.51 277.511 330.549 277.084 330.628C277.076 330.631 277.069 330.636 277.064 330.643C277.059 330.65 277.057 330.658 277.057 330.667C277.057 330.675 277.059 330.684 277.064 330.691C277.069 330.698 277.076 330.703 277.084 330.706C277.516 330.731 277.951 330.712 278.38 330.649C278.398 330.649 278.415 330.642 278.427 330.629C278.44 330.616 278.447 330.599 278.447 330.581C278.447 330.563 278.44 330.546 278.427 330.534C278.415 330.521 278.398 330.514 278.38 330.514Z" fill="white"/>
<path d="M242.511 324.129C245.738 325.228 248.83 326.691 251.729 328.491C254.736 330.411 257.344 332.898 259.407 335.816C263.75 341.887 267.074 348.632 269.25 355.781C270.463 359.74 271.212 363.828 271.481 367.961C271.475 367.988 271.46 368.012 271.439 368.029C271.418 368.046 271.392 368.056 271.364 368.056C271.337 368.056 271.311 368.046 271.29 368.029C271.269 368.012 271.254 367.988 271.248 367.961C270.337 360.795 268.312 353.816 265.248 347.279C262.237 340.873 258.442 334.057 252.638 329.814C249.477 327.505 245.924 325.991 242.382 324.393C242.196 324.331 242.325 324.066 242.511 324.129Z" fill="#EBEBEB"/>
<path d="M266.936 351.212C264.693 349.162 262.232 347.365 259.599 345.854C255.498 343.566 252.168 342.062 251.15 340.065C250.133 338.068 253.299 335.474 253.299 335.474C253.299 335.474 249.116 337.549 247.381 336.019C245.646 334.488 242 323.906 242 323.906C242 323.906 251.662 327.356 257.688 334.353C263.714 341.351 266.936 351.212 266.936 351.212Z" fill="#EBEBEB"/>
<path d="M258.917 341.469C257.967 341.403 257.013 341.521 256.108 341.817C256.108 341.817 256.108 341.863 256.108 341.858C257.032 341.699 257.965 341.602 258.902 341.568C258.969 341.568 258.984 341.474 258.917 341.469Z" fill="white"/>
<path d="M250.49 330.369C250.056 330.334 249.62 330.358 249.193 330.442C249.147 330.442 249.162 330.525 249.193 330.52C249.622 330.473 250.04 330.489 250.464 330.478C250.477 330.479 250.49 330.475 250.5 330.467C250.511 330.459 250.518 330.447 250.521 330.434C250.524 330.422 250.523 330.408 250.517 330.396C250.511 330.384 250.502 330.375 250.49 330.369Z" fill="white"/>
<path d="M279.397 381.34H257.59L260.699 358.459L261.494 352.592H275.493L276.288 358.459L279.397 381.34Z" fill="#DBDBDB"/>
<path d="M276.288 358.459H260.698L261.494 352.592H275.493L276.288 358.459Z" fill="#C7C7C7"/>
<path d="M277.492 350.559H259.49V355.528H277.492V350.559Z" fill="#DBDBDB"/>
<path d="M243.725 381.339L282.976 381.21L322.227 381.168L400.728 381.08L479.23 381.163L518.481 381.21L557.732 381.339L518.481 381.464L479.23 381.511L400.728 381.594L322.227 381.511L282.976 381.464L243.725 381.339Z" fill="#263238"/>
<path d="M401.761 419.999C483.538 419.999 549.831 412.702 549.831 403.701C549.831 394.699 483.538 387.402 401.761 387.402C319.984 387.402 253.691 394.699 253.691 403.701C253.691 412.702 319.984 419.999 401.761 419.999Z" fill="#EBEBEB"/>
<path d="M367.292 401.005C366.089 401.414 331.589 401.523 330.267 400.704C329.75 400.393 329.456 395.345 329.234 389.235C329.187 387.917 329.151 386.553 329.12 385.173L326.368 366.686L349.435 366.535L351.609 385.028L351.521 389.095C351.521 389.095 364.751 394.982 366.104 396.051C367.457 397.119 368.495 400.595 367.292 401.005Z" fill="#EB9481"/>
<path d="M367.292 401.004C366.089 401.414 331.589 401.523 330.267 400.703C329.657 400.319 329.327 392.948 329.141 385.173L351.583 385.027L351.495 389.094C351.495 389.094 364.725 394.982 366.078 396.05C367.431 397.119 368.495 400.594 367.292 401.004Z" fill="white"/>
<path d="M367.292 401.004C366.089 401.414 331.589 401.523 330.267 400.703C329.75 400.392 329.456 395.344 329.234 389.234L351.475 389.094C351.475 389.094 364.705 394.981 366.058 396.05C367.411 397.118 368.495 400.594 367.292 401.004Z" fill="#A6A6A6"/>
<path d="M366.791 399.62C361.007 399.495 337.666 399.552 331.94 399.874C331.893 399.874 331.893 399.905 331.94 399.91C337.672 400.154 361.012 399.91 366.791 399.713C366.915 399.708 366.915 399.62 366.791 399.62Z" fill="#263238"/>
<path d="M363.853 394.812C363.21 394.797 362.57 394.917 361.976 395.163C361.381 395.41 360.844 395.778 360.398 396.243C359.586 397.075 359.126 398.191 359.117 399.356C359.117 399.392 359.179 399.392 359.185 399.356C359.377 398.208 359.933 397.154 360.771 396.35C361.608 395.546 362.682 395.035 363.832 394.895C363.843 394.897 363.855 394.896 363.864 394.89C363.874 394.884 363.881 394.875 363.884 394.864C363.886 394.853 363.885 394.841 363.879 394.831C363.873 394.821 363.864 394.814 363.853 394.812Z" fill="#263238"/>
<path d="M353.736 389.665C351.423 389.639 348.743 390.469 347.307 392.378C347.256 392.45 347.359 392.528 347.426 392.492C349.447 391.42 351.577 390.568 353.778 389.95C353.812 389.941 353.841 389.919 353.861 389.889C353.88 389.86 353.888 389.824 353.883 389.789C353.878 389.754 353.86 389.722 353.833 389.699C353.806 389.676 353.772 389.664 353.736 389.665Z" fill="#263238"/>
<path d="M355.534 390.355C353.215 390.355 350.535 391.165 349.105 393.068C349.048 393.146 349.151 393.224 349.223 393.188C351.242 392.112 353.369 391.258 355.57 390.641C355.603 390.632 355.632 390.61 355.652 390.581C355.671 390.552 355.679 390.517 355.675 390.482C355.671 390.448 355.654 390.416 355.628 390.392C355.602 390.369 355.568 390.356 355.534 390.355Z" fill="#263238"/>
<path d="M357.32 391.051C355.007 391.051 352.327 391.855 350.891 393.764C350.84 393.836 350.943 393.914 351.01 393.878C353.031 392.806 355.16 391.954 357.362 391.336C357.396 391.327 357.425 391.305 357.444 391.276C357.464 391.246 357.472 391.21 357.466 391.175C357.461 391.14 357.444 391.108 357.417 391.085C357.39 391.062 357.356 391.05 357.32 391.051Z" fill="#263238"/>
<path d="M359.112 391.745C356.794 391.719 354.114 392.549 352.683 394.458C352.626 394.53 352.735 394.608 352.802 394.572C354.823 393.499 356.952 392.647 359.154 392.03C359.188 392.021 359.217 391.999 359.236 391.969C359.256 391.94 359.264 391.904 359.258 391.869C359.253 391.834 359.236 391.802 359.209 391.779C359.182 391.756 359.147 391.744 359.112 391.745Z" fill="#263238"/>
<path d="M333.396 394.35C330.814 394.35 330.814 398.422 333.396 398.406C335.978 398.391 335.999 394.334 333.396 394.35Z" fill="#263238"/>
<path d="M356.22 383.45C355.048 382.475 353.571 383.45 352.853 384.451C351.659 386.221 350.946 388.274 350.788 390.406C350.788 390.453 350.824 390.474 350.86 390.474C350.869 390.518 350.889 390.559 350.917 390.593C350.945 390.628 350.981 390.656 351.022 390.673C351.063 390.691 351.108 390.699 351.153 390.696C351.197 390.693 351.24 390.679 351.278 390.655C352.921 389.509 354.821 388.482 356.065 386.858C356.773 385.914 357.351 384.358 356.22 383.45ZM353.401 388.399C352.606 388.985 351.784 389.53 351.01 390.147C351.423 388.985 351.779 387.813 352.306 386.692C352.549 386.155 352.829 385.635 353.143 385.136C353.659 384.363 355.91 382.413 356.148 384.939C356.282 386.324 354.346 387.704 353.401 388.399Z" fill="#263238"/>
<path d="M345.025 391.289C347.039 391.59 349.12 391.009 351.098 390.692C351.141 390.681 351.181 390.66 351.214 390.63C351.247 390.601 351.273 390.564 351.29 390.523C351.306 390.481 351.313 390.437 351.309 390.392C351.306 390.348 351.291 390.305 351.268 390.267C351.276 390.261 351.282 390.253 351.286 390.245C351.29 390.236 351.292 390.227 351.292 390.217C351.292 390.208 351.29 390.199 351.286 390.19C351.282 390.181 351.276 390.174 351.268 390.168C349.679 388.745 347.745 387.766 345.66 387.331C344.442 387.097 342.717 387.434 342.562 388.954C342.376 390.386 343.848 391.102 345.025 391.289ZM343.621 389.971C342.071 387.979 345.03 387.808 345.918 388.015C346.495 388.16 347.061 388.344 347.612 388.565C348.742 389.036 349.846 389.564 350.922 390.147C349.941 390.246 348.975 390.422 348 390.557C346.832 390.713 344.488 391.066 343.621 389.971Z" fill="#263238"/>
<path d="M292.451 281.234C292.451 281.234 319.237 327.007 319.954 330.223C321.054 335.161 326.884 383.927 326.884 383.927L354.769 383.408C354.769 383.408 349.967 340.411 345.418 326.245C342.144 316.041 318.503 282.199 318.503 282.199L292.451 281.234Z" fill="#37474F"/>
<path d="M352.234 379.135C348.232 379.104 334.046 378.943 328.717 379.441C328.676 379.441 328.681 379.514 328.717 379.519C330.55 379.784 348.227 379.374 352.229 379.244C352.237 379.247 352.246 379.248 352.255 379.247C352.264 379.246 352.272 379.243 352.279 379.238C352.287 379.233 352.293 379.227 352.297 379.219C352.302 379.211 352.304 379.202 352.305 379.193C352.305 379.184 352.303 379.176 352.3 379.167C352.296 379.159 352.291 379.152 352.284 379.146C352.277 379.141 352.269 379.137 352.26 379.135C352.251 379.133 352.242 379.133 352.234 379.135Z" fill="#263238"/>
<path d="M297.021 285.437C298.777 288.202 300.636 290.91 302.423 293.654C304.209 296.398 306.006 299.142 307.778 301.881C311.31 307.414 314.752 312.983 318.106 318.589C319.742 321.188 321.142 323.929 322.288 326.78C323.335 329.631 324.121 332.573 324.638 335.567C325.185 338.571 325.547 341.605 325.882 344.64C326.227 347.866 326.586 351.094 326.962 354.324C327.695 360.933 328.43 367.542 329.167 374.15C329.254 374.959 329.342 375.769 329.425 376.583C329.425 376.702 329.223 376.723 329.208 376.583C328.387 370.021 327.705 363.433 326.962 356.871C326.59 353.596 326.22 350.323 325.851 347.052C325.505 344.007 325.175 340.957 324.705 337.933C324.274 334.947 323.618 332 322.743 329.114C321.778 326.126 320.486 323.256 318.89 320.555C315.663 314.958 312.244 309.459 308.826 303.956C305.407 298.452 301.896 292.902 298.292 287.465C297.848 286.796 297.398 286.127 296.934 285.468C296.897 285.432 296.99 285.385 297.021 285.437Z" fill="#263238"/>
<path d="M301.23 403.701C299.96 403.624 267.148 390.271 266.239 389.006C266.199 388.931 266.181 388.847 266.188 388.762C266.188 387.626 268.465 383.663 270.365 378.455C270.484 378.123 271.331 376.577 272.503 374.497C275.762 368.796 281.442 358.977 281.442 358.977L302.888 367.536L292.622 382.968L291.026 386.703C291.026 386.703 301.091 397.155 301.937 398.633C302.784 400.112 302.495 403.774 301.23 403.701Z" fill="#EB9481"/>
<path d="M301.23 403.703C299.96 403.625 267.148 390.273 266.239 389.007C266.199 388.932 266.181 388.848 266.188 388.763C266.188 387.627 268.465 383.664 270.365 378.456C270.484 378.124 271.331 376.578 272.503 374.498L292.642 382.969L291.047 386.704C291.047 386.704 301.111 397.156 301.958 398.635C302.805 400.113 302.495 403.775 301.23 403.703Z" fill="white"/>
<path d="M301.23 403.702C299.96 403.624 267.148 390.272 266.239 389.006C265.888 388.524 267.355 384.026 270.37 378.455L291.026 386.708C291.026 386.708 301.091 397.15 301.943 398.639C302.795 400.128 302.495 403.774 301.23 403.702Z" fill="#A6A6A6"/>
<path d="M301.282 402.228C295.968 399.935 274.311 391.189 268.883 389.332C268.837 389.332 268.827 389.332 268.883 389.363C274.104 391.749 295.829 400.319 301.261 402.331C301.364 402.357 301.395 402.274 301.282 402.228Z" fill="#263238"/>
<path d="M300.352 396.662C299.763 396.402 299.126 396.268 298.483 396.268C297.839 396.268 297.203 396.402 296.613 396.662C295.554 397.128 294.714 397.986 294.269 399.058C294.269 399.09 294.316 399.115 294.331 399.084C294.94 398.09 295.853 397.32 296.934 396.891C298.015 396.462 299.205 396.396 300.326 396.703C300.335 396.701 300.342 396.695 300.347 396.688C300.352 396.68 300.354 396.671 300.352 396.662Z" fill="#263238"/>
<path d="M292.901 388.084C290.768 387.186 287.969 386.948 285.929 388.177C285.852 388.224 285.929 388.333 285.996 388.328C288.27 388.096 290.562 388.108 292.833 388.364C292.868 388.368 292.904 388.359 292.932 388.338C292.961 388.318 292.981 388.288 292.99 388.254C292.998 388.219 292.993 388.183 292.977 388.152C292.961 388.121 292.933 388.096 292.901 388.084Z" fill="#263238"/>
<path d="M294.3 389.4C292.167 388.503 289.368 388.264 287.329 389.494C287.251 389.54 287.329 389.649 287.396 389.644C289.67 389.41 291.962 389.422 294.233 389.68C294.268 389.684 294.303 389.675 294.332 389.655C294.36 389.634 294.381 389.604 294.389 389.57C294.397 389.536 294.393 389.499 294.376 389.468C294.36 389.437 294.333 389.413 294.3 389.4Z" fill="#263238"/>
<path d="M295.705 390.719C293.567 389.821 290.768 389.583 288.733 390.812C288.651 390.859 288.733 390.968 288.795 390.962C291.069 390.728 293.361 390.74 295.632 390.999C295.668 391.005 295.704 390.997 295.735 390.977C295.765 390.958 295.787 390.927 295.796 390.892C295.805 390.857 295.801 390.819 295.784 390.787C295.767 390.755 295.739 390.731 295.705 390.719Z" fill="#263238"/>
<path d="M297.104 392.036C294.966 391.138 292.172 390.9 290.133 392.124C290.05 392.176 290.133 392.285 290.195 392.28C292.468 392.045 294.761 392.057 297.032 392.316C297.067 392.322 297.104 392.314 297.134 392.294C297.165 392.275 297.186 392.244 297.196 392.209C297.205 392.174 297.2 392.137 297.183 392.104C297.166 392.072 297.138 392.048 297.104 392.036Z" fill="#263238"/>
<path d="M272.291 384.758C269.88 383.793 268.382 387.564 270.804 388.529C273.226 389.494 274.729 385.723 272.291 384.758Z" fill="#263238"/>
<path d="M297.522 383.258C296.794 381.914 295.074 382.246 294.026 382.916C292.26 384.104 290.836 385.737 289.895 387.652C289.891 387.66 289.889 387.669 289.889 387.679C289.889 387.688 289.891 387.697 289.895 387.706C289.899 387.714 289.904 387.722 289.912 387.728C289.919 387.733 289.927 387.738 289.936 387.74C289.936 387.911 290.05 388.113 290.251 388.072C292.209 387.62 294.352 387.387 296.107 386.35C297.114 385.748 298.209 384.529 297.522 383.258ZM293.055 386.78C292.1 387.024 291.14 387.221 290.195 387.501C290.976 386.555 291.805 385.65 292.678 384.788C293.108 384.377 293.565 383.996 294.047 383.647C294.796 383.128 297.625 382.169 296.903 384.601C296.505 385.945 294.197 386.49 293.055 386.78Z" fill="#263238"/>
<path d="M284.215 386.303C285.971 387.341 288.114 387.585 290.066 388.041C290.267 388.088 290.401 387.885 290.386 387.709C290.396 387.708 290.405 387.705 290.413 387.699C290.421 387.693 290.427 387.686 290.431 387.677C290.435 387.668 290.437 387.658 290.436 387.648C290.436 387.639 290.432 387.629 290.427 387.621C289.488 385.703 288.063 384.066 286.296 382.875C285.263 382.2 283.533 381.863 282.8 383.201C282.067 384.54 283.187 385.696 284.215 386.303ZM283.409 384.55C282.692 382.117 285.516 383.082 286.265 383.606C286.746 383.955 287.201 384.338 287.628 384.752C288.5 385.616 289.327 386.523 290.107 387.47C289.162 387.19 288.201 386.988 287.246 386.744C286.089 386.433 283.802 385.914 283.409 384.55Z" fill="#263238"/>
<path d="M294.29 382.107L270.283 372.37C270.283 372.37 300.047 328.408 300.264 325.134C300.461 322.24 287.386 297.019 286.874 289.669C286.317 281.732 290.117 275.596 294.3 271.783L319.061 282.36C319.061 282.36 316.448 286.557 312.348 288.896C312.348 288.896 325.046 318.049 324.323 327.012C323.6 335.976 294.29 382.107 294.29 382.107Z" fill="#37474F"/>
<path d="M295.353 377.521C291.883 376.022 292.9 376.401 289.41 374.928C287.706 374.212 276.5 369.528 274.775 369.139C274.739 369.139 274.713 369.191 274.749 369.211C276.242 370.129 287.54 374.616 289.26 375.301C292.777 376.691 291.78 376.256 295.312 377.604C295.317 377.611 295.324 377.617 295.332 377.621C295.34 377.624 295.349 377.626 295.358 377.625C295.367 377.624 295.375 377.621 295.382 377.616C295.39 377.611 295.396 377.604 295.4 377.596C295.403 377.588 295.405 377.58 295.405 377.571C295.405 377.562 295.402 377.553 295.397 377.546C295.393 377.538 295.386 377.532 295.378 377.528C295.371 377.524 295.362 377.521 295.353 377.521Z" fill="#263238"/>
<path d="M316.407 288.362C313.829 288.965 311.307 289.788 308.867 290.821C308.858 290.824 308.848 290.829 308.841 290.836C308.833 290.843 308.827 290.851 308.822 290.861C308.817 290.87 308.815 290.88 308.814 290.891C308.813 290.901 308.815 290.912 308.818 290.922C308.822 290.932 308.827 290.941 308.834 290.948C308.841 290.956 308.849 290.963 308.858 290.967C308.868 290.972 308.878 290.975 308.888 290.975C308.899 290.976 308.909 290.974 308.919 290.971C311.449 290.229 314.021 289.534 316.51 288.657C316.701 288.59 316.603 288.32 316.407 288.362Z" fill="#263238"/>
<path d="M313.458 287.355C313.217 287.785 313.005 288.231 312.823 288.689C312.645 289.036 312.534 289.415 312.498 289.804C312.498 289.882 312.601 289.897 312.647 289.85C312.906 289.539 313.115 289.189 313.267 288.813C313.479 288.403 313.696 287.999 313.897 287.578C314.036 287.272 313.618 287.075 313.458 287.355Z" fill="#263238"/>
<path d="M313.768 285.002C313.923 284.618 314.073 284.239 314.233 283.855C314.393 283.472 314.594 283.077 314.749 282.673C314.749 282.61 314.873 282.673 314.847 282.719C314.692 283.103 314.594 283.508 314.475 283.902C314.357 284.296 314.222 284.691 314.093 285.085C313.851 285.816 313.577 286.542 313.241 287.253C313.648 287.273 314.053 287.203 314.429 287.046C314.813 286.799 315.108 286.435 315.271 286.008C315.488 285.583 315.689 285.147 315.911 284.722C316.184 284.262 316.414 283.777 316.598 283.274C316.598 283.212 316.722 283.274 316.696 283.321C316.359 284.384 315.918 285.411 315.379 286.387C315.147 286.765 314.966 287.165 314.543 287.31C314.084 287.439 313.605 287.472 313.133 287.409C313.071 287.409 312.999 287.409 313.019 287.315C313.231 286.532 313.481 285.76 313.768 285.002Z" fill="#263238"/>
<path d="M312.715 289.846C313.598 291.718 314.372 293.586 315.193 295.453C316.014 297.321 316.742 299.126 317.481 300.983C318.958 304.728 320.28 308.546 321.442 312.395C322.015 314.304 322.547 316.228 323.022 318.168C323.545 320.102 323.928 322.072 324.168 324.061C324.375 326.047 324.2 328.055 323.652 329.975C323.082 331.872 322.351 333.717 321.467 335.489C320.925 336.609 320.744 336.459 321.003 335.893C321.741 334.285 323.678 329.414 323.538 325.322C323.425 323.362 323.124 321.418 322.64 319.517C322.189 317.556 321.681 315.611 321.116 313.681C320.016 309.874 318.71 306.144 317.367 302.42C316.613 300.345 315.818 298.27 315.043 296.195C314.269 294.12 313.494 292.211 312.627 289.918C312.601 289.825 312.689 289.789 312.715 289.846Z" fill="#263238"/>
<path d="M294.491 283.658C294.92 283.497 295.524 283.761 295.958 283.834C296.519 283.93 297.087 283.987 297.656 284.005C298.22 284.025 298.784 284.006 299.345 283.948C299.91 283.934 300.464 283.786 300.961 283.518C301.778 282.92 302.478 282.176 303.027 281.323C303.681 280.452 304.22 279.5 304.633 278.491C304.633 278.429 304.741 278.491 304.721 278.533C304.54 279.108 304.406 279.689 304.204 280.255C303.982 280.786 303.716 281.298 303.409 281.785C302.912 282.765 302.177 283.604 301.271 284.223C300.275 284.794 298.994 284.742 297.884 284.695C297.24 284.657 296.599 284.573 295.968 284.441C295.513 284.342 294.749 284.27 294.46 283.87C294.446 283.855 294.436 283.837 294.43 283.817C294.425 283.798 294.423 283.777 294.426 283.757C294.429 283.736 294.436 283.717 294.448 283.7C294.459 283.683 294.474 283.668 294.491 283.658Z" fill="#263238"/>
<path d="M277.135 367.759C281.08 361.756 284.953 355.704 288.754 349.603C292.555 343.503 296.304 337.356 300.001 331.163C300.884 329.684 301.901 328.211 302.469 326.572C303.089 324.793 302.738 323.065 302.18 321.322C301.127 318.143 299.896 315.025 298.493 311.985C297.109 308.92 295.617 305.906 294.15 302.882C292.684 299.857 291.15 296.869 290.019 293.716C288.986 290.702 288.568 287.579 289.374 284.456C290.179 281.334 291.914 278.574 293.727 275.975C294.202 275.29 294.693 274.611 295.173 273.9C295.209 273.848 295.286 273.9 295.25 273.962C293.252 276.67 291.305 279.539 290.133 282.719C289.534 284.286 289.199 285.943 289.141 287.621C289.132 289.324 289.395 291.017 289.921 292.637C290.892 295.791 292.426 298.773 293.856 301.74C295.286 304.707 296.815 307.778 298.225 310.834C299.679 313.909 300.972 317.058 302.098 320.269C302.578 321.696 303.13 323.19 303.089 324.72C303.053 326.396 302.258 327.905 301.431 329.316C297.817 335.463 294.114 341.537 290.345 347.575C286.575 353.613 282.697 359.651 278.772 365.627L277.285 367.883C277.208 367.977 277.073 367.868 277.135 367.759Z" fill="#263238"/>
<path d="M320.435 254.401C322.671 259.328 333.964 266.119 339.252 266.85C343.052 267.369 354.609 267.556 358.57 266.949C363.218 266.233 359.665 253.654 356.923 253.98C349.383 254.862 342.98 255.848 340.966 255.848C338.508 255.848 325.211 251.563 323.61 250.956C319.686 249.488 319.169 251.605 320.435 254.401Z" fill="#EB9481"/>
<path d="M320.507 255.713C323.337 259.92 332.74 266.798 332.74 266.798L334.047 263.893L338.369 254.286C338.369 254.286 329.73 251.563 324.044 250.318C323.375 250.165 322.695 250.068 322.01 250.028C318.379 249.83 318.064 252.082 320.507 255.713Z" fill="#4B9560"/>
<path d="M320.507 255.714C323.337 259.92 332.74 266.799 332.74 266.799L334.047 263.894C330.54 259.801 325.123 253.602 322.01 250.039C318.379 249.831 318.064 252.082 320.507 255.714Z" fill="#263238"/>
<path d="M331.046 264.849C331.764 263.08 334.956 255.958 335.751 254.474C335.802 254.371 335.885 254.381 335.839 254.474C334.454 258.016 332.879 261.48 331.119 264.849C331.098 264.911 331.015 264.89 331.046 264.849Z" fill="#263238"/>
<path d="M355.539 254.11C360.124 253.508 365.8 252.476 370.607 254.525C371.147 254.738 371.6 255.127 371.893 255.63C374.062 256.512 374.299 257.803 374.299 257.803C376.071 259.245 376.132 260.604 376.132 260.604C376.132 260.604 378.673 261.642 378.286 263.312C377.862 265.159 374.382 263.312 371.852 263.463C366.042 263.826 357.909 265.968 356.231 266.238L355.539 254.11Z" fill="#EB9481"/>
<path d="M365.5 259.546C367.199 259.43 368.903 259.43 370.602 259.546C372.452 259.779 374.282 260.152 376.076 260.662C376.087 260.666 376.1 260.665 376.111 260.66C376.122 260.654 376.131 260.645 376.135 260.633C376.139 260.621 376.138 260.608 376.133 260.597C376.128 260.586 376.118 260.577 376.107 260.573C372.736 259.245 369.067 258.872 365.5 259.494C365.417 259.484 365.417 259.551 365.5 259.546Z" fill="#263238"/>
<path d="M364.421 254.158C367.256 254.303 369.027 254.759 371.877 255.621V255.589C368.738 254.272 367.452 254.147 364.405 254.033C364.307 254.075 364.312 254.158 364.421 254.158Z" fill="#263238"/>
<path d="M364.88 264.346C364.142 264.693 364.323 265.082 365.732 265.409C367.142 265.736 373.003 265.834 372.797 267.889C372.59 269.943 364.323 269.683 362.014 268.957C359.706 268.231 356.231 266.239 356.231 266.239C357.868 265.964 361.71 264.921 364.88 264.346Z" fill="#EB9481"/>
<path d="M326.575 262.255C326.538 263.142 326.456 264.045 326.332 264.942C326.332 264.906 326.332 264.875 326.368 264.844C326.538 264.377 326.709 263.9 326.915 263.448C326.915 263.448 326.967 263.448 326.962 263.448C326.863 263.943 326.714 264.426 326.518 264.89C326.425 265.114 326.337 265.331 326.239 265.549C326.177 265.949 326.105 266.343 326.027 266.737C325.872 267.479 325.175 270.633 324.994 271.167C324.963 271.276 324.829 271.25 324.839 271.126C324.876 270.545 325.459 267.261 325.578 266.514C325.809 265.072 326.117 263.643 326.502 262.235C326.528 262.209 326.58 262.229 326.575 262.255Z" fill="#263238"/>
<path d="M321.204 285.841C319.825 286.551 318.049 287.656 310.045 286.074C309.528 285.97 309.043 285.846 308.537 285.695C301.034 283.434 292.012 274.569 291.522 273.941C291.522 273.941 303.445 254.525 318.694 248.42C320.579 247.667 323.698 249.12 325.407 250.93C326.022 251.579 327.359 256.346 326.848 260.205C326.337 264.064 322.577 285.13 321.204 285.841Z" fill="#4B9560"/>
<path d="M320.13 260.029C320.188 260.85 320.073 261.673 319.794 262.447C319.729 261.626 319.843 260.801 320.13 260.029Z" fill="white"/>
<path d="M314.93 273.252C314.963 273.66 314.949 274.071 314.889 274.476C314.839 274.884 314.74 275.285 314.594 275.669C314.559 275.259 314.572 274.846 314.635 274.44C314.688 274.034 314.787 273.635 314.93 273.252Z" fill="white"/>
<path d="M306.094 263.256C306.153 264.076 306.039 264.9 305.759 265.673C305.694 264.852 305.809 264.028 306.094 263.256Z" fill="white"/>
<path d="M323.533 272.578C323.566 272.988 323.552 273.401 323.492 273.808C323.442 274.216 323.343 274.616 323.197 275.001C323.162 274.591 323.175 274.178 323.238 273.771C323.291 273.363 323.389 272.963 323.533 272.578Z" fill="white"/>
<path d="M312.188 261.545C312.594 261.51 313.003 261.522 313.406 261.581C313.813 261.633 314.212 261.734 314.594 261.882C313.777 261.941 312.957 261.826 312.188 261.545Z" fill="white"/>
<path d="M302.159 271.095C302.976 271.037 303.796 271.152 304.566 271.432C303.749 271.498 302.927 271.382 302.159 271.095Z" fill="white"/>
<path d="M313.974 281.433C314.791 281.374 315.611 281.489 316.381 281.77C315.564 281.835 314.743 281.72 313.974 281.433Z" fill="white"/>
<path d="M299.066 277.677C299.883 277.619 300.703 277.734 301.473 278.014C300.656 278.079 299.834 277.964 299.066 277.677Z" fill="white"/>
<path d="M320.052 250.733C320.869 250.675 321.689 250.79 322.459 251.07C321.642 251.128 320.822 251.013 320.052 250.733Z" fill="white"/>
<path d="M317.135 254.043C316.874 254.358 316.576 254.64 316.247 254.883C315.927 255.132 315.58 255.344 315.214 255.516C315.473 255.203 315.768 254.921 316.092 254.676C316.415 254.426 316.765 254.214 317.135 254.043Z" fill="white"/>
<path d="M301.235 263.447C300.971 263.76 300.671 264.04 300.342 264.282C300.025 264.536 299.678 264.748 299.309 264.915C299.575 264.604 299.874 264.324 300.202 264.08C300.52 263.828 300.867 263.615 301.235 263.447Z" fill="white"/>
<path d="M321.09 267.691C320.826 268.006 320.526 268.288 320.197 268.532C319.879 268.784 319.533 268.996 319.164 269.165C319.428 268.85 319.728 268.568 320.057 268.324C320.377 268.075 320.723 267.862 321.09 267.691Z" fill="white"/>
<path d="M308.232 275.824C307.968 276.138 307.668 276.42 307.339 276.665C307.021 276.916 306.674 277.128 306.306 277.297C306.57 276.983 306.87 276.701 307.2 276.457C307.519 276.207 307.865 275.995 308.232 275.824Z" fill="white"/>
<path d="M326.017 256.58C325.753 256.894 325.453 257.176 325.123 257.42C324.803 257.669 324.457 257.881 324.091 258.053C324.355 257.739 324.655 257.457 324.984 257.213C325.302 256.961 325.649 256.749 326.017 256.58Z" fill="white"/>
<path d="M325.748 266.005C325.436 265.74 325.155 265.439 324.912 265.108C324.66 264.789 324.449 264.441 324.282 264.07C324.596 264.333 324.876 264.632 325.118 264.963C325.365 265.286 325.576 265.636 325.748 266.005Z" fill="white"/>
<path d="M297.088 272.499C296.776 272.234 296.495 271.933 296.252 271.602C296.003 271.281 295.792 270.933 295.622 270.564C295.935 270.83 296.215 271.131 296.458 271.462C296.709 271.781 296.92 272.13 297.088 272.499Z" fill="white"/>
<path d="M322.262 280.223C321.949 279.96 321.668 279.661 321.426 279.33C321.178 279.009 320.967 278.661 320.796 278.293C321.109 278.558 321.389 278.86 321.632 279.19C321.882 279.509 322.093 279.855 322.262 280.223Z" fill="white"/>
<path d="M309.647 258.203C309.335 257.94 309.054 257.64 308.811 257.311C308.564 256.989 308.353 256.641 308.181 256.273C308.494 256.536 308.775 256.835 309.017 257.166C309.264 257.488 309.475 257.836 309.647 258.203Z" fill="white"/>
<path d="M309.869 284.622C309.556 284.357 309.276 284.056 309.033 283.725C308.785 283.404 308.574 283.056 308.403 282.688C308.716 282.95 308.997 283.249 309.239 283.58C309.488 283.902 309.699 284.252 309.869 284.622Z" fill="white"/>
<path d="M312.012 269.04C311.702 268.773 311.424 268.472 311.181 268.143C310.929 267.825 310.717 267.476 310.551 267.105C310.862 267.371 311.141 267.672 311.382 268.003C311.633 268.322 311.845 268.67 312.012 269.04Z" fill="white"/>
<path d="M322.614 256.103C320.667 255.739 318.839 251.699 318.606 248.98C318.606 248.794 319.515 247.315 320.553 245.463C321.183 244.338 321.849 243.067 322.381 241.863C322.49 241.62 323.125 242.444 323.125 242.444L324.509 243.482L329.079 247.004C327.991 248.316 327.066 249.757 326.326 251.294C326.253 251.461 326.198 251.634 326.161 251.813C326.159 251.842 326.159 251.871 326.161 251.901C325.877 252.928 324.488 256.45 322.614 256.103Z" fill="#EB9481"/>
<path d="M326.161 251.839C326.159 251.869 326.159 251.898 326.161 251.927C325.89 251.847 325.626 251.745 325.371 251.621C320.367 249.266 322.572 242.533 322.572 242.533L324.535 243.508L329.105 247.031C328.016 248.342 327.092 249.783 326.352 251.32C326.27 251.486 326.206 251.66 326.161 251.839Z" fill="#263238"/>
<path d="M334.331 232.672C334.331 232.672 336.618 234.13 336.629 236.723C336.639 239.317 335.596 241.853 335.379 241.947C335.162 242.04 334.331 232.672 334.331 232.672Z" fill="#263238"/>
<path d="M322.98 234.021C321.607 236.744 321.679 245.329 323.393 247.539C325.882 250.745 330.675 251.85 333.572 248.68C336.376 245.61 336.086 234.426 334.088 232.34C331.181 229.259 325.015 229.991 322.98 234.021Z" fill="#EB9481"/>
<path d="M330.272 240.893C330.272 240.893 330.225 240.924 330.231 240.944C330.261 241.531 330.2 242.205 329.678 242.412C329.678 242.412 329.678 242.449 329.678 242.444C330.323 242.34 330.396 241.442 330.272 240.893Z" fill="#263238"/>
<path d="M329.74 240.296C328.8 240.244 328.769 242.132 329.642 242.179C330.514 242.226 330.525 240.337 329.74 240.296Z" fill="#263238"/>
<path d="M333.458 240.873C333.458 240.873 333.504 240.873 333.504 240.925C333.473 241.511 333.54 242.185 334.067 242.388C334.067 242.388 334.067 242.424 334.067 242.419C333.416 242.32 333.339 241.423 333.458 240.873Z" fill="#263238"/>
<path d="M333.99 240.271C334.924 240.214 334.971 242.102 334.103 242.154C333.236 242.206 333.205 240.317 333.99 240.271Z" fill="#263238"/>
<path d="M329.151 238.861C329.398 238.79 329.641 238.707 329.879 238.612C330.151 238.563 330.398 238.424 330.582 238.218C330.626 238.142 330.645 238.054 330.635 237.967C330.624 237.88 330.586 237.798 330.525 237.735C330.385 237.629 330.22 237.561 330.045 237.54C329.871 237.519 329.694 237.545 329.533 237.616C329.185 237.71 328.883 237.93 328.687 238.233C328.647 238.305 328.629 238.388 328.635 238.47C328.641 238.552 328.67 238.631 328.719 238.697C328.768 238.763 328.834 238.813 328.911 238.842C328.988 238.871 329.071 238.878 329.151 238.861Z" fill="#263238"/>
<path d="M334.63 239.695C334.379 239.639 334.131 239.569 333.887 239.488C333.614 239.451 333.362 239.326 333.169 239.13C333.119 239.058 333.095 238.971 333.101 238.883C333.106 238.796 333.141 238.712 333.2 238.647C333.333 238.533 333.494 238.457 333.667 238.427C333.84 238.396 334.017 238.414 334.181 238.476C334.534 238.55 334.847 238.753 335.059 239.047C335.103 239.116 335.126 239.197 335.126 239.28C335.125 239.362 335.1 239.443 335.055 239.511C335.009 239.58 334.945 239.634 334.87 239.667C334.794 239.699 334.711 239.709 334.63 239.695Z" fill="#263238"/>
<path d="M328.95 246.439C329.089 246.579 329.223 246.766 329.435 246.786C329.652 246.786 329.867 246.74 330.065 246.652C330.065 246.652 330.101 246.652 330.065 246.683C329.98 246.797 329.867 246.885 329.736 246.939C329.605 246.993 329.461 247.01 329.321 246.989C329.204 246.956 329.098 246.89 329.017 246.798C328.936 246.706 328.884 246.592 328.867 246.47C328.863 246.459 328.863 246.447 328.868 246.436C328.873 246.425 328.882 246.417 328.893 246.413C328.904 246.409 328.916 246.409 328.927 246.414C328.937 246.419 328.946 246.428 328.95 246.439Z" fill="#263238"/>
<path d="M332.327 243.938C332.327 243.938 332.353 244.81 332.327 245.219C331.534 245.135 330.732 245.163 329.947 245.302C329.761 245.344 329.781 245.193 329.993 245.095C330.626 244.804 331.331 244.71 332.017 244.825C332.059 244.716 331.95 243.476 332.017 243.482C332.33 243.543 332.632 243.648 332.916 243.793C332.916 241.967 332.627 240.162 332.652 238.336C332.652 238.274 332.751 238.263 332.761 238.336C333.128 240.267 333.301 242.231 333.277 244.197C333.282 244.421 332.482 244.021 332.327 243.938Z" fill="#263238"/>
<path d="M331.165 244.908C330.959 245.452 330.577 245.911 330.081 246.21C329.301 246.526 329.048 245.816 329.833 245.173C330.244 244.964 330.705 244.872 331.165 244.908Z" fill="#263238"/>
<path d="M330.354 246.049C330.272 246.117 330.18 246.171 330.081 246.21C329.363 246.501 329.079 245.925 329.657 245.344C330.05 245.375 330.499 245.52 330.354 246.049Z" fill="#FF99BA"/>
<path d="M322.588 241.36C323.533 241.651 324.617 238.798 324.927 237.729C325.196 236.764 325.505 233.699 325.552 233.486C325.598 233.273 329.683 236.199 332.048 235.504C334.413 234.809 336.019 232.656 336.055 231.655C336.091 230.654 333.132 228.112 330.576 227.982C328.02 227.853 324.555 231.095 324.555 231.095C324.974 230.618 325.354 230.108 325.691 229.57C325.65 229.455 323.998 230.119 323.693 231.302C323.693 231.302 324.023 229.813 323.899 229.787C323.775 229.762 322.49 231.032 322.779 231.997C322.779 231.997 321.292 233.289 321.157 234.705C321.023 236.121 321.478 241.018 322.588 241.36Z" fill="#263238"/>
<path d="M333.742 234.965C333.039 235.348 332.281 235.621 331.496 235.774C330.614 235.853 329.727 235.711 328.914 235.359C328.095 235.041 327.334 234.589 326.662 234.021C326.068 233.533 325.537 232.937 324.901 232.501C324.741 232.387 324.561 232.62 324.659 232.766C325.718 234.269 327.232 235.39 328.976 235.961C329.785 236.226 330.65 236.276 331.484 236.105C332.319 235.934 333.095 235.548 333.737 234.986C333.737 234.986 333.752 234.965 333.742 234.965Z" fill="#263238"/>
<path d="M323.574 241.107C323.574 241.107 322.108 238.119 320.786 238.602C319.464 239.084 320.269 243.218 321.627 243.976C321.794 244.084 321.98 244.157 322.175 244.191C322.371 244.225 322.571 244.219 322.763 244.173C322.956 244.128 323.138 244.044 323.298 243.926C323.457 243.808 323.592 243.659 323.693 243.488L323.574 241.107Z" fill="#EB9481"/>
<path d="M321.049 239.777C321.049 239.777 321.018 239.777 321.049 239.819C321.989 240.379 322.371 241.375 322.598 242.412C322.555 242.303 322.489 242.203 322.405 242.122C322.32 242.04 322.219 241.978 322.108 241.939C321.997 241.901 321.879 241.887 321.762 241.899C321.645 241.911 321.532 241.948 321.431 242.008C321.4 242.008 321.431 242.065 321.431 242.065C321.616 242.036 321.805 242.065 321.972 242.149C322.14 242.233 322.277 242.366 322.366 242.532C322.514 242.809 322.631 243.101 322.717 243.403C322.748 243.502 322.918 243.476 322.903 243.367C323.125 242.075 322.402 240.12 321.049 239.777Z" fill="#263238"/>
<path d="M313.892 254.447C312.859 260.324 319.2 280.124 323.264 283.823C329.311 289.321 340.491 292.937 344.545 294.114C346.311 294.633 351.196 282.147 349.409 281.322C345.583 279.574 333.695 275.839 332.565 274.906C331.434 273.972 324.617 264.08 321.581 258.384C317.517 250.717 314.403 251.475 313.892 254.447Z" fill="#EB9481"/>
<path d="M346.399 280.223C346.399 280.223 351.676 281.577 355.079 282.619C356.979 283.205 360.15 284.497 361.353 285.566C363.15 287.168 369.646 295.012 367.787 296.635C366.104 298.108 361.374 290.654 361.374 290.654C361.374 290.654 366.806 297.751 364.472 299.146C362.138 300.541 357.868 291.406 357.868 291.406C357.868 291.406 363.285 298.824 360.635 299.877C358.632 300.671 354.335 292.615 354.335 292.615C354.335 292.615 358.952 299.021 356.917 299.929C354.676 300.936 350.251 293.746 350.251 293.746C344.715 295.183 341.472 293.59 339.34 292.19C338.839 291.847 346.399 280.223 346.399 280.223Z" fill="#EB9481"/>
<path d="M359.649 288.077C360.321 288.886 361.002 289.706 361.596 290.572C362.19 291.438 362.753 292.331 363.264 293.249C363.957 294.436 364.511 295.7 364.916 297.015C364.028 294.732 361.947 291.594 361.353 290.728C360.759 289.861 360.207 288.964 359.618 288.098C359.603 288.077 359.634 288.056 359.649 288.077Z" fill="#263238"/>
<path d="M356.494 290.178C357.64 291.091 360.042 294.484 360.966 296.761C361.007 296.854 360.966 296.849 360.899 296.761C360.176 295.635 357.243 291.278 356.468 290.194C356.453 290.178 356.478 290.163 356.494 290.178Z" fill="#263238"/>
<path d="M353.463 291.506C354.887 293.006 356.013 294.767 356.778 296.693C356.814 296.786 356.742 296.771 356.685 296.693C355.616 294.945 354.79 293.581 353.406 291.552C353.385 291.506 353.432 291.459 353.463 291.506Z" fill="#263238"/>
<path d="M319.655 254.879C314.94 248.182 312.121 250.662 313.066 257.934C313.954 264.735 316.324 272.838 316.324 272.838L328.201 267.049C328.201 267.049 322.655 259.169 319.655 254.879Z" fill="#4B9560"/>
<path d="M322.521 257.514C322.677 257.892 322.79 258.287 322.856 258.691C322.929 259.097 322.955 259.509 322.934 259.921C322.779 259.54 322.668 259.144 322.603 258.738C322.527 258.335 322.499 257.924 322.521 257.514Z" fill="white"/>
<path d="M315.482 261.585C316.24 261.275 317.056 261.133 317.873 261.17C317.497 261.325 317.103 261.437 316.701 261.502C316.3 261.579 315.89 261.606 315.482 261.585Z" fill="white"/>
<path d="M315.787 251.17C315.467 251.928 314.99 252.609 314.388 253.167C314.707 252.409 315.185 251.728 315.787 251.17Z" fill="white"/>
<path d="M325.852 264.713C325.695 265.092 325.496 265.453 325.258 265.787C325.026 266.125 324.756 266.435 324.452 266.71C324.772 265.952 325.249 265.271 325.852 264.713Z" fill="white"/>
<path d="M317.589 268.775C317.211 268.619 316.852 268.419 316.52 268.178C316.183 267.946 315.875 267.674 315.601 267.369C315.978 267.527 316.337 267.728 316.67 267.966C317.007 268.198 317.315 268.47 317.589 268.775Z" fill="white"/>
<path d="M321.204 256.896C321.839 257.773 322.495 258.629 323.146 259.49C322.98 259.054 322.836 258.613 322.712 258.167H322.743C322.872 258.51 323.022 258.847 323.146 259.205L323.331 259.724C323.347 259.759 323.361 259.795 323.373 259.832C323.889 260.502 324.405 261.171 324.881 261.856C325.464 262.675 326.027 263.505 326.595 264.335C327.163 265.165 327.736 266.197 328.351 267.032C328.408 267.105 327.318 267.551 327.199 267.608C327.08 267.665 327.018 267.567 327.132 267.53C327.246 267.494 328.113 266.96 328.124 266.949C327.555 266.109 326.9 265.336 326.306 264.522C325.712 263.707 325.123 262.893 324.55 262.068C323.388 260.388 322.324 258.645 321.168 256.959L321.204 256.896Z" fill="#263238"/>
<path d="M313.344 262.748C313.525 263.1 313.721 263.448 313.861 263.811L314.057 264.262C313.783 262.971 313.541 261.669 313.257 260.377C313.804 262.452 314.357 264.573 314.863 266.68C315.343 268.692 315.926 270.726 316.205 272.78C316.565 272.621 316.938 272.494 317.321 272.401C316.937 272.65 316.524 272.851 316.092 272.998C315.469 270.909 314.952 268.79 314.542 266.648C314.413 266.067 314.295 265.486 314.171 264.905C314.036 264.553 313.876 264.216 313.716 263.868C313.556 263.52 313.412 263.131 313.267 262.763C313.298 262.742 313.334 262.722 313.344 262.748Z" fill="#263238"/>
<path d="M316.5 270.835C318.152 269.901 325.056 266.312 326.6 265.648C326.709 265.601 326.765 265.648 326.657 265.72C323.38 267.633 320.001 269.365 316.536 270.908C316.494 270.918 316.453 270.861 316.5 270.835Z" fill="#263238"/>
<path d="M505.721 407.208H348.387L371.134 277.604H528.468L505.721 407.208Z" fill="#4B9560"/>
<path d="M424.983 264.18H373.494L371.134 277.604H426.243L424.983 264.18Z" fill="#4B9560"/>
<g opacity="0.1">
<path d="M505.721 407.208H348.387L371.134 277.604H528.468L505.721 407.208Z" fill="black"/>
<path d="M424.983 264.18H373.494L371.134 277.604H426.243L424.983 264.18Z" fill="black"/>
</g>
<path d="M367.937 269.657C367.593 268.173 367.593 266.629 367.937 265.145C368.281 266.629 368.281 268.173 367.937 269.657Z" fill="#263238"/>
<path d="M363.362 270.985C362.836 270.437 362.383 269.823 362.014 269.159C361.627 268.508 361.324 267.811 361.111 267.084C361.638 267.628 362.091 268.241 362.458 268.905C362.845 269.558 363.148 270.256 363.362 270.985Z" fill="#263238"/>
<path d="M360.057 274.434C358.606 273.991 357.276 273.219 356.169 272.178C356.893 272.389 357.587 272.692 358.234 273.08C358.896 273.453 359.508 273.908 360.057 274.434Z" fill="#263238"/>
<path d="M358.9 279.084C357.423 279.429 355.885 279.429 354.408 279.084C355.885 278.738 357.423 278.738 358.9 279.084Z" fill="#263238"/>
<path d="M360.243 283.68C359.696 284.205 359.085 284.66 358.425 285.034C357.778 285.421 357.084 285.725 356.36 285.936C356.905 285.408 357.516 284.953 358.178 284.582C358.824 284.193 359.518 283.889 360.243 283.68Z" fill="#263238"/>
<path d="M363.672 286.994C363.232 288.454 362.464 289.792 361.426 290.905C361.636 290.177 361.94 289.48 362.329 288.83C362.697 288.164 363.148 287.546 363.672 286.994Z" fill="#263238"/>
<path d="M368.299 288.141C368.479 288.879 368.565 289.637 368.557 290.397C368.568 291.157 368.481 291.916 368.299 292.654C368.114 291.916 368.027 291.157 368.04 290.397C368.032 289.637 368.119 288.879 368.299 288.141Z" fill="#263238"/>
<path d="M372.874 286.839C373.4 287.386 373.853 288 374.222 288.664C374.61 289.314 374.912 290.011 375.12 290.739C374.082 289.626 373.314 288.288 372.874 286.828V286.839Z" fill="#263238"/>
<path d="M376.174 283.363C376.898 283.573 377.593 283.876 378.239 284.266C378.901 284.636 379.512 285.092 380.057 285.62C379.332 285.41 378.638 285.107 377.991 284.717C377.33 284.347 376.719 283.891 376.174 283.363Z" fill="#263238"/>
<path d="M377.315 278.714C378.794 278.369 380.333 278.369 381.813 278.714C380.333 279.06 378.794 279.06 377.315 278.714Z" fill="#263238"/>
<path d="M375.993 274.118C376.54 273.593 377.15 273.14 377.811 272.769C378.456 272.376 379.151 272.07 379.876 271.861C378.768 272.904 377.436 273.676 375.983 274.118H375.993Z" fill="#263238"/>
<path d="M372.559 270.803C372.771 270.077 373.073 269.38 373.457 268.728C373.826 268.064 374.279 267.45 374.805 266.902C374.597 267.63 374.295 268.328 373.907 268.977C373.538 269.642 373.085 270.255 372.559 270.803Z" fill="#263238"/>
<path d="M505.488 407.208H347.814L325.428 282.309H483.103L505.488 407.208Z" fill="#4B9560"/>
<path d="M380.067 358.658C383.686 358.658 386.62 355.71 386.62 352.075C386.62 348.439 383.686 345.492 380.067 345.492C376.448 345.492 373.514 348.439 373.514 352.075C373.514 355.71 376.448 358.658 380.067 358.658Z" fill="white"/>
<path d="M431.871 358.658C435.49 358.658 438.424 355.71 438.424 352.075C438.424 348.439 435.49 345.492 431.871 345.492C428.252 345.492 425.318 348.439 425.318 352.075C425.318 355.71 428.252 358.658 431.871 358.658Z" fill="white"/>
<path d="M415.383 359.713L415.022 359.023C414.991 358.96 411.603 352.673 404.792 352.673C398.595 352.673 397.046 358.592 397.005 358.846L396.819 359.598L395.316 359.235L395.497 358.478C395.497 358.405 397.346 351.117 404.792 351.117C412.538 351.117 416.24 358.006 416.395 358.302L416.757 358.986L415.383 359.713Z" fill="white"/>
<path d="M495.026 351.319C495.362 351.247 495.698 351.169 496.028 351.086" stroke="#263238" stroke-miterlimit="10"/>
<path d="M498.011 350.495C505.912 347.813 512.527 341.573 513.146 334.279C514.52 318.199 495.026 309.318 497.04 290.737C498.961 273.012 517.469 271.746 524.889 274.195C533.084 276.903 530.275 284.813 522.855 283.791C509.991 282.022 501.905 267.975 508.013 252.04C512.578 240.135 523.96 235.643 528.581 234.273" stroke="#263238" stroke-miterlimit="10" stroke-dasharray="4 4"/>
<path d="M529.578 233.999C530.213 233.833 530.58 233.766 530.58 233.766" stroke="#263238" stroke-miterlimit="10"/>
<path d="M538.77 230.897C537.453 226.799 528.633 228.273 530.353 233.631C532.072 238.99 540.087 235.001 538.77 230.897Z" fill="#263238"/>
<path d="M525.556 229.258C525.623 227.458 528.112 226.073 531.634 226.711C535.155 227.349 538.465 229.735 538.465 229.735C538.465 229.735 534.99 231.851 531.432 232.24C527.874 232.629 525.488 231.052 525.556 229.258Z" fill="#EBEBEB"/>
<path d="M538.465 229.725C536.637 229.725 534.814 229.673 532.991 229.616C531.168 229.559 529.34 229.466 527.518 229.32C529.346 229.32 531.174 229.367 532.996 229.424C534.819 229.481 536.647 229.574 538.465 229.725Z" fill="#263238"/>
<path d="M529.093 227.654C530.13 228.153 531.109 228.767 532.01 229.485C531.491 229.241 530.987 228.963 530.503 228.655C530.014 228.35 529.543 228.015 529.093 227.654Z" fill="#263238"/>
<path d="M533.88 229.553C532.946 230.313 531.933 230.971 530.859 231.514C531.798 230.752 532.816 230.095 533.895 229.553H533.88Z" fill="#263238"/>
<path d="M534.412 228.541C534.933 228.792 535.389 229.162 535.744 229.62C535.483 229.496 535.239 229.341 535.016 229.158C534.792 228.976 534.589 228.769 534.412 228.541Z" fill="#263238"/>
<path d="M528.912 239.918C530.012 241.339 532.837 240.997 535.321 238.414C537.804 235.831 539.121 231.945 539.121 231.945C539.121 231.945 535.052 232.257 531.948 234.02C528.845 235.784 527.807 238.492 528.912 239.918Z" fill="#EBEBEB"/>
<path d="M539.121 231.945C537.634 232.983 536.188 234.134 534.737 235.25C533.286 236.365 531.866 237.516 530.477 238.704C531.964 237.667 533.41 236.521 534.856 235.405C536.301 234.29 537.711 233.138 539.121 231.945Z" fill="#263238"/>
<path d="M532.708 239.113C532.984 238.609 533.23 238.09 533.446 237.557C533.666 237.023 533.852 236.476 534.004 235.918C533.727 236.421 533.48 236.941 533.265 237.474C533.048 238.009 532.861 238.556 532.708 239.113Z" fill="#263238"/>
<path d="M535.506 234.776C534.298 234.712 533.086 234.776 531.892 234.968C532.494 235.005 533.097 235.005 533.699 234.968C534.305 234.939 534.908 234.875 535.506 234.776Z" fill="#263238"/>
<path d="M536.503 235.29C536.641 235.034 536.748 234.762 536.823 234.481C536.9 234.202 536.945 233.914 536.957 233.625C536.683 234.139 536.527 234.708 536.503 235.29Z" fill="#263238"/>
<path d="M538.77 230.898C538.478 230.993 538.165 230.999 537.87 230.915C537.575 230.831 537.311 230.661 537.112 230.427C536.913 230.193 536.788 229.904 536.753 229.598C536.717 229.292 536.773 228.983 536.912 228.708C537.052 228.434 537.27 228.208 537.538 228.058C537.805 227.908 538.112 227.841 538.417 227.866C538.723 227.891 539.014 228.007 539.254 228.199C539.495 228.39 539.673 228.649 539.766 228.942C539.892 229.334 539.857 229.76 539.67 230.127C539.484 230.493 539.16 230.77 538.77 230.898Z" fill="#455A64"/>
<path d="M539.72 233.859C539.428 233.954 539.116 233.96 538.821 233.876C538.526 233.792 538.263 233.622 538.064 233.388C537.865 233.154 537.74 232.866 537.704 232.56C537.669 232.254 537.724 231.945 537.863 231.671C538.003 231.397 538.22 231.17 538.487 231.02C538.754 230.87 539.06 230.803 539.366 230.827C539.671 230.851 539.962 230.966 540.203 231.157C540.443 231.348 540.622 231.606 540.717 231.898C540.779 232.093 540.803 232.298 540.787 232.502C540.771 232.705 540.715 232.904 540.623 233.086C540.53 233.268 540.403 233.43 540.248 233.563C540.093 233.695 539.914 233.796 539.72 233.859Z" fill="#455A64"/>
<path d="M370.421 232.536C370.174 234.918 369.272 237.185 367.817 239.083C366.362 240.98 364.41 242.435 362.18 243.283C359.95 244.132 357.529 244.341 355.187 243.887C352.845 243.434 350.675 242.336 348.919 240.716L342.479 241.665L345.702 236.073C344.965 234.254 344.65 232.29 344.782 230.33C344.914 228.37 345.489 226.466 346.463 224.763C347.437 223.06 348.785 221.602 350.404 220.5C352.023 219.398 353.87 218.682 355.806 218.405C357.742 218.128 359.716 218.297 361.576 218.901C363.437 219.505 365.137 220.527 366.545 221.889C367.954 223.251 369.036 224.918 369.707 226.763C370.379 228.607 370.623 230.582 370.421 232.536Z" fill="white"/>
<path d="M370.421 232.536C370.179 234.917 369.285 237.185 367.839 239.087C367.133 240.05 366.281 240.895 365.314 241.593C364.369 242.317 363.325 242.902 362.216 243.331C361.105 243.77 359.939 244.049 358.751 244.161C358.157 244.214 357.56 244.226 356.964 244.197C356.366 244.182 355.771 244.119 355.182 244.01C352.809 243.572 350.605 242.478 348.815 240.851L348.965 240.898L342.536 241.889L342.066 241.961L342.304 241.546L345.505 235.944V236.167C344.75 234.314 344.429 232.311 344.567 230.313C344.704 228.316 345.298 226.377 346.301 224.646C347.302 222.921 348.679 221.445 350.328 220.33C351.975 219.23 353.848 218.518 355.808 218.249C357.767 217.979 359.762 218.159 361.643 218.774C363.503 219.41 365.199 220.456 366.605 221.835C368.008 223.21 369.081 224.889 369.743 226.743C370.404 228.597 370.636 230.578 370.421 232.536ZM370.421 232.536C370.63 230.588 370.39 228.618 369.72 226.777C369.051 224.937 367.969 223.276 366.558 221.923C365.148 220.569 363.447 219.559 361.587 218.971C359.726 218.383 357.756 218.232 355.828 218.53C353.92 218.814 352.102 219.535 350.514 220.636C348.941 221.747 347.626 223.187 346.662 224.859C345.713 226.534 345.153 228.403 345.025 230.326C344.899 232.262 345.21 234.202 345.934 236.001L345.98 236.115L345.918 236.224L342.675 241.806L342.448 241.463L348.893 240.555H348.981L349.043 240.613C350.765 242.223 352.9 243.321 355.208 243.782C355.783 243.9 356.367 243.971 356.954 243.995C357.54 244.036 358.128 244.036 358.715 243.995C359.89 243.899 361.047 243.643 362.154 243.232C363.263 242.827 364.306 242.26 365.252 241.551C366.215 240.859 367.068 240.025 367.782 239.077C369.247 237.184 370.161 234.919 370.421 232.536Z" fill="#263238"/>
<path d="M351.33 237.221C351.32 237.049 351.346 236.877 351.405 236.715C351.464 236.554 351.555 236.406 351.673 236.282C351.791 236.157 351.934 236.058 352.091 235.992C352.249 235.925 352.419 235.891 352.59 235.893C352.941 235.893 353.277 236.033 353.525 236.282C353.773 236.531 353.912 236.868 353.912 237.221C353.912 237.573 353.773 237.911 353.525 238.16C353.277 238.409 352.941 238.549 352.59 238.549C352.419 238.55 352.249 238.517 352.091 238.45C351.934 238.383 351.791 238.284 351.673 238.159C351.555 238.035 351.464 237.887 351.405 237.726C351.346 237.564 351.32 237.392 351.33 237.221ZM351.847 234.155L351.547 223.863H353.613L353.313 234.155H351.847Z" fill="#4B9560"/>
<path d="M356.241 237.221C356.231 237.049 356.256 236.878 356.315 236.717C356.374 236.555 356.465 236.408 356.582 236.284C356.7 236.159 356.842 236.06 356.999 235.993C357.156 235.926 357.325 235.892 357.496 235.893C357.847 235.893 358.183 236.033 358.431 236.282C358.679 236.531 358.818 236.868 358.818 237.221C358.818 237.573 358.679 237.911 358.431 238.16C358.183 238.409 357.847 238.549 357.496 238.549C357.325 238.55 357.156 238.515 356.999 238.448C356.842 238.381 356.7 238.282 356.582 238.157C356.465 238.033 356.374 237.886 356.315 237.725C356.256 237.563 356.231 237.392 356.241 237.221ZM356.757 234.155L356.473 223.863H358.539L358.24 234.155H356.757Z" fill="#4B9560"/>
<path d="M361.147 237.221C361.137 237.049 361.162 236.877 361.221 236.715C361.28 236.554 361.372 236.406 361.49 236.282C361.608 236.157 361.75 236.058 361.908 235.992C362.066 235.925 362.236 235.891 362.407 235.893C362.757 235.893 363.094 236.033 363.342 236.282C363.59 236.531 363.729 236.868 363.729 237.221C363.729 237.573 363.59 237.911 363.342 238.16C363.094 238.409 362.757 238.549 362.407 238.549C362.236 238.55 362.066 238.517 361.908 238.45C361.75 238.383 361.608 238.284 361.49 238.159C361.372 238.035 361.28 237.887 361.221 237.726C361.162 237.564 361.137 237.392 361.147 237.221ZM361.663 234.155L361.364 223.863H363.429L363.135 234.155H361.663Z" fill="#4B9560"/>
</g>
<path d="M300.116 487.545V505H296.929L289.335 494.014H289.207V505H285.517V487.545H288.756L296.29 498.523H296.443V487.545H300.116ZM309.012 505.256C307.688 505.256 306.543 504.974 305.577 504.412C304.617 503.844 303.876 503.054 303.353 502.043C302.83 501.026 302.569 499.847 302.569 498.506C302.569 497.153 302.83 495.972 303.353 494.96C303.876 493.943 304.617 493.153 305.577 492.591C306.543 492.023 307.688 491.739 309.012 491.739C310.336 491.739 311.478 492.023 312.438 492.591C313.404 493.153 314.148 493.943 314.671 494.96C315.194 495.972 315.455 497.153 315.455 498.506C315.455 499.847 315.194 501.026 314.671 502.043C314.148 503.054 313.404 503.844 312.438 504.412C311.478 504.974 310.336 505.256 309.012 505.256ZM309.029 502.443C309.631 502.443 310.134 502.273 310.538 501.932C310.941 501.585 311.245 501.114 311.45 500.517C311.66 499.92 311.765 499.241 311.765 498.48C311.765 497.719 311.66 497.04 311.45 496.443C311.245 495.847 310.941 495.375 310.538 495.028C310.134 494.682 309.631 494.509 309.029 494.509C308.421 494.509 307.91 494.682 307.495 495.028C307.086 495.375 306.776 495.847 306.566 496.443C306.362 497.04 306.259 497.719 306.259 498.48C306.259 499.241 306.362 499.92 306.566 500.517C306.776 501.114 307.086 501.585 307.495 501.932C307.91 502.273 308.421 502.443 309.029 502.443ZM329.626 505H323.439V487.545H329.678C331.433 487.545 332.945 487.895 334.212 488.594C335.479 489.287 336.453 490.284 337.135 491.585C337.822 492.886 338.166 494.443 338.166 496.256C338.166 498.074 337.822 499.636 337.135 500.943C336.453 502.25 335.473 503.253 334.195 503.952C332.922 504.651 331.399 505 329.626 505ZM327.129 501.838H329.473C330.564 501.838 331.482 501.645 332.226 501.259C332.976 500.866 333.538 500.261 333.913 499.443C334.294 498.619 334.484 497.557 334.484 496.256C334.484 494.966 334.294 493.912 333.913 493.094C333.538 492.276 332.979 491.673 332.234 491.287C331.49 490.901 330.572 490.707 329.482 490.707H327.129V501.838ZM346.746 505.256C345.423 505.256 344.278 504.974 343.312 504.412C342.352 503.844 341.61 503.054 341.087 502.043C340.565 501.026 340.303 499.847 340.303 498.506C340.303 497.153 340.565 495.972 341.087 494.96C341.61 493.943 342.352 493.153 343.312 492.591C344.278 492.023 345.423 491.739 346.746 491.739C348.07 491.739 349.212 492.023 350.173 492.591C351.138 493.153 351.883 493.943 352.406 494.96C352.928 495.972 353.19 497.153 353.19 498.506C353.19 499.847 352.928 501.026 352.406 502.043C351.883 503.054 351.138 503.844 350.173 504.412C349.212 504.974 348.07 505.256 346.746 505.256ZM346.763 502.443C347.366 502.443 347.869 502.273 348.272 501.932C348.675 501.585 348.979 501.114 349.184 500.517C349.394 499.92 349.499 499.241 349.499 498.48C349.499 497.719 349.394 497.04 349.184 496.443C348.979 495.847 348.675 495.375 348.272 495.028C347.869 494.682 347.366 494.509 346.763 494.509C346.156 494.509 345.644 494.682 345.229 495.028C344.82 495.375 344.511 495.847 344.3 496.443C344.096 497.04 343.994 497.719 343.994 498.48C343.994 499.241 344.096 499.92 344.3 500.517C344.511 501.114 344.82 501.585 345.229 501.932C345.644 502.273 346.156 502.443 346.763 502.443ZM361.465 505.256C360.124 505.256 358.971 504.972 358.005 504.403C357.045 503.83 356.306 503.034 355.789 502.017C355.278 501 355.022 499.83 355.022 498.506C355.022 497.165 355.281 495.989 355.798 494.977C356.32 493.96 357.062 493.168 358.022 492.599C358.982 492.026 360.124 491.739 361.448 491.739C362.59 491.739 363.59 491.946 364.448 492.361C365.306 492.776 365.985 493.358 366.485 494.108C366.985 494.858 367.261 495.739 367.312 496.75H363.886C363.789 496.097 363.533 495.571 363.119 495.173C362.71 494.77 362.173 494.568 361.508 494.568C360.945 494.568 360.454 494.722 360.033 495.028C359.619 495.33 359.295 495.77 359.062 496.349C358.829 496.929 358.712 497.631 358.712 498.455C358.712 499.29 358.826 500 359.053 500.585C359.286 501.17 359.613 501.616 360.033 501.923C360.454 502.23 360.945 502.384 361.508 502.384C361.923 502.384 362.295 502.298 362.624 502.128C362.96 501.957 363.235 501.71 363.451 501.386C363.673 501.057 363.817 500.662 363.886 500.202H367.312C367.255 501.202 366.982 502.082 366.494 502.844C366.011 503.599 365.343 504.19 364.491 504.616C363.638 505.043 362.63 505.256 361.465 505.256ZM378.031 499.426V491.909H381.662V505H378.176V502.622H378.04C377.744 503.389 377.253 504.006 376.565 504.472C375.884 504.937 375.051 505.17 374.068 505.17C373.193 505.17 372.423 504.972 371.759 504.574C371.094 504.176 370.574 503.611 370.199 502.878C369.83 502.145 369.642 501.267 369.636 500.244V491.909H373.267V499.597C373.273 500.369 373.48 500.98 373.889 501.429C374.298 501.878 374.847 502.102 375.534 502.102C375.972 502.102 376.381 502.003 376.761 501.804C377.142 501.599 377.449 501.298 377.682 500.901C377.92 500.503 378.037 500.011 378.031 499.426ZM384.566 505V491.909H388.026V494.219H388.18C388.452 493.452 388.907 492.847 389.543 492.403C390.18 491.96 390.941 491.739 391.827 491.739C392.725 491.739 393.489 491.963 394.12 492.412C394.751 492.855 395.171 493.457 395.381 494.219H395.518C395.785 493.469 396.268 492.869 396.967 492.42C397.671 491.966 398.504 491.739 399.464 491.739C400.685 491.739 401.677 492.128 402.438 492.906C403.205 493.679 403.589 494.776 403.589 496.196V505H399.967V496.912C399.967 496.185 399.773 495.639 399.387 495.276C399.001 494.912 398.518 494.73 397.938 494.73C397.279 494.73 396.765 494.94 396.396 495.361C396.026 495.776 395.842 496.324 395.842 497.006V505H392.322V496.835C392.322 496.193 392.137 495.682 391.768 495.301C391.404 494.92 390.924 494.73 390.327 494.73C389.924 494.73 389.56 494.832 389.237 495.037C388.918 495.236 388.665 495.517 388.478 495.881C388.29 496.239 388.197 496.659 388.197 497.142V505H384.566ZM412.423 505.256C411.076 505.256 409.917 504.983 408.945 504.438C407.979 503.886 407.235 503.108 406.712 502.102C406.19 501.091 405.928 499.895 405.928 498.514C405.928 497.168 406.19 495.986 406.712 494.969C407.235 493.952 407.971 493.159 408.92 492.591C409.874 492.023 410.994 491.739 412.278 491.739C413.141 491.739 413.945 491.878 414.69 492.156C415.44 492.429 416.093 492.841 416.65 493.392C417.212 493.943 417.65 494.636 417.962 495.472C418.275 496.301 418.431 497.273 418.431 498.386V499.384H407.377V497.134H415.013C415.013 496.611 414.9 496.148 414.673 495.744C414.445 495.341 414.13 495.026 413.727 494.798C413.329 494.565 412.866 494.449 412.337 494.449C411.786 494.449 411.298 494.577 410.871 494.832C410.451 495.082 410.121 495.42 409.883 495.847C409.644 496.267 409.522 496.736 409.516 497.253V499.392C409.516 500.04 409.636 500.599 409.874 501.071C410.119 501.543 410.462 501.906 410.906 502.162C411.349 502.418 411.874 502.545 412.482 502.545C412.886 502.545 413.255 502.489 413.59 502.375C413.925 502.261 414.212 502.091 414.451 501.864C414.69 501.636 414.871 501.358 414.996 501.028L418.354 501.25C418.184 502.057 417.835 502.761 417.306 503.364C416.783 503.96 416.107 504.426 415.278 504.761C414.454 505.091 413.502 505.256 412.423 505.256ZM424.431 497.432V505H420.8V491.909H424.261V494.219H424.414C424.704 493.457 425.19 492.855 425.871 492.412C426.553 491.963 427.38 491.739 428.352 491.739C429.261 491.739 430.053 491.938 430.729 492.335C431.406 492.733 431.931 493.301 432.306 494.04C432.681 494.773 432.869 495.648 432.869 496.665V505H429.238V497.312C429.244 496.511 429.039 495.886 428.624 495.438C428.21 494.983 427.638 494.756 426.911 494.756C426.423 494.756 425.991 494.861 425.616 495.071C425.246 495.281 424.957 495.588 424.746 495.991C424.542 496.389 424.437 496.869 424.431 497.432ZM442.693 491.909V494.636H434.81V491.909H442.693ZM436.599 488.773H440.23V500.977C440.23 501.312 440.281 501.574 440.384 501.761C440.486 501.943 440.628 502.071 440.81 502.145C440.997 502.219 441.213 502.256 441.457 502.256C441.628 502.256 441.798 502.241 441.969 502.213C442.139 502.179 442.27 502.153 442.361 502.136L442.932 504.838C442.75 504.895 442.494 504.96 442.165 505.034C441.835 505.114 441.435 505.162 440.963 505.179C440.088 505.213 439.321 505.097 438.662 504.83C438.009 504.562 437.5 504.148 437.136 503.585C436.773 503.023 436.594 502.312 436.599 501.455V488.773ZM455.786 495.642L452.462 495.847C452.406 495.562 452.283 495.307 452.096 495.08C451.908 494.847 451.661 494.662 451.354 494.526C451.053 494.384 450.692 494.312 450.272 494.312C449.71 494.312 449.235 494.432 448.849 494.67C448.462 494.903 448.269 495.216 448.269 495.608C448.269 495.92 448.394 496.185 448.644 496.401C448.894 496.616 449.323 496.79 449.931 496.92L452.3 497.398C453.573 497.659 454.522 498.08 455.147 498.659C455.772 499.239 456.085 500 456.085 500.943C456.085 501.801 455.832 502.554 455.326 503.202C454.826 503.849 454.138 504.355 453.263 504.719C452.394 505.077 451.391 505.256 450.255 505.256C448.522 505.256 447.141 504.895 446.113 504.173C445.09 503.446 444.491 502.457 444.315 501.207L447.886 501.02C447.994 501.548 448.255 501.952 448.67 502.23C449.085 502.503 449.616 502.639 450.263 502.639C450.9 502.639 451.411 502.517 451.798 502.273C452.19 502.023 452.388 501.702 452.394 501.31C452.388 500.98 452.249 500.71 451.977 500.5C451.704 500.284 451.283 500.119 450.715 500.006L448.448 499.554C447.17 499.298 446.218 498.855 445.593 498.224C444.974 497.594 444.664 496.79 444.664 495.812C444.664 494.972 444.891 494.247 445.346 493.639C445.806 493.031 446.451 492.562 447.281 492.233C448.116 491.903 449.093 491.739 450.212 491.739C451.866 491.739 453.167 492.088 454.116 492.787C455.07 493.486 455.627 494.437 455.786 495.642ZM467.556 497.432V505H463.925V487.545H467.454V494.219H467.607C467.903 493.446 468.38 492.841 469.039 492.403C469.698 491.96 470.525 491.739 471.519 491.739C472.428 491.739 473.221 491.938 473.897 492.335C474.579 492.727 475.107 493.293 475.482 494.031C475.863 494.764 476.05 495.642 476.045 496.665V505H472.414V497.312C472.42 496.506 472.215 495.878 471.8 495.429C471.391 494.98 470.817 494.756 470.079 494.756C469.585 494.756 469.147 494.861 468.766 495.071C468.391 495.281 468.096 495.588 467.88 495.991C467.67 496.389 467.562 496.869 467.556 497.432ZM484.868 505.256C483.521 505.256 482.362 504.983 481.391 504.438C480.425 503.886 479.68 503.108 479.158 502.102C478.635 501.091 478.374 499.895 478.374 498.514C478.374 497.168 478.635 495.986 479.158 494.969C479.68 493.952 480.416 493.159 481.365 492.591C482.32 492.023 483.439 491.739 484.723 491.739C485.587 491.739 486.391 491.878 487.135 492.156C487.885 492.429 488.538 492.841 489.095 493.392C489.658 493.943 490.095 494.636 490.408 495.472C490.72 496.301 490.876 497.273 490.876 498.386V499.384H479.822V497.134H487.459C487.459 496.611 487.345 496.148 487.118 495.744C486.891 495.341 486.575 495.026 486.172 494.798C485.774 494.565 485.311 494.449 484.783 494.449C484.232 494.449 483.743 494.577 483.317 494.832C482.896 495.082 482.567 495.42 482.328 495.847C482.089 496.267 481.967 496.736 481.962 497.253V499.392C481.962 500.04 482.081 500.599 482.32 501.071C482.564 501.543 482.908 501.906 483.351 502.162C483.794 502.418 484.32 502.545 484.928 502.545C485.331 502.545 485.7 502.489 486.036 502.375C486.371 502.261 486.658 502.091 486.896 501.864C487.135 501.636 487.317 501.358 487.442 501.028L490.8 501.25C490.629 502.057 490.28 502.761 489.751 503.364C489.229 503.96 488.553 504.426 487.723 504.761C486.899 505.091 485.947 505.256 484.868 505.256ZM493.246 505V491.909H496.766V494.193H496.902C497.141 493.381 497.541 492.767 498.104 492.352C498.666 491.932 499.314 491.722 500.047 491.722C500.229 491.722 500.425 491.733 500.635 491.756C500.845 491.778 501.03 491.81 501.189 491.849V495.071C501.018 495.02 500.783 494.974 500.482 494.935C500.18 494.895 499.905 494.875 499.655 494.875C499.121 494.875 498.643 494.991 498.223 495.224C497.808 495.452 497.479 495.77 497.234 496.179C496.996 496.588 496.876 497.06 496.876 497.594V505H493.246ZM508.423 505.256C507.076 505.256 505.917 504.983 504.945 504.438C503.979 503.886 503.235 503.108 502.712 502.102C502.19 501.091 501.928 499.895 501.928 498.514C501.928 497.168 502.19 495.986 502.712 494.969C503.235 493.952 503.971 493.159 504.92 492.591C505.874 492.023 506.994 491.739 508.278 491.739C509.141 491.739 509.945 491.878 510.69 492.156C511.44 492.429 512.093 492.841 512.65 493.392C513.212 493.943 513.65 494.636 513.962 495.472C514.275 496.301 514.431 497.273 514.431 498.386V499.384H503.377V497.134H511.013C511.013 496.611 510.9 496.148 510.673 495.744C510.445 495.341 510.13 495.026 509.727 494.798C509.329 494.565 508.866 494.449 508.337 494.449C507.786 494.449 507.298 494.577 506.871 494.832C506.451 495.082 506.121 495.42 505.883 495.847C505.644 496.267 505.522 496.736 505.516 497.253V499.392C505.516 500.04 505.636 500.599 505.874 501.071C506.119 501.543 506.462 501.906 506.906 502.162C507.349 502.418 507.874 502.545 508.482 502.545C508.886 502.545 509.255 502.489 509.59 502.375C509.925 502.261 510.212 502.091 510.451 501.864C510.69 501.636 510.871 501.358 510.996 501.028L514.354 501.25C514.184 502.057 513.835 502.761 513.306 503.364C512.783 503.96 512.107 504.426 511.278 504.761C510.454 505.091 509.502 505.256 508.423 505.256Z" fill="#343A40"/>
<defs>
<clipPath id="clip0_358_7963">
<rect width="316" height="208" fill="white" transform="translate(242 212)"/>
</clipPath>
</defs>
</svg>
