<svg width="25" height="24" viewBox="0 0 25 24" fill="none" xmlns="http://www.w3.org/2000/svg">
<g clip-path="url(#clip0_386_8702)">
<path d="M13.841 4C13.6144 4.64243 13.4991 5.31879 13.5 6H5.5V20H19.5V12C20.1812 12.0009 20.8576 11.8856 21.5 11.659V21C21.5 21.2652 21.3946 21.5196 21.2071 21.7071C21.0196 21.8946 20.7652 22 20.5 22H4.5C4.23478 22 3.98043 21.8946 3.79289 21.7071C3.60536 21.5196 3.5 21.2652 3.5 21V5C3.5 4.73478 3.60536 4.48043 3.79289 4.29289C3.98043 4.10536 4.23478 4 4.5 4H13.841ZM19.5 8C20.0304 8 20.5391 7.78929 20.9142 7.41421C21.2893 7.03914 21.5 6.53043 21.5 6C21.5 5.46957 21.2893 4.96086 20.9142 4.58579C20.5391 4.21071 20.0304 4 19.5 4C18.9696 4 18.4609 4.21071 18.0858 4.58579C17.7107 4.96086 17.5 5.46957 17.5 6C17.5 6.53043 17.7107 7.03914 18.0858 7.41421C18.4609 7.78929 18.9696 8 19.5 8ZM19.5 10C18.4391 10 17.4217 9.57857 16.6716 8.82843C15.9214 8.07828 15.5 7.06087 15.5 6C15.5 4.93913 15.9214 3.92172 16.6716 3.17157C17.4217 2.42143 18.4391 2 19.5 2C20.5609 2 21.5783 2.42143 22.3284 3.17157C23.0786 3.92172 23.5 4.93913 23.5 6C23.5 7.06087 23.0786 8.07828 22.3284 8.82843C21.5783 9.57857 20.5609 10 19.5 10Z" fill="#ADB5BD"/>
</g>
<defs>
<clipPath id="clip0_386_8702">
<rect width="24" height="24" fill="white" transform="translate(0.5)"/>
</clipPath>
</defs>
</svg>
