<svg width="40" height="40" viewBox="0 0 40 40" fill="none" xmlns="http://www.w3.org/2000/svg">
<rect width="40" height="40" rx="20" fill="#843FAE"/>
<g clip-path="url(#clip0_245_11936)">
<path d="M15.0001 28.9813C13.6341 28.8764 12.3362 28.3426 11.2917 27.4561C10.2472 26.5696 9.5095 25.3758 9.18391 24.0451C8.85833 22.7144 8.96152 21.3148 9.47876 20.0462C9.996 18.7777 10.9008 17.7049 12.0641 16.9813C12.3116 15.0513 13.2539 13.2778 14.7146 11.9924C16.1753 10.7071 18.0543 9.99805 20.0001 9.99805C21.9458 9.99805 23.8248 10.7071 25.2855 11.9924C26.7463 13.2778 27.6885 15.0513 27.9361 16.9813C29.0993 17.7049 30.0041 18.7777 30.5213 20.0462C31.0386 21.3148 31.1418 22.7144 30.8162 24.0451C30.4906 25.3758 29.7529 26.5696 28.7084 27.4561C27.6639 28.3426 26.366 28.8764 25.0001 28.9813V29.0003H15.0001V28.9813ZM21.0001 21.0003H24.0001L20.0001 16.0003L16.0001 21.0003H19.0001V25.0003H21.0001V21.0003Z" fill="white"/>
</g>
<defs>
<clipPath id="clip0_245_11936">
<rect width="24" height="24" fill="white" transform="translate(8 8)"/>
</clipPath>
</defs>
</svg>
