<svg width="135" height="48" viewBox="0 0 135 48" fill="none" xmlns="http://www.w3.org/2000/svg">
<path d="M25.9054 22.4802C25.8409 23.6477 26.1991 24.799 26.9129 25.7185C27.6268 26.638 28.6473 27.2626 29.7835 27.4754L29.0307 26.7136C28.9425 26.6243 28.8725 26.5183 28.8248 26.4017C28.777 26.285 28.7525 26.16 28.7525 26.0337C28.7525 25.7787 28.8526 25.5342 29.0307 25.3539C29.2089 25.1736 29.4505 25.0723 29.7025 25.0723C29.9544 25.0723 30.1961 25.1736 30.3742 25.3539L32.8421 27.8515C33.2137 28.2276 33.2137 28.8351 32.8421 29.2112L30.3838 31.7184C30.2956 31.8077 30.1908 31.8785 30.0756 31.9268C29.9603 31.9751 29.8368 32 29.712 32C29.5873 32 29.4637 31.9751 29.3485 31.9268C29.2332 31.8785 29.1285 31.8077 29.0403 31.7184C28.952 31.6291 28.8821 31.5231 28.8343 31.4065C28.7866 31.2898 28.762 31.1648 28.762 31.0386C28.762 30.9123 28.7866 30.7873 28.8343 30.6706C28.8821 30.554 28.952 30.448 29.0403 30.3587L29.8788 29.5101V29.4523C28.173 29.2471 26.6113 28.3834 25.5195 27.0413C24.4277 25.6992 23.8901 23.9823 24.0187 22.2488C24.2665 18.6808 27.3728 16 30.9078 16H32.5658C33.0899 16 33.5186 16.4339 33.5186 16.9643C33.5186 17.4947 33.0899 17.9286 32.5658 17.9286H30.8697C28.297 17.9286 26.0388 19.8958 25.9054 22.4802ZM37.33 22.7502H42.0943C43.1424 22.7502 44 21.8823 44 20.8216V17.9286C44 16.8679 43.1424 16 42.0943 16H37.33C36.2819 16 35.4243 16.8679 35.4243 17.9286V20.8216C35.4243 21.8823 36.2819 22.7502 37.33 22.7502ZM42.0943 20.8216H37.33V17.9286H42.0943V20.8216ZM42.0943 31.4291H37.33C36.2819 31.4291 35.4243 30.5612 35.4243 29.5005V26.6075C35.4243 25.5468 36.2819 24.6789 37.33 24.6789H42.0943C43.1424 24.6789 44 25.5468 44 26.6075V29.5005C44 30.5612 43.1424 31.4291 42.0943 31.4291Z" fill="#4B9560"/>
<path d="M53.259 18.8182H55.9138L58.7178 25.6591H58.8371L61.6411 18.8182H64.2959V29H62.2078V22.3729H62.1233L59.4884 28.9503H58.0665L55.4316 22.348H55.347V29H53.259V18.8182ZM69.48 29.1491C68.7078 29.1491 68.0399 28.9851 67.4765 28.657C66.9163 28.3255 66.4838 27.8648 66.1789 27.2749C65.874 26.6816 65.7215 25.9938 65.7215 25.2116C65.7215 24.4228 65.874 23.7334 66.1789 23.1435C66.4838 22.5502 66.9163 22.0895 67.4765 21.7614C68.0399 21.4299 68.7078 21.2642 69.48 21.2642C70.2523 21.2642 70.9185 21.4299 71.4786 21.7614C72.0421 22.0895 72.4762 22.5502 72.7812 23.1435C73.0861 23.7334 73.2385 24.4228 73.2385 25.2116C73.2385 25.9938 73.0861 26.6816 72.7812 27.2749C72.4762 27.8648 72.0421 28.3255 71.4786 28.657C70.9185 28.9851 70.2523 29.1491 69.48 29.1491ZM69.49 27.5085C69.8413 27.5085 70.1346 27.4091 70.3699 27.2102C70.6053 27.008 70.7826 26.733 70.9019 26.3849C71.0245 26.0369 71.0858 25.6409 71.0858 25.1967C71.0858 24.7526 71.0245 24.3565 70.9019 24.0085C70.7826 23.6605 70.6053 23.3854 70.3699 23.1832C70.1346 22.9811 69.8413 22.88 69.49 22.88C69.1353 22.88 68.837 22.9811 68.5951 23.1832C68.3564 23.3854 68.1758 23.6605 68.0532 24.0085C67.9339 24.3565 67.8742 24.7526 67.8742 25.1967C67.8742 25.6409 67.9339 26.0369 68.0532 26.3849C68.1758 26.733 68.3564 27.008 68.5951 27.2102C68.837 27.4091 69.1353 27.5085 69.49 27.5085ZM81.4889 21.3636L78.8192 29H76.4328L73.7631 21.3636H76.0003L77.5862 26.8274H77.6657L79.2467 21.3636H81.4889ZM85.8067 29.1491C85.0212 29.1491 84.3451 28.9901 83.7783 28.6719C83.2149 28.3504 82.7807 27.8963 82.4758 27.3097C82.1708 26.7197 82.0184 26.022 82.0184 25.2166C82.0184 24.4311 82.1708 23.7417 82.4758 23.1484C82.7807 22.5552 83.2099 22.0928 83.7634 21.7614C84.3202 21.4299 84.9732 21.2642 85.7222 21.2642C86.226 21.2642 86.695 21.3454 87.1292 21.5078C87.5667 21.6669 87.9478 21.9072 88.2726 22.2287C88.6008 22.5502 88.856 22.9545 89.0383 23.4418C89.2206 23.9257 89.3117 24.4924 89.3117 25.142V25.7237H82.8635V24.4112H87.3181C87.3181 24.1063 87.2518 23.8362 87.1192 23.6009C86.9867 23.3655 86.8027 23.1816 86.5674 23.049C86.3354 22.9131 86.0653 22.8452 85.757 22.8452C85.4355 22.8452 85.1505 22.9197 84.9019 23.0689C84.6566 23.2147 84.4644 23.4119 84.3252 23.6605C84.186 23.9058 84.1147 24.1792 84.1114 24.4808V25.7287C84.1114 26.1065 84.181 26.433 84.3202 26.7081C84.4627 26.9832 84.6633 27.1953 84.9218 27.3445C85.1803 27.4936 85.4869 27.5682 85.8415 27.5682C86.0769 27.5682 86.2923 27.535 86.4878 27.4688C86.6834 27.4025 86.8508 27.303 86.99 27.1705C87.1292 27.0379 87.2352 26.8755 87.3081 26.6832L89.267 26.8125C89.1675 27.2831 88.9637 27.6941 88.6555 28.0455C88.3505 28.3935 87.9561 28.6652 87.4722 28.8608C86.9916 29.053 86.4365 29.1491 85.8067 29.1491ZM99.4972 21.7464C99.4575 21.3454 99.2868 21.0339 98.9852 20.8118C98.6836 20.5897 98.2742 20.4787 97.7572 20.4787C97.4059 20.4787 97.1092 20.5284 96.8673 20.6278C96.6253 20.724 96.4397 20.8582 96.3105 21.0305C96.1845 21.2029 96.1215 21.3984 96.1215 21.6172C96.1149 21.7995 96.153 21.9586 96.2359 22.0945C96.3221 22.2304 96.4397 22.348 96.5889 22.4474C96.738 22.5436 96.9104 22.6281 97.1059 22.701C97.3015 22.7706 97.5103 22.8303 97.7323 22.88L98.6471 23.0987C99.0912 23.1982 99.4989 23.3307 99.8701 23.4964C100.241 23.6622 100.563 23.866 100.835 24.108C101.106 24.3499 101.317 24.6349 101.466 24.9631C101.618 25.2912 101.696 25.6674 101.7 26.0916C101.696 26.7147 101.537 27.255 101.222 27.7124C100.911 28.1664 100.46 28.5194 99.8701 28.7713C99.2835 29.0199 98.5758 29.1442 97.7472 29.1442C96.9253 29.1442 96.2094 29.0182 95.5995 28.7663C94.993 28.5144 94.519 28.1416 94.1776 27.6477C93.8396 27.1506 93.6623 26.5357 93.6457 25.8033H95.7288C95.752 26.1446 95.8498 26.4297 96.0221 26.6584C96.1978 26.8838 96.4314 27.0545 96.7231 27.1705C97.0181 27.2831 97.3512 27.3395 97.7224 27.3395C98.087 27.3395 98.4035 27.2865 98.672 27.1804C98.9437 27.0743 99.1542 26.9268 99.3034 26.7379C99.4525 26.549 99.5271 26.3319 99.5271 26.0866C99.5271 25.858 99.4591 25.6657 99.3232 25.5099C99.1907 25.3542 98.9951 25.2216 98.7366 25.1122C98.4814 25.0028 98.1682 24.9034 97.797 24.8139L96.6883 24.5355C95.8299 24.3267 95.1521 24.0002 94.6549 23.5561C94.1578 23.112 93.9108 22.5137 93.9142 21.7614C93.9108 21.1449 94.0749 20.6063 94.4063 20.1456C94.7411 19.6849 95.2001 19.3253 95.7835 19.0668C96.3668 18.8082 97.0297 18.679 97.7721 18.679C98.5278 18.679 99.1874 18.8082 99.7508 19.0668C100.318 19.3253 100.758 19.6849 101.073 20.1456C101.388 20.6063 101.551 21.1399 101.56 21.7464H99.4972ZM107.17 21.3636V22.9545H102.571V21.3636H107.17ZM103.615 19.5341H105.733V26.6534C105.733 26.849 105.763 27.0014 105.822 27.1108C105.882 27.2169 105.965 27.2914 106.071 27.3345C106.18 27.3776 106.306 27.3991 106.449 27.3991C106.548 27.3991 106.648 27.3909 106.747 27.3743C106.847 27.3544 106.923 27.3395 106.976 27.3295L107.309 28.9055C107.203 28.9387 107.054 28.9768 106.861 29.0199C106.669 29.0663 106.436 29.0945 106.16 29.1044C105.65 29.1243 105.203 29.0563 104.818 28.9006C104.437 28.7448 104.14 28.5028 103.928 28.1747C103.716 27.8466 103.612 27.4323 103.615 26.9318V19.5341ZM110.727 29.1442C110.24 29.1442 109.805 29.0597 109.424 28.8906C109.043 28.7183 108.742 28.4647 108.519 28.13C108.301 27.7919 108.191 27.371 108.191 26.8672C108.191 26.4429 108.269 26.0866 108.425 25.7983C108.581 25.5099 108.793 25.2779 109.061 25.1023C109.33 24.9266 109.635 24.794 109.976 24.7045C110.321 24.6151 110.682 24.5521 111.06 24.5156C111.504 24.4692 111.862 24.4261 112.134 24.3864C112.406 24.3433 112.603 24.2803 112.725 24.1974C112.848 24.1146 112.909 23.992 112.909 23.8295V23.7997C112.909 23.4848 112.81 23.2412 112.611 23.0689C112.416 22.8965 112.137 22.8104 111.776 22.8104C111.395 22.8104 111.091 22.8949 110.866 23.0639C110.641 23.2296 110.492 23.4384 110.419 23.6903L108.46 23.5312C108.559 23.0672 108.755 22.6662 109.046 22.3281C109.338 21.9867 109.714 21.7249 110.175 21.5426C110.639 21.357 111.176 21.2642 111.786 21.2642C112.21 21.2642 112.616 21.3139 113.004 21.4134C113.395 21.5128 113.741 21.6669 114.043 21.8757C114.348 22.0845 114.588 22.353 114.764 22.6811C114.939 23.0059 115.027 23.3954 115.027 23.8494V29H113.019V27.9411H112.959C112.836 28.1797 112.672 28.3902 112.467 28.5724C112.261 28.7514 112.014 28.8923 111.726 28.995C111.438 29.0945 111.105 29.1442 110.727 29.1442ZM111.333 27.6825C111.645 27.6825 111.92 27.6212 112.159 27.4986C112.397 27.3726 112.585 27.2036 112.72 26.9915C112.856 26.7794 112.924 26.5391 112.924 26.2706V25.4602C112.858 25.5033 112.767 25.5431 112.651 25.5795C112.538 25.6127 112.411 25.6442 112.268 25.674C112.126 25.7005 111.983 25.7254 111.84 25.7486C111.698 25.7685 111.569 25.7867 111.453 25.8033C111.204 25.8397 110.987 25.8977 110.801 25.9773C110.616 26.0568 110.472 26.1645 110.369 26.3004C110.266 26.433 110.215 26.5987 110.215 26.7976C110.215 27.0859 110.319 27.3063 110.528 27.4588C110.74 27.608 111.009 27.6825 111.333 27.6825ZM120.777 21.3636V22.9545H116.064V21.3636H120.777ZM117.143 29V20.8118C117.143 20.2583 117.25 19.7992 117.466 19.4347C117.685 19.0701 117.983 18.7966 118.361 18.6143C118.739 18.4321 119.168 18.3409 119.648 18.3409C119.973 18.3409 120.27 18.3658 120.538 18.4155C120.81 18.4652 121.012 18.5099 121.145 18.5497L120.767 20.1406C120.684 20.1141 120.581 20.0893 120.459 20.0661C120.339 20.0429 120.217 20.0312 120.091 20.0312C119.779 20.0312 119.562 20.1042 119.44 20.25C119.317 20.3925 119.256 20.593 119.256 20.8516V29H117.143ZM126.177 21.3636V22.9545H121.464V21.3636H126.177ZM122.543 29V20.8118C122.543 20.2583 122.651 19.7992 122.866 19.4347C123.085 19.0701 123.383 18.7966 123.761 18.6143C124.139 18.4321 124.568 18.3409 125.049 18.3409C125.374 18.3409 125.67 18.3658 125.939 18.4155C126.21 18.4652 126.413 18.5099 126.545 18.5497L126.167 20.1406C126.084 20.1141 125.982 20.0893 125.859 20.0661C125.74 20.0429 125.617 20.0312 125.491 20.0312C125.18 20.0312 124.963 20.1042 124.84 20.25C124.717 20.3925 124.656 20.593 124.656 20.8516V29H122.543Z" fill="#4B9560"/>
</svg>
