<svg width="21" height="17" viewBox="0 0 21 17" fill="none" xmlns="http://www.w3.org/2000/svg">
<path d="M2.40537 6.98022C2.34088 8.14774 2.6991 9.29902 3.41295 10.2185C4.1268 11.138 5.14734 11.7626 6.28347 11.9754L5.53072 11.2136C5.44251 11.1243 5.37253 11.0183 5.32479 10.9017C5.27704 10.785 5.25247 10.66 5.25247 10.5337C5.25247 10.2787 5.35256 10.0342 5.53072 9.85389C5.70888 9.67359 5.95052 9.57229 6.20248 9.57229C6.45444 9.57229 6.69608 9.67359 6.87424 9.85389L9.34212 12.3515C9.71373 12.7276 9.71373 13.3351 9.34212 13.7112L6.88377 16.2184C6.79555 16.3077 6.69082 16.3785 6.57556 16.4268C6.4603 16.4751 6.33677 16.5 6.21201 16.5C6.08725 16.5 5.96372 16.4751 5.84846 16.4268C5.7332 16.3785 5.62847 16.3077 5.54025 16.2184C5.45203 16.1291 5.38206 16.0231 5.33431 15.9065C5.28657 15.7898 5.262 15.6648 5.262 15.5386C5.262 15.4123 5.28657 15.2873 5.33431 15.1706C5.38206 15.054 5.45203 14.948 5.54025 14.8587L6.37876 14.0101V13.9523C4.673 13.7471 3.11135 12.8834 2.01954 11.5413C0.927738 10.1992 0.390086 8.48234 0.518731 6.74879C0.766472 3.18081 3.87276 0.5 7.40784 0.5H9.0658C9.58986 0.5 10.0186 0.933944 10.0186 1.46432C10.0186 1.99469 9.58986 2.42864 9.0658 2.42864H7.36972C4.79703 2.42864 2.53877 4.39585 2.40537 6.98022ZM13.83 7.25023H18.5943C19.6424 7.25023 20.5 6.38235 20.5 5.3216V2.42864C20.5 1.36789 19.6424 0.5 18.5943 0.5H13.83C12.7819 0.5 11.9243 1.36789 11.9243 2.42864V5.3216C11.9243 6.38235 12.7819 7.25023 13.83 7.25023ZM18.5943 5.3216H13.83V2.42864H18.5943V5.3216ZM18.5943 15.9291H13.83C12.7819 15.9291 11.9243 15.0612 11.9243 14.0005V11.1075C11.9243 10.0468 12.7819 9.17887 13.83 9.17887H18.5943C19.6424 9.17887 20.5 10.0468 20.5 11.1075V14.0005C20.5 15.0612 19.6424 15.9291 18.5943 15.9291Z" fill="white"/>
</svg>
