<svg width="40" height="40" viewBox="0 0 40 40" fill="none" xmlns="http://www.w3.org/2000/svg">
<rect width="40" height="40" rx="20" fill="#DB353A"/>
<path d="M10 12C9.44772 12 9 12.4477 9 13V27C9 27.5523 9.44772 28 10 28H30C30.5523 28 31 27.5523 31 27V13C31 12.4477 30.5523 12 30 12H10ZM17.0001 18C17.0001 17.4477 16.5524 17 16.0001 17C15.4478 17 15.0001 17.4477 15.0001 18C15.0001 18.5523 15.4478 19 16.0001 19C16.5524 19 17.0001 18.5523 17.0001 18ZM19.0001 18C19.0001 19.6569 17.6569 21 16.0001 21C14.3432 21 13.0001 19.6569 13.0001 18C13.0001 16.3432 14.3432 15 16.0001 15C17.6569 15 19.0001 16.3432 19.0001 18ZM13.5272 25.0251L12.113 23.6109C13.1073 22.6167 14.4836 22 16.0021 22C17.5206 22 18.897 22.6167 19.8912 23.6109L18.477 25.0251C17.8425 24.3907 16.9689 24 16.0021 24C15.0353 24 14.1617 24.3907 13.5272 25.0251ZM28.2071 18.7071L24.2071 22.7071L23.5 23.4142L22.7929 22.7071L20.2929 20.2071L21.7071 18.7929L23.5 20.5858L26.7929 17.2929L28.2071 18.7071Z" fill="white"/>
</svg>
