<svg width="40" height="40" viewBox="0 0 40 40" fill="none" xmlns="http://www.w3.org/2000/svg">
<rect x="0.5" y="0.5" width="39" height="39" rx="19.5" fill="white"/>
<rect x="0.5" y="0.5" width="39" height="39" rx="19.5" stroke="#4B9560"/>
<g clip-path="url(#clip0_781_6679)">
<path d="M28 26.667L28.4 27.2C28.4557 27.2743 28.4896 27.3626 28.498 27.4551C28.5063 27.5476 28.4887 27.6406 28.4472 27.7236C28.4057 27.8067 28.3419 27.8765 28.2629 27.9253C28.1839 27.9741 28.0929 28 28 28H12C11.9071 28 11.8161 27.9741 11.7371 27.9253C11.6581 27.8765 11.5943 27.8067 11.5528 27.7236C11.5113 27.6406 11.4937 27.5476 11.502 27.4551C11.5104 27.3626 11.5443 27.2743 11.6 27.2L12 26.667V18C12 15.8783 12.8429 13.8434 14.3431 12.3431C15.8434 10.8429 17.8783 10 20 10C22.1217 10 24.1566 10.8429 25.6569 12.3431C27.1571 13.8434 28 15.8783 28 18V26.667ZM17.5 29H22.5C22.5 29.663 22.2366 30.2989 21.7678 30.7678C21.2989 31.2366 20.663 31.5 20 31.5C19.337 31.5 18.7011 31.2366 18.2322 30.7678C17.7634 30.2989 17.5 29.663 17.5 29Z" fill="#4B9560"/>
</g>
<defs>
<clipPath id="clip0_781_6679">
<rect width="24" height="24" fill="white" transform="translate(8 8)"/>
</clipPath>
</defs>
</svg>
