<svg width="40" height="40" viewBox="0 0 40 40" fill="none" xmlns="http://www.w3.org/2000/svg">
<rect width="40" height="40" rx="20" fill="#34C759"/>
<g clip-path="url(#clip0_245_11926)">
<path d="M24 28V12H12V27C12 27.2652 12.1054 27.5196 12.2929 27.7071C12.4804 27.8946 12.7348 28 13 28H24ZM27 30H13C12.2044 30 11.4413 29.6839 10.8787 29.1213C10.3161 28.5587 10 27.7956 10 27V11C10 10.7348 10.1054 10.4804 10.2929 10.2929C10.4804 10.1054 10.7348 10 11 10H25C25.2652 10 25.5196 10.1054 25.7071 10.2929C25.8946 10.4804 26 10.7348 26 11V18H30V27C30 27.7956 29.6839 28.5587 29.1213 29.1213C28.5587 29.6839 27.7956 30 27 30ZM26 20V27C26 27.2652 26.1054 27.5196 26.2929 27.7071C26.4804 27.8946 26.7348 28 27 28C27.2652 28 27.5196 27.8946 27.7071 27.7071C27.8946 27.5196 28 27.2652 28 27V20H26ZM14 14H20V20H14V14ZM16 16V18H18V16H16ZM14 21H22V23H14V21ZM14 24H22V26H14V24Z" fill="white"/>
</g>
<defs>
<clipPath id="clip0_245_11926">
<rect width="24" height="24" fill="white" transform="translate(8 8)"/>
</clipPath>
</defs>
</svg>
