<svg width="59" height="60" viewBox="0 0 59 60" fill="none" xmlns="http://www.w3.org/2000/svg">
<circle cx="29.5" cy="30" r="29.5" fill="#B9DCD2"/>
<path d="M24.7587 28.1145C24.7587 29.1519 24.384 30.1467 23.7172 30.8803C23.0504 31.6138 22.1459 32.0259 21.2029 32.0259C20.2598 32.0259 19.3554 31.6138 18.6885 30.8803C18.0217 30.1467 17.6471 29.1519 17.6471 28.1145C17.6471 25.9537 19.2385 24.2031 21.2029 24.2031C23.1672 24.2031 24.7587 25.9537 24.7587 28.1145ZM13.6962 38.3997C13.6962 35.3175 18.698 33.7643 21.2029 33.7643C23.7077 33.7643 28.7096 35.3175 28.7096 38.3997V45.0638H13.6962V38.3997ZM41.3524 28.1145C41.3524 29.1519 40.9778 30.1467 40.3109 30.8803C39.6441 31.6138 38.7397 32.0259 37.7966 32.0259C36.8536 32.0259 35.9491 31.6138 35.2823 30.8803C34.6154 30.1467 34.2408 29.1519 34.2408 28.1145C34.2408 25.9537 35.8322 24.2031 37.7966 24.2031C39.761 24.2031 41.3524 25.9537 41.3524 28.1145ZM31.8703 26.8107C31.8703 27.5023 31.6205 28.1655 31.176 28.6546C30.7314 29.1436 30.1284 29.4183 29.4997 29.4183C28.871 29.4183 28.2681 29.1436 27.8235 28.6546C27.379 28.1655 27.1292 27.5023 27.1292 26.8107C27.1292 26.1191 27.379 25.4559 27.8235 24.9669C28.2681 24.4779 28.871 24.2031 29.4997 24.2031C30.1284 24.2031 30.7314 24.4779 31.176 24.9669C31.6205 25.4559 31.8703 26.1191 31.8703 26.8107ZM30.2899 38.3997C30.2899 35.3175 35.2917 33.7643 37.7966 33.7643C40.3015 33.7643 45.3033 35.3175 45.3033 38.3997V45.0638H30.2899V38.3997Z" fill="white"/>
<path fill-rule="evenodd" clip-rule="evenodd" d="M33.2533 32.2663C33.0426 32.3515 32.8351 32.4422 32.6307 32.5384C31.7062 32.973 30.7714 33.5606 30.0452 34.3463C29.8508 34.5575 29.6659 34.7879 29.5 35.0391C29.3356 34.7923 29.1533 34.5606 28.9548 34.3463C28.2286 33.5606 27.2946 32.973 26.3685 32.5384C26.163 32.442 25.9554 32.3513 25.7458 32.2663C26.9493 31.5805 28.4965 31.2363 29.5 31.2363C30.5035 31.2363 32.0507 31.5805 33.2533 32.2663Z" fill="white"/>
<path fill-rule="evenodd" clip-rule="evenodd" d="M29.1054 22.0739C28.8947 22.1591 28.6871 22.2498 28.4827 22.346C27.5582 22.7806 26.6234 23.3682 25.8973 24.1539C25.7029 24.3651 25.518 24.5955 25.352 24.8467C25.1876 24.5999 25.0053 24.3682 24.8068 24.1539C24.0806 23.3682 23.1467 22.7806 22.2206 22.346C22.0151 22.2496 21.8075 22.1589 21.5979 22.0739C22.8013 21.3881 24.3485 21.0439 25.352 21.0439C26.3556 21.0439 27.9027 21.3881 29.1054 22.0739Z" fill="white"/>
<path fill-rule="evenodd" clip-rule="evenodd" d="M37.0071 22.0739C36.7964 22.1591 36.5889 22.2498 36.3845 22.346C35.46 22.7806 34.5252 23.3682 33.799 24.1539C33.6046 24.3651 33.4197 24.5955 33.2538 24.8467C33.0894 24.5999 32.907 24.3682 32.7085 24.1539C31.9824 23.3682 31.0484 22.7806 30.1223 22.346C29.9168 22.2496 29.7092 22.1589 29.4996 22.0739C30.7031 21.3881 32.2502 21.0439 33.2538 21.0439C34.2573 21.0439 35.8045 21.3881 37.0071 22.0739Z" fill="white"/>
<circle cx="33.0556" cy="18.2772" r="1.97545" fill="white"/>
<circle cx="25.1539" cy="18.2772" r="1.97545" fill="white"/>
</svg>
